<svg xmlns="http://www.w3.org/2000/svg" viewBox="0 0 167.50391 12.35352"><defs><style>.cls-1{fill:#fff;}</style></defs><title>アセット 8</title><g id="レイヤー_2" data-name="レイヤー 2"><g id="レイヤー_1-2" data-name="レイヤー 1"><path class="cls-1" d="M2.85449.28906A7.96393,7.96393,0,0,0,.792,5.8418a7.96392,7.96392,0,0,0,2.0625,5.55273l-.34765.28711A7.749,7.749,0,0,1,0,5.8418,7.7531,7.7531,0,0,1,2.50684,0Z"/><path class="cls-1" d="M9.81348,3.99414A2.13816,2.13816,0,0,0,7.666,2.05176c-1.499,0-2.60254,1.2832-2.60254,3.71777,0,2.42285,1.11523,3.71777,2.60254,3.71777A2.14351,2.14351,0,0,0,9.90918,7.50781l.99512.33594a3.10059,3.10059,0,0,1-3.25,2.50781c-2.123,0-3.69434-1.668-3.69434-4.57031C3.96,2.86719,5.544,1.1875,7.6543,1.1875a3.1035,3.1035,0,0,1,3.19043,2.53125Z"/><path class="cls-1" d="M12.12012,0A7.75312,7.75312,0,0,1,14.627,5.8418a7.749,7.749,0,0,1-2.50683,5.83984l-.34766-.28711A7.96392,7.96392,0,0,0,13.835,5.8418,7.96393,7.96393,0,0,0,11.77246.28906Z"/><path class="cls-1" d="M21.46777,5.14648a2.79231,2.79231,0,0,1,2.11035-1.23632,1.62234,1.62234,0,0,1,1.70313,1.76367v4.50976h-.99512V6.02148c0-.875-.37207-1.248-1.03125-1.248a2.47084,2.47084,0,0,0-1.78711,1.21191v4.19824h-.97168V1.1875h.97168Z"/><path class="cls-1" d="M27.28809,5.51758a2.31225,2.31225,0,0,1,2.43457-1.60742c1.47558,0,2.21875.64843,2.21875,2.03906V8.19238a15.11438,15.11438,0,0,0,.12011,1.99121h-.88769a7.47726,7.47726,0,0,1-.13184-.97265,2.45187,2.45187,0,0,1-2.09863,1.11621A1.70924,1.70924,0,0,1,27.05957,8.54c0-1.04395.60059-1.7627,2.01563-2.01465A16.78952,16.78952,0,0,1,30.99414,6.333V6.00977c0-.98438-.37207-1.36719-1.2959-1.36719a1.45047,1.45047,0,0,0-1.48633,1.16308Zm3.70605,1.4873a9.20812,9.20812,0,0,0-1.70312.19239c-.89942.1914-1.28321.61132-1.28321,1.29492A1.0481,1.0481,0,0,0,29.18262,9.5957a2.17721,2.17721,0,0,0,1.81152-1.21191Z"/><path class="cls-1" d="M35.35059,4.05469h1.46386v.75586H35.35059V8.58789c0,.68359.30078.99609.85156.99609a3.40853,3.40853,0,0,0,.76758-.07226l-.04688.75586a6.44133,6.44133,0,0,1-.94824.05957,1.3921,1.3921,0,0,1-1.583-1.55957v-3.957h-.99512V4.05469h.99512V2.14746l.959-.21582Z"/><path class="cls-1" d="M38.14746,5.51758A2.31345,2.31345,0,0,1,40.583,3.91016c1.47461,0,2.21875.64843,2.21875,2.03906V8.19238a15.322,15.322,0,0,0,.11914,1.99121h-.88672a7.29,7.29,0,0,1-.13281-.97265,2.45072,2.45072,0,0,1-2.09864,1.11621A1.70894,1.70894,0,0,1,37.91992,8.54c0-1.04395.59961-1.7627,2.01465-2.01465a16.81266,16.81266,0,0,1,1.919-.19238V6.00977c0-.98438-.37207-1.36719-1.29493-1.36719a1.45219,1.45219,0,0,0-1.4873,1.16308Zm3.70606,1.4873a9.18661,9.18661,0,0,0-1.70215.19239c-.90039.1914-1.28418.61132-1.28418,1.29492A1.04841,1.04841,0,0,0,40.043,9.5957a2.17585,2.17585,0,0,0,1.81055-1.21191Z"/><path class="cls-1" d="M47.81836,4.87012c-.75586,0-1.499.59961-1.88281,1.79883v3.51464h-.97168V4.05469h.93554V5.61328c.45508-1.17578,1.1875-1.6914,1.99024-1.6914Z"/><path class="cls-1" d="M49.18848,5.51758a2.31108,2.31108,0,0,1,2.43359-1.60742c1.47559,0,2.21875.64843,2.21875,2.03906V8.19238a15.07961,15.07961,0,0,0,.12109,1.99121h-.88867a7.33357,7.33357,0,0,1-.13086-.97265,2.45233,2.45233,0,0,1-2.09961,1.11621A1.70845,1.70845,0,0,1,48.96,8.54c0-1.04395.59961-1.7627,2.01465-2.01465A16.8127,16.8127,0,0,1,52.89355,6.333V6.00977c0-.98438-.37109-1.36719-1.29492-1.36719a1.45219,1.45219,0,0,0-1.4873,1.16308Zm3.70507,1.4873a9.21838,9.21838,0,0,0-1.70312.19239c-.89941.1914-1.2832.61132-1.2832,1.29492A1.04841,1.04841,0,0,0,51.083,9.5957a2.17583,2.17583,0,0,0,1.81054-1.21191Z"/><path class="cls-1" d="M58.70215,6.38086,60.957,10.18359H59.85352L58.043,7.0293l-1.0791,1.15039v2.0039h-.96V1.1875h.96V7.11328l2.69824-3.05859h1.13965Z"/><path class="cls-1" d="M63.4668,2.87891H62.26758V1.69141H63.4668Zm-.10742,7.30468H62.376V4.05469h.9834Z"/><path class="cls-1" d="M69.959,5.14648a2.79233,2.79233,0,0,1,2.11036-1.23632,1.62234,1.62234,0,0,1,1.70312,1.76367v4.50976h-.99512V6.02148c0-.875-.37207-1.248-1.03125-1.248A2.47254,2.47254,0,0,0,69.959,5.98535v4.19824H68.9873V1.1875H69.959Z"/><path class="cls-1" d="M75.7793,5.51758a2.31225,2.31225,0,0,1,2.43457-1.60742c1.47461,0,2.21875.64843,2.21875,2.03906V8.19238a15.28658,15.28658,0,0,0,.12011,1.99121H79.665a7.479,7.479,0,0,1-.13184-.97265,2.4507,2.4507,0,0,1-2.09863,1.11621A1.70845,1.70845,0,0,1,75.55176,8.54c0-1.04395.59961-1.7627,2.01465-2.01465A16.81247,16.81247,0,0,1,79.48535,6.333V6.00977c0-.98438-.37207-1.36719-1.29492-1.36719a1.45322,1.45322,0,0,0-1.48828,1.16308Zm3.706,1.4873a9.19809,9.19809,0,0,0-1.70312.19239c-.89942.1914-1.28321.61132-1.28321,1.29492A1.04842,1.04842,0,0,0,77.6748,9.5957a2.17706,2.17706,0,0,0,1.81055-1.21191Z"/><path class="cls-1" d="M87.53613,4.127a1.485,1.485,0,0,0-1.22265.44336,1.76647,1.76647,0,0,1,.59961,1.34375,2.0308,2.0308,0,0,1-2.26758,2.002,2.38388,2.38388,0,0,1-.92285-.17969c-.36036.2041-.55176.46777-.55176.68359,0,.32422.15625.48047,1.13867.58789L85.5459,9.127c1.61914.15625,2.07422.6836,2.07422,1.48828,0,.97071-.99512,1.73829-2.91407,1.73829-1.72656,0-2.69921-.5879-2.69921-1.47461,0-.55176.44433-1.01953,1.21191-1.27149-.624-.14453-.91113-.456-.91113-.91211,0-.43164.28711-.83886.88672-1.22265a1.84369,1.84369,0,0,1-.81543-1.5586,2.0833,2.0833,0,0,1,2.2666-1.99218,2.47891,2.47891,0,0,1,1.21191.30078,1.8407,1.8407,0,0,1,1.751-.93555ZM83.93848,9.76367c-.71973.20313-1.08008.55078-1.08008.98242,0,.64844.76758.97266,1.88379.97266,1.31933,0,2.00293-.44434,2.00293-.98437,0-.43165-.24024-.707-1.3916-.82715ZM83.291,5.92578a1.355,1.355,0,0,0,2.71,0,1.355,1.355,0,0,0-2.71,0Z"/><path class="cls-1" d="M93.9082,10.18359h-.93554V9.05566a2.58185,2.58185,0,0,1-2.13477,1.27149,1.61134,1.61134,0,0,1-1.71484-1.73926V4.05469h.99511v4.2334c0,.83886.39649,1.1875,1.05567,1.1875a2.27612,2.27612,0,0,0,1.76269-1.23536V4.05469h.97168Z"/><path class="cls-1" d="M98.81738,6.38086l2.25489,3.80273H99.96875L98.1582,7.0293,97.0791,8.17969v2.0039h-.96V1.1875h.96V7.11328l2.69824-3.05859H100.917Z"/><path class="cls-1" d="M107.24023,10.18359h-.93554V9.05566a2.58183,2.58183,0,0,1-2.13477,1.27149,1.61087,1.61087,0,0,1-1.71484-1.73926V4.05469h.99512v4.2334c0,.83886.39648,1.1875,1.05566,1.1875a2.27612,2.27612,0,0,0,1.76269-1.23536V4.05469h.97168Z"/><path class="cls-1" d="M110.38574,5.16992a2.46678,2.46678,0,0,1,2.00293-1.248,1.45612,1.45612,0,0,1,1.53516,1.23632,2.56154,2.56154,0,0,1,2.03906-1.23632,1.58114,1.58114,0,0,1,1.64356,1.752v4.50976h-.98438V6.02148c0-.86328-.37109-1.248-1.00684-1.248a2.108,2.108,0,0,0-1.63085,1.21191v4.19824h-.96V6.02148c0-.88769-.35937-1.248-.959-1.248a2.14867,2.14867,0,0,0-1.65527,1.21191v4.19824h-.96V4.05469h.93554Z"/><path class="cls-1" d="M124.53223,10.18359h-.93555V9.05566a2.58314,2.58314,0,0,1-2.13477,1.27149,1.61087,1.61087,0,0,1-1.71484-1.73926V4.05469h.99512v4.2334c0,.83886.39551,1.1875,1.05566,1.1875a2.27762,2.27762,0,0,0,1.7627-1.23536V4.05469h.97168Z"/><path class="cls-1" d="M131.09766,5.01367a2.16138,2.16138,0,0,1,1.81152-1.09179c1.35547,0,2.3623,1.14062,2.3623,3.17871,0,2.03906-1.0791,3.22656-2.42285,3.22656a1.83708,1.83708,0,0,1-1.71484-1.06738v3.09375h-.9707V4.05469h.93457Zm.03613,3.38281c.4082.7793.89941,1.13868,1.51172,1.13868.91113,0,1.63086-.81543,1.63086-2.41016,0-1.5957-.67188-2.41113-1.55957-2.41113a1.81446,1.81446,0,0,0-1.583,1.17578Z"/><path class="cls-1" d="M139.95215,4.87012c-.75488,0-1.498.59961-1.88281,1.79883v3.51464h-.97071V4.05469h.93555V5.61328c.45508-1.17578,1.1875-1.6914,1.99023-1.6914Z"/><path class="cls-1" d="M146.37109,7.11328c0,1.97852-1.0791,3.22559-2.63769,3.22559-1.55957,0-2.62695-1.22364-2.62695-3.19043,0-1.97852,1.0791-3.22656,2.63867-3.22656C145.28027,3.92188,146.37109,5.13379,146.37109,7.11328Zm-4.26953.01172c0,1.583.61231,2.459,1.63184,2.459s1.64258-.86425,1.64258-2.459c0-1.57129-.61133-2.44727-1.63086-2.44727C142.71387,4.67773,142.10156,5.55371,142.10156,7.125Z"/><path class="cls-1" d="M149.44531,10.53125a1.635,1.635,0,0,1-1.81054,1.82227c-.09668,0-.20411-.02344-.36036-.03516l-.07226-.73242c.12012.01172.22851.02441.32422.02441.57617,0,.94726-.33594.94726-1.19922V4.05469h.97168Zm.12012-7.65234h-1.19922V1.69141h1.19922Z"/><path class="cls-1" d="M152.31348,7.25684c0,1.499.708,2.33886,1.79882,2.33886a1.47155,1.47155,0,0,0,1.55958-1.248l.89941.30078a2.37022,2.37022,0,0,1-2.4707,1.67871c-1.65528,0-2.73438-1.2002-2.73438-3.19043,0-1.95508,1.12695-3.22656,2.65039-3.22656,1.499,0,2.59082,1.16406,2.59082,3.13086v.21582Zm3.3457-.69629c-.0957-1.23438-.69531-1.90625-1.63086-1.90625-.94727,0-1.60742.74316-1.69043,1.90625Z"/><path class="cls-1" d="M162.044,5.98535c-.17969-.88769-.6836-1.30762-1.36719-1.30762-1.01953,0-1.65528.86329-1.65528,2.43555,0,1.582.63575,2.458,1.65528,2.458.80273,0,1.25879-.44434,1.43945-1.34277l.92285.2871a2.29462,2.29462,0,0,1-2.374,1.81153c-1.61914,0-2.63867-1.2002-2.63867-3.19043s1.05468-3.22656,2.63867-3.22656a2.2609,2.2609,0,0,1,2.33789,1.82324Z"/><path class="cls-1" d="M165.88574,4.05469h1.46289v.75586h-1.46289V8.58789c0,.68359.29883.99609.85059.99609a3.40853,3.40853,0,0,0,.76758-.07226l-.04786.75586a6.428,6.428,0,0,1-.94726.05957,1.3921,1.3921,0,0,1-1.583-1.55957v-3.957h-.99512V4.05469h.99512V2.14746l.96-.21582Z"/></g></g></svg>