<svg xmlns="http://www.w3.org/2000/svg" viewBox="0 0 97.43 116.78"><defs><style>.cls-1{fill:#ee5ba0;}</style></defs><title>icon_about_title_02</title><g id="レイヤー_2" data-name="レイヤー 2"><g id="レイヤー_1-2" data-name="レイヤー 1"><path class="cls-1" d="M12.72,110.76h.07l6.83-18.5h5v24.07H21.41V96.21h-.07l-7.68,20.13H11.61L4,96.21H3.89v20.13H.75V92.27h5Z"/><path class="cls-1" d="M46.23,108.15v.54a4.61,4.61,0,0,1,0,.54H33.87a4.92,4.92,0,0,0,.44,1.91,5,5,0,0,0,1.1,1.55,5.06,5.06,0,0,0,1.59,1,5,5,0,0,0,1.91.37,5,5,0,0,0,2.71-.71,5.64,5.64,0,0,0,1.8-1.73l2.16,1.8A7.79,7.79,0,0,1,42.65,116a9.06,9.06,0,0,1-7,.2,7.53,7.53,0,0,1-2.58-1.72,8,8,0,0,1-1.7-2.67,9.32,9.32,0,0,1-.62-3.47,9.56,9.56,0,0,1,.61-3.45,7.91,7.91,0,0,1,1.69-2.7,7.72,7.72,0,0,1,2.56-1.75,8.46,8.46,0,0,1,6.27-.05A6.39,6.39,0,0,1,44.22,102a7.58,7.58,0,0,1,1.49,2.63A10.82,10.82,0,0,1,46.23,108.15Zm-3.14-1.29a6.28,6.28,0,0,0-.31-1.79,4.13,4.13,0,0,0-.82-1.44,3.84,3.84,0,0,0-1.34-1,4.59,4.59,0,0,0-1.88-.36,4.84,4.84,0,0,0-3.35,1.33,5.09,5.09,0,0,0-1,1.44,4.76,4.76,0,0,0-.47,1.79Z"/><path class="cls-1" d="M64.48,113.79a5.79,5.79,0,0,1-2.4,2.23,7,7,0,0,1-3.19.77,7.64,7.64,0,0,1-3.24-.66,7.26,7.26,0,0,1-2.45-1.82,8.27,8.27,0,0,1-1.57-2.72,9.86,9.86,0,0,1-.56-3.33,9.72,9.72,0,0,1,.56-3.32,8.16,8.16,0,0,1,1.59-2.7,7.24,7.24,0,0,1,2.47-1.8,7.66,7.66,0,0,1,3.17-.65,6.36,6.36,0,0,1,3.3.83,6.93,6.93,0,0,1,2.22,2h.07v-12h3.07v25.7h-3v-2.55Zm-10.2-5.53a7.24,7.24,0,0,0,.33,2.17,5.59,5.59,0,0,0,1,1.86,4.94,4.94,0,0,0,1.6,1.31,5.18,5.18,0,0,0,4.37,0,5.18,5.18,0,0,0,1.65-1.27,5.8,5.8,0,0,0,1.06-1.85,6.65,6.65,0,0,0,0-4.41,6,6,0,0,0-1.06-1.86,5.07,5.07,0,0,0-1.65-1.29,4.78,4.78,0,0,0-2.14-.48,4.9,4.9,0,0,0-2.22.48,4.76,4.76,0,0,0-1.6,1.29,5.59,5.59,0,0,0-1,1.86A7.24,7.24,0,0,0,54.27,108.27Z"/><path class="cls-1" d="M78.11,94.41a1.94,1.94,0,0,1-.6,1.46,2,2,0,0,1-1.44.58,1.92,1.92,0,0,1-1.43-.59,2,2,0,0,1-.58-1.45,2,2,0,0,1,.58-1.48,1.93,1.93,0,0,1,1.43-.59,2,2,0,0,1,1.44.59A2,2,0,0,1,78.11,94.41Zm-.49,21.93H74.55V100.22h3.07Z"/><path class="cls-1" d="M94.26,105.9a3.27,3.27,0,0,0-1-2.67,4.22,4.22,0,0,0-2.78-.87,5.9,5.9,0,0,0-2.47.53A6.24,6.24,0,0,0,86,104.24l-1.63-2a8.21,8.21,0,0,1,2.79-1.77,9.66,9.66,0,0,1,3.55-.65,7.73,7.73,0,0,1,2.89.49,5.47,5.47,0,0,1,2,1.34,5.56,5.56,0,0,1,1.18,2,7.67,7.67,0,0,1,.39,2.48v7q0,.82,0,1.72a9.13,9.13,0,0,0,.18,1.48H94.65a10.42,10.42,0,0,1-.26-2.31h-.1a6,6,0,0,1-2.14,2,6.23,6.23,0,0,1-3.06.71,7.7,7.7,0,0,1-1.91-.26,5.44,5.44,0,0,1-1.81-.83A4.63,4.63,0,0,1,84,114.13a4.69,4.69,0,0,1-.54-2.35,4.23,4.23,0,0,1,.95-2.91,6,6,0,0,1,2.49-1.63,13.58,13.58,0,0,1,3.47-.73q1.93-.17,3.89-.17Zm-.75,2.75q-1.14,0-2.37.1a10.56,10.56,0,0,0-2.22.41,4.15,4.15,0,0,0-1.65.92,2.13,2.13,0,0,0-.65,1.63,2.32,2.32,0,0,0,.28,1.19,2.35,2.35,0,0,0,.74.78,2.91,2.91,0,0,0,1,.42,5.44,5.44,0,0,0,1.14.12,4.15,4.15,0,0,0,3.32-1.34,5,5,0,0,0,1.16-3.38v-.85Z"/><path class="cls-1" d="M20.95,0a16.61,16.61,0,0,1,9.39,2.61,20.36,20.36,0,0,1,6.49,7.15,36,36,0,0,1,3.76,10.67A67.17,67.17,0,0,1,41.8,33.48a67,67,0,0,1-1.21,13.09,35.94,35.94,0,0,1-3.76,10.62,20.34,20.34,0,0,1-6.49,7.15A16.61,16.61,0,0,1,20.95,67a16.82,16.82,0,0,1-9.43-2.61A20.17,20.17,0,0,1,5,57.19,35.88,35.88,0,0,1,1.21,46.57,66.88,66.88,0,0,1,0,33.48,67.09,67.09,0,0,1,1.21,20.43,35.9,35.9,0,0,1,5,9.76a20.2,20.2,0,0,1,6.54-7.15A16.82,16.82,0,0,1,20.95,0Zm0,7.29a8.19,8.19,0,0,0-6.23,2.56,17.55,17.55,0,0,0-3.76,6.48,40,40,0,0,0-1.86,8.5,77.17,77.17,0,0,0-.52,8.64,77.16,77.16,0,0,0,.52,8.64,39.21,39.21,0,0,0,1.86,8.46A17.6,17.6,0,0,0,14.71,57a8.19,8.19,0,0,0,6.23,2.57A8,8,0,0,0,27,57a18.48,18.48,0,0,0,3.76-6.43,37.58,37.58,0,0,0,1.9-8.46,76.94,76.94,0,0,0,.52-8.64,77,77,0,0,0-.52-8.64,38.37,38.37,0,0,0-1.9-8.5A18.42,18.42,0,0,0,27,9.85,8,8,0,0,0,20.95,7.29Z"/><path class="cls-1" d="M96.16,65.34h-40V57l24.41-25.2a39.27,39.27,0,0,0,4.76-6.21,13.65,13.65,0,0,0,2-7.29,11.48,11.48,0,0,0-.87-4.55,10.65,10.65,0,0,0-2.34-3.46,10.07,10.07,0,0,0-3.46-2.21,11.75,11.75,0,0,0-4.24-.76,10.3,10.3,0,0,0-7.7,3.1,14.31,14.31,0,0,0-3.81,8l-8.22-1.44a19.88,19.88,0,0,1,6.49-12.1,18.8,18.8,0,0,1,6-3.56A21,21,0,0,1,76.51,0a23,23,0,0,1,7.31,1.17A18.8,18.8,0,0,1,90,4.59a16.32,16.32,0,0,1,4.28,5.67,18.27,18.27,0,0,1,1.6,7.83,19.73,19.73,0,0,1-.78,5.67,23.35,23.35,0,0,1-2.12,5,28.87,28.87,0,0,1-3.16,4.46Q88,35.28,86,37.35L66.12,57.51h30Z"/></g></g></svg>