<svg xmlns="http://www.w3.org/2000/svg" viewBox="0 0 86 6"><defs><style>.cls-1{fill:gray;}</style></defs><title>アセット 25</title><g id="レイヤー_2" data-name="レイヤー 2"><g id="レイヤー_1-2" data-name="レイヤー 1"><path class="cls-1" d="M80,3a3,3,0,0,1,3-3h0a3,3,0,0,1,3,3h0a3,3,0,0,1-3,3h0A3,3,0,0,1,80,3ZM64,3a3,3,0,0,1,3-3h0a3,3,0,0,1,3,3h0a3,3,0,0,1-3,3h0A3,3,0,0,1,64,3ZM48,3a3,3,0,0,1,3-3h0a3,3,0,0,1,3,3h0a3,3,0,0,1-3,3h0A3,3,0,0,1,48,3ZM32,3a3,3,0,0,1,3-3h0a3,3,0,0,1,3,3h0a3,3,0,0,1-3,3h0A3,3,0,0,1,32,3ZM16,3a3,3,0,0,1,3-3h0a3,3,0,0,1,3,3h0a3,3,0,0,1-3,3h0A3,3,0,0,1,16,3ZM0,3A3,3,0,0,1,3,0H3A3,3,0,0,1,6,3H6A3,3,0,0,1,3,6H3A3,3,0,0,1,0,3Z"/></g></g></svg>