<svg xmlns="http://www.w3.org/2000/svg" viewBox="0 0 412.09 578.59"><defs><style>.cls-1{fill:#00b8f1;}.cls-2{fill:#ee5ba0;}.cls-3{fill:#231f20;}.cls-4{fill:#fff;}</style></defs><title>icon_mother</title><g id="レイヤー_2" data-name="レイヤー 2"><g id="レイヤー_1-2" data-name="レイヤー 1"><polygon class="cls-1" points="206.01 0 221.62 28.84 190.41 28.85 206.01 0"/><polygon class="cls-2" points="102.99 27.62 130.93 44.79 103.91 60.4 102.99 27.62"/><polygon class="cls-1" points="27.59 103.05 60.37 103.95 44.77 130.99 27.59 103.05"/><polygon class="cls-2" points="0 206.08 28.84 190.47 28.85 221.68 0 206.08"/><polygon class="cls-1" points="27.62 309.1 44.79 281.16 60.4 308.19 27.62 309.1"/><polygon class="cls-2" points="103.05 384.51 103.95 351.73 130.99 367.33 103.05 384.51"/><polygon class="cls-1" points="206.08 412.1 190.47 383.25 221.68 383.25 206.08 412.1"/><polygon class="cls-2" points="309.1 384.47 281.16 367.3 308.19 351.69 309.1 384.47"/><polygon class="cls-1" points="384.51 309.04 351.73 308.14 367.33 281.11 384.51 309.04"/><polygon class="cls-2" points="412.1 206.01 383.25 221.62 383.25 190.41 412.1 206.01"/><polygon class="cls-1" points="384.47 102.99 367.3 130.93 351.69 103.91 384.47 102.99"/><polygon class="cls-2" points="309.04 27.59 308.14 60.37 281.11 44.77 309.04 27.59"/><path class="cls-3" d="M305,122.19c-11.59-27.61-30-68.06-95.74-68h-1.19c-65.7,0-84.14,40.47-95.72,68.08C97.64,157.39,53.31,340.9,157.13,340.88c35.51,0,29.53-13.12,51.63-13.12s16.12,13.11,51.63,13.11C364.21,340.85,319.81,157.36,305,122.19Z"/><path class="cls-3" d="M260.39,345c-21,0-28.73-4.6-34.95-8.29-4.52-2.69-8.09-4.81-16.69-4.81s-12.17,2.13-16.69,4.82c-6.21,3.7-13.94,8.3-34.94,8.31-23.78,0-41.95-9.17-54-27.28-35.55-53.45-5.77-170.5,5.41-197.16,6.59-15.71,14.22-32.19,28.54-45.8C154.66,58.1,177.89,50,208.11,50h1.19c30.22,0,53.46,8.11,71,24.81,14.32,13.61,22,30.08,28.55,45.79h0c11.19,26.65,41,143.7,5.48,197.16C302.33,335.84,284.17,345,260.39,345Zm-51.63-21.44c10.89,0,16,3,21,6,5.89,3.5,12,7.13,30.68,7.12,20.82,0,36.64-7.94,47-23.58C325.2,286.38,324.59,242.3,321,210c-4.4-39-14.45-73.6-19.75-86.24-6.25-14.89-13.46-30.48-26.61-43-16-15.16-37.31-22.52-65.29-22.52h-1.19c-28,0-49.33,7.38-65.28,22.54-13.15,12.5-20.35,28.09-26.59,43-5.3,12.63-15.34,47.22-19.72,86.24-3.62,32.27-4.21,76.34,13.57,103.08,10.4,15.64,26.23,23.57,47,23.56,18.71,0,24.79-3.63,30.68-7.13C192.75,326.64,197.86,323.59,208.75,323.59Z"/><path class="cls-4" d="M290.23,222.28c2.62.89,9.23,2.32,14.78,6.34s10.07,10.61,8.5,21.84c-1.45,10.43-6,15.41-11.63,17.8s-12.48,2.2-18.54,2.28c-5.23,20.33-13.63,38.27-25.92,51.13s-28.47,20.63-49.26,20.64-37-7.77-49.26-20.62S138.19,290.9,133,270.56c-6.06-.08-12.87.12-18.54-2.27s-10.18-7.37-11.64-17.8c-1.57-11.23,2.94-17.83,8.49-21.85s12.16-5.45,14.78-6.34c0,0-8-118.5,81-118.51S290.23,222.28,290.23,222.28Z"/><path class="cls-3" d="M208.16,346.47c-20.78,0-38.37-7.37-52.28-21.91-11.54-12.06-20.32-28.83-26.14-49.87-5.49-.06-11.54-.28-17-2.57-7.9-3.33-12.66-10.42-14.14-21.06-1.53-11,2-19.88,10.18-25.8a43.37,43.37,0,0,1,12.92-6,197.71,197.71,0,0,1,2.06-33.19c5-34.05,17.41-53.33,26.92-63.51,14.21-15.21,33.15-22.92,56.28-22.92s42.2,7.7,56.69,22.91C273.39,132.7,286.13,152,291.78,186a198.44,198.44,0,0,1,2.69,33.23,43.44,43.44,0,0,1,13,6c8.19,5.92,11.71,14.84,10.19,25.8-1.48,10.64-6.24,17.73-14.14,21.07-5.41,2.29-11.46,2.51-16.95,2.57-5.81,21-14.59,37.81-26.12,49.88C246.53,339.09,228.94,346.47,208.16,346.47ZM207,108c-20.73,0-37.61,6.83-50.19,20.28-30.37,32.49-26.65,93.18-26.61,93.79a4.17,4.17,0,0,1-2.82,4.23c-.52.17-1.17.37-1.94.6-3.09.92-7.77,2.3-11.74,5.17-5.69,4.11-7.92,10-6.81,17.89,1.42,10.18,5.89,13.17,9.13,14.54,4.35,1.84,9.84,1.88,15.15,1.93l1.83,0a4.17,4.17,0,0,1,4,3.13c5.44,21.1,13.82,37.68,24.92,49.28,12.27,12.83,27.84,19.34,46.25,19.33s34-6.51,46.25-19.35c11.09-11.6,19.47-28.19,24.9-49.29a4.17,4.17,0,0,1,4-3.13l1.83,0c5.31,0,10.8-.09,15.15-1.93,3.24-1.37,7.71-4.36,9.12-14.54,1.1-7.93-1.12-13.78-6.81-17.89-4-2.87-8.65-4.26-11.74-5.17-.77-.23-1.42-.42-1.94-.6a4.17,4.17,0,0,1-2.82-4.15c0-.61,2.54-61.36-28.42-93.82C244.8,114.78,227.76,108,207,108Z"/><circle class="cls-3" cx="177.19" cy="227.72" r="5.15"/><path class="cls-3" d="M177.19,236.43a8.72,8.72,0,1,1,8.72-8.72A8.73,8.73,0,0,1,177.19,236.43Zm0-10.29a1.57,1.57,0,1,0,1.57,1.57A1.58,1.58,0,0,0,177.19,226.14Z"/><circle class="cls-3" cx="239.1" cy="227.71" r="5.15"/><path class="cls-3" d="M239.1,236.42a8.72,8.72,0,1,1,8.72-8.72A8.73,8.73,0,0,1,239.1,236.42Zm0-10.29a1.57,1.57,0,1,0,1.57,1.57A1.58,1.58,0,0,0,239.1,226.13Z"/><path class="cls-3" d="M184.66,190.32c0-.13,0-.25-.06-.38-.41-1.79-2.42-2.74-4.81-3.18h-.06c-.62-.11-1.26-.19-1.91-.25a22.46,22.46,0,0,0-5.7.13l-.81.12h0c-3.09.52-6.26,1.7-6.86,3.68a4.12,4.12,0,0,0,.22,2c1.51,3,7.38,2.38,12.41,2s7.35-2,7.59-3.39a4.21,4.21,0,0,0,0-.45C184.67,190.49,184.67,190.41,184.66,190.32Z"/><path class="cls-3" d="M231.61,190.32c0-.13,0-.25.06-.38.41-1.79,2.42-2.74,4.81-3.18h.06c.62-.11,1.26-.19,1.91-.25a22.46,22.46,0,0,1,5.7.13l.81.12h0c3.09.52,6.26,1.7,6.86,3.68a4.12,4.12,0,0,1-.22,2c-1.5,3-7.38,2.39-12.41,2s-7.35-2-7.59-3.39a4.21,4.21,0,0,1,0-.45C231.6,190.48,231.6,190.4,231.61,190.32Z"/><path class="cls-3" d="M208.8,322.87c-10.31,0-16.23-9.59-18.33-18.57-2-8.41.29-13.54,2.53-16.36s6.85-6.27,15.8-6.27c7.11,0,12.82,2.46,16.07,6.92s3.78,10.18,1.75,16.46C222.8,316.86,216.8,322.87,208.8,322.87Zm0-32.87c-3.1,0-7.22.54-9.27,3.12s-1.61,6.43-.94,9.29c1.31,5.6,4.77,12.14,10.21,12.13,4,0,7.31-4.06,9.89-12.06h0c1.19-3.68,1-6.87-.56-9S213.17,290,208.79,290Z"/><path d="M217.23,246.84a13.75,13.75,0,0,0-18.13,0c-4.34,4.14-5.13,11-4.58,13.74.6,2.47,1.89,4.27,3.21,4.27a3.38,3.38,0,0,0,2.49-1.67,15.68,15.68,0,0,0,1.51-3.83h0a16.34,16.34,0,0,1,1.53-4.28l0-.08.06-.11h0A5.27,5.27,0,0,1,213,255a16.11,16.11,0,0,1,1.58,4.36h0a15.69,15.69,0,0,0,1.51,3.83,3.38,3.38,0,0,0,2.49,1.67c1.32,0,2.61-1.81,3.21-4.28C222.36,257.88,221.56,251,217.23,246.84Z"/><path class="cls-3" d="M124.21,251.51c5.27-1.26,7-3.89,6.52-6.09a4,4,0,0,0-.21-.55c-1-1.61-4.5-2-7.31-1.5l-1.23.31h0c-5.37,1.74-6.94,4.31-6.51,6a4,4,0,0,0,.15.41C116.42,251.78,118.87,252.79,124.21,251.51Z"/><path class="cls-3" d="M292.08,251.48c-5.27-1.25-7-3.88-6.52-6.09a4,4,0,0,1,.21-.55c1-1.61,4.5-2,7.31-1.5l1.23.31h0c5.37,1.73,6.94,4.31,6.51,6a4,4,0,0,1-.15.41C299.87,251.74,297.42,252.76,292.08,251.48Z"/><path class="cls-3" d="M217.21,246.84a13.75,13.75,0,0,0-18.13,0c-4.34,4.14-5.13,11-4.58,13.74.6,2.47,1.89,4.27,3.21,4.27a3.38,3.38,0,0,0,2.49-1.67,15.68,15.68,0,0,0,1.51-3.83h0a16.34,16.34,0,0,1,1.53-4.28l0-.08.06-.11h0A5.27,5.27,0,0,1,213,255a16.11,16.11,0,0,1,1.58,4.36h0a15.69,15.69,0,0,0,1.51,3.83,3.38,3.38,0,0,0,2.49,1.67c1.32,0,2.61-1.81,3.21-4.28C222.35,257.88,221.55,251,217.21,246.84Z"/><path class="cls-3" d="M284.36,111.53c-15.56-21.08-41.21-31.76-76.24-31.75s-60.68,10.7-76.23,31.78c-30.92,41.91-10.69,109.13-9.81,112a4.17,4.17,0,0,0,6.21,2.29c26.52-16.84,44.13-60.52,52.48-85.89h0c1.4-4.34,4-6,7.81-.93h0a129.62,129.62,0,0,0,54.86,43.37c28.85,13.06,42.89,41.42,43,41.71a4.17,4.17,0,0,0,3.75,2.35h.32a4.17,4.17,0,0,0,3.67-2.93C295.09,220.66,315.3,153.43,284.36,111.53Z"/><circle class="cls-2" cx="293.65" cy="479.94" r="2.37" transform="translate(-265.26 415.2) rotate(-51.93)"/><path class="cls-2" d="M295.06,476.25l1.85,1.45a.72.72,0,0,0,1-.1l8.37-9.73a.72.72,0,0,0-.1-1l-2.77-2.17a.72.72,0,0,0-1,.15l-7.44,10.46A.72.72,0,0,0,295.06,476.25Z"/><path class="cls-3" d="M276.69,501.29a3.24,3.24,0,0,1-2.78-4.89l6.53-11a13.77,13.77,0,0,1,2.15-22,13.77,13.77,0,0,1,24.3-8.8,10.92,10.92,0,0,1,7.38,2.41A11.2,11.2,0,0,1,318,468.9a13.77,13.77,0,0,1-11.86,22.65,10.12,10.12,0,0,1-.9,1.34,10.23,10.23,0,0,1-14.36,1.63l-.25-.21-12.4,6.6A3.23,3.23,0,0,1,276.69,501.29ZM291.32,487a3.23,3.23,0,0,1,2.74,1.51,3.7,3.7,0,0,0,.83.92,3.75,3.75,0,0,0,5.26-.6,3.7,3.7,0,0,0,.75-1.64,3.24,3.24,0,0,1,4.24-2.46,7.3,7.3,0,0,0,7-12.57,3.24,3.24,0,0,1-.76-4.15,4.68,4.68,0,0,0-1.12-6,4.63,4.63,0,0,0-4-.87,3.23,3.23,0,0,1-3.56-1.48,7.3,7.3,0,0,0-13.45,5,3.24,3.24,0,0,1-2.06,3.61,7.3,7.3,0,0,0-.86,13.3,3.24,3.24,0,0,1,1.27,4.51l-2.15,3.62,4.43-2.36A3.22,3.22,0,0,1,291.32,487Z"/><path class="cls-4" d="M232.76,466c-6.21-8.19-6.12-15.06-.74-19.45s13.82-2.63,20.66,6,8.58,23.56-3,26.2C241.18,480.68,241.18,477.1,232.76,466Z"/><path class="cls-3" d="M246,482.34c-5.48,0-7.84-3.37-11.57-8.69-1.17-1.66-2.49-3.55-4.17-5.76h0c-7-9.26-7.11-18.13-.23-23.74a13.38,13.38,0,0,1,10.14-2.93c5.27.57,10.57,3.91,14.92,9.4,5.34,6.72,7.46,16,5.15,22.54a13.21,13.21,0,0,1-9.94,8.63A19.59,19.59,0,0,1,246,482.34Zm-7.45-35A7.08,7.08,0,0,0,234,449c-5.23,4.26-2.21,10.59,1.25,15.15h0c1.75,2.31,3.17,4.33,4.31,6,4.44,6.33,4.71,6.71,9.41,5.64a6.92,6.92,0,0,0,5.45-4.63c1.58-4.49-.21-11.63-4.16-16.61-3.31-4.17-7.12-6.69-10.72-7.08A8.87,8.87,0,0,0,238.57,447.35Z"/><path class="cls-4" d="M201.37,541.08c-12.55.93-20.6,8.9-27.91,0-5.92-7.19-10.78-9.76-15.22-9.8-7-.07-13.27,6.17-1.9,23.21,5.76,8.64,12.58,14,32.75,18.51,31,7,53.06-2.66,63.28-9.59,11.61-7.87,17.81-17,16.83-30.19-1.45-19.55-27.19-18.57-42.29-13.35C217.77,523.08,201.37,541.08,201.37,541.08Z"/><path class="cls-3" d="M210.29,578.59a99.38,99.38,0,0,1-21.88-2.51c-21.2-4.77-28.53-10.65-34.65-19.82-6.52-9.77-8.36-17.42-5.48-22.74,1.83-3.38,5.41-5.32,9.84-5.32h.16c5.9.06,11.48,3.54,17.59,10.93,3.41,4.13,6.38,3.45,13.37,1.37a58.58,58.58,0,0,1,10.66-2.42c3.74-4,17.28-18.1,26-21.12,11.83-4.1,28.14-5.35,37.91,1.08a18.88,18.88,0,0,1,8.5,15c1,13.42-4.78,23.91-18.19,33C247.74,570.35,232.65,578.59,210.29,578.59Zm-52.15-44.16c-1,0-3.39.22-4.39,2.06-2.37,4.37,3.37,13.6,5.19,16.32,5.34,8,11.58,12.87,30.84,17.2,32.11,7.23,53.25-4,60.85-9.13,11.53-7.82,16.3-16.26,15.48-27.39-.34-4.59-2.21-7.94-5.71-10.24-8-5.24-22.41-3.88-32.46-.39-6.88,2.38-19.85,15.48-24.26,20.32a3.11,3.11,0,0,1-2.07,1A49,49,0,0,0,191,546.47c-6.78,2-13.78,4.11-20-3.37-4.78-5.79-9-8.63-12.85-8.67Zm43.24,6.65h0Z"/><path class="cls-4" d="M180.46,464.55c10.35-9.08,22.64-12.49,33.09-13.94s18.65,1.18,22.47,9.58S236,473,236,473s8.46-.42,9.76,8.87c1.25,8.89-5.22,11.47-5.22,11.47s6.79.91,7.55,8c1,9.43-2.91,10.87-4.94,12,2.62,1.61,5.67,13.66-4.64,17.13-10.95,16.56-40.67,25.68-58.75,16C150.83,527.9,168,475.5,180.46,464.55Z"/><path class="cls-3" d="M197.18,553.47a40,40,0,0,1-18.87-4.29l-.21-.12c-10.12-6.48-16-17.46-17.11-31.76-.76-10.07.92-21.74,4.73-32.84,3.42-10,8.16-18.26,12.69-22.24h0c9-7.88,20.33-12.68,34.72-14.68,16-2.22,22.82,5,25.73,11.37,2.27,5,2.23,8.92,1.58,11.65,3.62,1.24,7.51,4.32,8.43,10.85a14.47,14.47,0,0,1-2.5,11.06,11.67,11.67,0,0,1,4.84,8.49c.79,7.36-1.11,11-3.67,13.21a16.14,16.14,0,0,1,1.2,8.09A12.74,12.74,0,0,1,240.54,533C231.62,545.67,213.56,553.46,197.18,553.47Zm-15.82-9.72c16.09,8.53,44.1.83,54.58-15a3.11,3.11,0,0,1,1.6-1.23,6.7,6.7,0,0,0,4.84-5,9.23,9.23,0,0,0-1-6.66,3.11,3.11,0,0,1,.22-5.27l.48-.27c1.71-.93,3.64-2,2.92-8.73a5.84,5.84,0,0,0-4.9-5.24,3.13,3.13,0,0,1-2.63-2.73,3.1,3.1,0,0,1,1.92-3.24c.39-.17,4.16-2,3.29-8.14s-5.62-6.22-6.56-6.19a3.14,3.14,0,0,1-2.92-1.78,3.11,3.11,0,0,1,.45-3.37c0-.07,2.36-3.16-.49-9.44-3-6.53-9.43-9.15-19.21-7.78-13.14,1.83-23.43,6.14-31.47,13.2h0c-7.13,6.26-16.87,29.36-15.32,49.93C168.13,529.23,172.89,538.28,181.35,543.75ZM241.54,516h0Zm-.16-.12Z"/><path class="cls-4" d="M249,528.59s-10.62-6.57-20.91-1.37-15,6.1-18.95,5.11-10.63-1.78-12.82,3.36.53,21.69,33.35,15"/><path d="M250.64,525.94c-.49-.31-12.24-7.41-23.95-1.5-10,5-13.93,5.59-16.79,4.87-8.18-2.06-14.17-.18-16.44,5.15-1.42,3.33-1.24,9,2.5,13.58,3,3.64,8.73,7.3,19.9,7.3a60.53,60.53,0,0,0,6.38-.36l.45,0c1-.11,2-.24,3-.4,4.19-.83,7.36-2.68,7-4.49a3.12,3.12,0,0,0-.17-.56l0-.09c0-.07-.07-.13-.11-.2-.87-1.42-3.23-1.54-6.58-1h0c-16.51,2.75-22.75-1.31-25-4.11a7.77,7.77,0,0,1-1.6-7.2c1.35-3.16,6.88-2.14,9.2-1.56,5.11,1.29,10.83-.16,21.11-5.35,8.53-4.31,17.73,1.16,17.88,1.25a3.11,3.11,0,0,0,3.26-5.3Z"/><path d="M243.6,492.61a3.11,3.11,0,0,0-3.72-2.35L223.18,494c-3.32.75-8,2.39-7.44,4.88s4.46,2.18,7.44,1.5h0l18.07-4.1A3.11,3.11,0,0,0,243.6,492.61Z"/><path d="M239,472.1a3.11,3.11,0,0,0-3.86-2.12L217.72,475h0a17.53,17.53,0,0,0-4.59,2c-1.68,1.16-2.2,3.49-.3,4.23a6.84,6.84,0,0,0,1,.21l.19,0a33.07,33.07,0,0,0,8.63-1.42L236.89,476A3.11,3.11,0,0,0,239,472.1Z"/><path d="M246.27,513a3.1,3.1,0,0,0-3.42-2.77l-18.28,1.93c-4.17.44-7.43,1.39-7.41,3.91a3.08,3.08,0,0,0,.27.94c1,1.61,4.52,1.68,8,1.32l18.11-1.91A3.11,3.11,0,0,0,246.27,513Z"/></g></g></svg>