<svg xmlns="http://www.w3.org/2000/svg" viewBox="0 0 174.77106 174.77106"><defs><style>.cls-1{fill:#00b8f1;}.cls-2{fill:#ee5ba0;}</style></defs><title>アセット 4</title><g id="レイヤー_2" data-name="レイヤー 2"><g id="レイヤー_1-2" data-name="レイヤー 1"><polygon class="cls-1" points="87.386 0 94.004 12.232 80.767 12.232 87.386 0"/><polygon class="cls-2" points="43.693 11.707 55.541 18.992 44.077 25.61 43.693 11.707"/><polygon class="cls-1" points="11.707 43.693 25.61 44.077 18.992 55.541 11.707 43.693"/><polygon class="cls-2" points="0 87.386 12.232 80.767 12.232 94.004 0 87.386"/><polygon class="cls-1" points="11.707 131.078 18.992 119.23 25.61 130.694 11.707 131.078"/><polygon class="cls-2" points="43.693 163.064 44.077 149.161 55.541 155.779 43.693 163.064"/><polygon class="cls-1" points="87.386 174.771 80.767 162.539 94.004 162.539 87.386 174.771"/><polygon class="cls-2" points="131.078 163.064 119.23 155.779 130.694 149.161 131.078 163.064"/><polygon class="cls-1" points="163.064 131.078 149.161 130.694 155.779 119.23 163.064 131.078"/><polygon class="cls-2" points="174.771 87.386 162.539 94.004 162.539 80.767 174.771 87.386"/><polygon class="cls-1" points="163.064 43.693 155.779 55.541 149.161 44.077 163.064 43.693"/><polygon class="cls-2" points="131.078 11.707 130.694 25.61 119.23 18.992 131.078 11.707"/></g></g></svg>