<svg xmlns="http://www.w3.org/2000/svg" viewBox="0 0 412.34 578.77"><defs><style>.cls-1{fill:#00b8f1;}.cls-2{fill:#ee5ba0;}.cls-3{fill:#231f20;}.cls-4{fill:#fff;}</style></defs><title>icon_father</title><g id="レイヤー_2" data-name="レイヤー 2"><g id="レイヤー_1-2" data-name="レイヤー 1"><polygon class="cls-1" points="205.96 0 221.6 28.84 190.37 28.88 205.96 0"/><polygon class="cls-2" points="102.9 27.73 130.87 44.88 103.84 60.53 102.9 27.73"/><polygon class="cls-1" points="27.52 103.27 60.32 104.14 44.73 131.2 27.52 103.27"/><polygon class="cls-2" points="0 206.38 28.84 190.74 28.88 221.97 0 206.38"/><polygon class="cls-1" points="27.73 309.44 44.88 281.47 60.53 308.5 27.73 309.44"/><polygon class="cls-2" points="103.27 384.82 104.14 352.02 131.2 367.61 103.27 384.82"/><polygon class="cls-1" points="206.38 412.34 190.74 383.5 221.97 383.46 206.38 412.34"/><polygon class="cls-2" points="309.44 384.61 281.47 367.45 308.5 351.81 309.44 384.61"/><polygon class="cls-1" points="384.82 309.07 352.02 308.2 367.61 281.14 384.82 309.07"/><polygon class="cls-2" points="412.34 205.96 383.5 221.6 383.46 190.37 412.34 205.96"/><polygon class="cls-1" points="384.61 102.9 367.45 130.87 351.81 103.84 384.61 102.9"/><polygon class="cls-2" points="309.07 27.52 308.2 60.32 281.14 44.73 309.07 27.52"/><circle class="cls-1" cx="294.06" cy="480" r="2.37" transform="translate(-265.21 416.02) rotate(-51.98)"/><path class="cls-1" d="M295.46,476.3l1.85,1.45a.72.72,0,0,0,1-.1l8.37-9.75a.72.72,0,0,0-.1-1l-2.77-2.17a.72.72,0,0,0-1,.15l-7.44,10.47A.72.72,0,0,0,295.46,476.3Z"/><path class="cls-3" d="M277.1,501.37a3.24,3.24,0,0,1-2.79-4.89l6.52-11A13.78,13.78,0,0,1,283,463.42a13.78,13.78,0,0,1,24.31-8.83,10.93,10.93,0,0,1,7.38,2.41,11.21,11.21,0,0,1,3.72,11.93,13.78,13.78,0,0,1-11.84,22.68,10.13,10.13,0,0,1-.9,1.34,10.24,10.24,0,0,1-14.37,1.64l-.25-.21L278.62,501A3.24,3.24,0,0,1,277.1,501.37Zm14.63-14.29a3.24,3.24,0,0,1,2.74,1.51,3.71,3.71,0,0,0,.83.92,3.75,3.75,0,0,0,5.27-.6,3.7,3.7,0,0,0,.75-1.64,3.24,3.24,0,0,1,4.24-2.47,7.3,7.3,0,0,0,7-12.59,3.24,3.24,0,0,1-.76-4.15,4.68,4.68,0,0,0-1.12-6,4.63,4.63,0,0,0-4-.86,3.24,3.24,0,0,1-3.57-1.48,7.3,7.3,0,0,0-13.45,5.06,3.24,3.24,0,0,1-2.06,3.61,7.31,7.31,0,0,0-.85,13.3,3.24,3.24,0,0,1,1.27,4.51l-2.15,3.62,4.44-2.37A3.23,3.23,0,0,1,291.73,487.09Z"/><circle class="cls-3" cx="170.82" cy="234.04" r="5.28" transform="translate(-0.24 0.17) rotate(-0.06)"/><path class="cls-3" d="M170.82,243a9,9,0,1,1,8.94-9A9,9,0,0,1,170.82,243Zm0-10.57a1.62,1.62,0,1,0,1.62,1.61A1.62,1.62,0,0,0,170.81,232.42Z"/><circle class="cls-3" cx="234.39" cy="233.97" r="5.28" transform="translate(-0.24 0.24) rotate(-0.06)"/><path class="cls-3" d="M234.4,242.93a9,9,0,1,1,8.94-9A9,9,0,0,1,234.4,242.93Zm0-10.57A1.62,1.62,0,1,0,236,234,1.62,1.62,0,0,0,234.39,232.36Z"/><path class="cls-3" d="M203.35,331.72c-6.94,0-15.53-5-18.84-19.05-2-8.63.28-13.9,2.58-16.81s7-6.45,16.22-6.46c7.31,0,13.17,2.51,16.51,7.09s3.89,10.45,1.81,16.9h0C217.72,325.55,211.57,331.72,203.35,331.72Zm0-33.76c-3.18,0-7.42.56-9.51,3.21s-1.65,6.61-1,9.54c1.35,5.75,4.91,12.46,10.5,12.45,4.09,0,7.5-4.17,10.14-12.39h0c1.21-3.78,1-7.06-.58-9.23S207.81,298,203.31,298Z"/><path class="cls-3" d="M178.81,195.63c0-.13,0-.26-.06-.39-.42-1.84-2.49-2.81-4.94-3.26h-.07c-.64-.12-1.29-.2-2-.25a23.07,23.07,0,0,0-5.86.14l-.83.12h0c-3.17.54-6.43,1.75-7,3.79a4.23,4.23,0,0,0,.23,2c1.55,3.06,7.58,2.44,12.75,2s7.54-2.07,7.79-3.49a4.33,4.33,0,0,0,0-.46C178.82,195.8,178.82,195.72,178.81,195.63Z"/><path class="cls-3" d="M227,195.58c0-.13,0-.26.06-.39.42-1.84,2.48-2.81,4.93-3.27h.07c.63-.12,1.29-.2,2-.26a23.07,23.07,0,0,1,5.86.13l.83.12h0c3.18.53,6.43,1.74,7,3.77a4.23,4.23,0,0,1-.23,2c-1.54,3.06-7.58,2.46-12.74,2.07s-7.55-2.05-7.8-3.47a4.33,4.33,0,0,1,0-.46C227,195.75,227,195.67,227,195.58Z"/><path d="M304.57,232.79a36.66,36.66,0,0,0-6.69-3.72c-3.55-1.42-9.68-2.83-12.07-2.45a3.79,3.79,0,0,0-2.73,1.33c-.06.12-.11.23-.16.36a3.07,3.07,0,0,0-.12.67c-.09,2.36,3.11,4.55,9.19,7,.62.22,1.26.46,1.9.73h0a7.58,7.58,0,0,1,.78.34,27.82,27.82,0,0,1,4.88,2.73c5.83,4.15,8.12,10.06,7,18.07-1.44,10.29-6,13.33-9.34,14.72-4.47,1.87-10.11,1.92-15.57,2l-1.88,0a4.28,4.28,0,0,0-4.08,3.2c-5.55,21.4-14.14,38.22-25.52,50-12.59,13-28.57,19.65-47.49,19.67s-34.92-6.57-47.53-19.57c-11.4-11.75-20-28.56-25.62-49.94a4.28,4.28,0,0,0-4.09-3.2l-1.88,0c-5.46,0-11.1-.08-15.57-1.94-3.32-1.38-7.91-4.41-9.37-14.7-1.14-8,1.14-13.92,7-18.09a27.8,27.8,0,0,1,4.88-2.74,7.56,7.56,0,0,1,.78-.34h0c.65-.27,1.28-.51,1.91-.74,6.08-2.42,9.27-4.62,9.18-7a3.07,3.07,0,0,0-.13-.67c0-.12-.1-.24-.16-.35a3.78,3.78,0,0,0-2.73-1.33c-2.39-.37-8.54,1.05-12.08,2.48a36.63,36.63,0,0,0-6.66,3.73c-8.42,6-12,15.11-10.45,26.25,1.54,10.82,6.44,18,14.56,21.39,5.56,2.31,11.77,2.53,17.4,2.59,6,21.34,15,38.34,26.89,50.57C163.34,348.53,181.4,356,202.73,356s39.38-7.52,53.64-22.28c11.83-12.25,20.84-29.27,26.79-50.62,5.63-.07,11.84-.3,17.4-2.62,8.11-3.39,13-10.6,14.51-21.42C316.64,247.87,313,238.8,304.57,232.79Z"/><path class="cls-3" d="M116.44,259.91c5.41-1.3,7.23-4,6.69-6.26a4.16,4.16,0,0,0-.22-.57c-1-1.65-4.62-2.08-7.51-1.53l-1.26.32h0c-5.51,1.79-7.12,4.43-6.68,6.19a4.15,4.15,0,0,0,.15.42C108.43,260.19,110.95,261.22,116.44,259.91Z"/><path class="cls-3" d="M288.82,259.73c-5.41-1.28-7.24-4-6.7-6.25a4.16,4.16,0,0,1,.22-.57c1-1.66,4.62-2.09,7.51-1.55l1.26.31h0c5.52,1.78,7.13,4.42,6.69,6.18a4.15,4.15,0,0,1-.15.42C296.83,260,294.32,261,288.82,259.73Z"/><path class="cls-3" d="M211.94,253.64a14.13,14.13,0,0,0-18.62,0c-4.45,4.26-5.26,11.34-4.69,14.12.62,2.53,1.94,4.39,3.3,4.39a3.47,3.47,0,0,0,2.55-1.72,16.1,16.1,0,0,0,1.55-3.94h0a16.78,16.78,0,0,1,1.57-4.4l0-.08.06-.11h0a5.41,5.41,0,0,1,9.92.12,16.54,16.54,0,0,1,1.62,4.48h0a16.12,16.12,0,0,0,1.56,3.93,3.47,3.47,0,0,0,2.56,1.72c1.36,0,2.68-1.86,3.29-4.39C217.22,265,216.39,257.89,211.94,253.64Z"/><path class="cls-3" d="M304.95,127.94c-6-23-28.1-76.53-102.53-76.45S106,105.12,100,128.15c-10.24,39.38-6.05,59.69,8.41,90.61,1.09,2.3,2.9,5.82,5.47,5.82a4.28,4.28,0,0,0,3.82-2.35c5.95-11.8,8.33-26.45,9.25-34.63h0c.27-2.22,1.74-2.21,2.93-2.23h0c49.24-.94,75.48-11.67,88.75-20.41h0c.8-.54,1.46-.59,1,.12a26.13,26.13,0,0,1-3.1,3.33l-.21.21c-3.46,3.34-7.06,5.21-9.1,6.89-1,.86-2.18,2.79-1,4.33l.09.11.18.18.3.25.16.12c2.27,1.61,6.63,1.71,9,1.65,22.18-1.11,36.46-8,45.11-14.43h0c1.39-1.07,1.92-1.33,2,.66v0a73,73,0,0,0,25.27,54.93,4.28,4.28,0,0,0,6.7-1.37C310.81,189.05,315.64,168.72,304.95,127.94Z"/><path class="cls-4" d="M233.12,466.11c-6.22-8.19-6.14-15.07-.76-19.46s13.82-2.64,20.68,6,8.6,23.57-3,26.22C241.56,480.78,241.55,477.2,233.12,466.11Z"/><path class="cls-3" d="M246.4,482.44c-5.48,0-7.85-3.37-11.58-8.68-1.17-1.66-2.49-3.55-4.17-5.76h0c-7-9.26-7.13-18.14-.25-23.75a13.39,13.39,0,0,1,10.14-2.94c5.27.57,10.58,3.9,14.94,9.39,5.35,6.72,7.47,16,5.18,22.55a13.21,13.21,0,0,1-9.93,8.65A19.6,19.6,0,0,1,246.4,482.44Zm-7.48-35a7.08,7.08,0,0,0-4.59,1.62c-5.23,4.27-2.2,10.6,1.27,15.16h0c1.75,2.31,3.17,4.33,4.31,6,4.45,6.33,4.71,6.71,9.42,5.64a6.92,6.92,0,0,0,5.44-4.64c1.58-4.5-.22-11.64-4.17-16.61-3.32-4.17-7.13-6.69-10.73-7.07A8.87,8.87,0,0,0,238.92,447.44Z"/><path class="cls-4" d="M201.77,541.25c-12.56.94-20.61,8.92-27.92.06-5.93-7.18-10.8-9.75-15.24-9.8-7-.07-13.27,6.18-1.88,23.23,5.77,8.64,12.6,14,32.78,18.5,31,7,53.09-2.71,63.31-9.65,11.61-7.89,17.81-17,16.82-30.23-1.47-19.56-27.23-18.56-42.33-13.32C218.17,523.23,201.77,541.25,201.77,541.25Z"/><path class="cls-3" d="M210.73,578.77a99.43,99.43,0,0,1-21.9-2.49c-21.22-4.76-28.56-10.63-34.69-19.8-6.53-9.77-8.38-17.42-5.5-22.74,1.83-3.39,5.41-5.32,9.84-5.33h.16c5.9.06,11.49,3.53,17.61,10.93,3.41,4.13,6.39,3.45,13.38,1.36a58.62,58.62,0,0,1,10.66-2.43c3.73-4,17.28-18.12,26-21.15,11.83-4.11,28.15-5.38,37.94,1a18.89,18.89,0,0,1,8.51,15c1,13.43-4.76,23.93-18.17,33C248.2,570.5,233.1,578.75,210.73,578.77ZM158.5,534.63c-1,0-3.39.22-4.39,2.06-2.37,4.38,3.38,13.6,5.2,16.32,5.35,8,11.59,12.87,30.87,17.19,32.13,7.21,53.28-4,60.88-9.19,11.53-7.83,16.3-16.29,15.46-27.42-.35-4.59-2.22-7.94-5.72-10.24-8-5.23-22.43-3.86-32.48-.37-6.88,2.39-19.84,15.5-24.26,20.36a3.12,3.12,0,0,1-2.07,1,49,49,0,0,0-10.59,2.3c-6.78,2-13.79,4.12-20-3.36-4.79-5.79-9-8.63-12.86-8.67Zm43.27,6.62h0Z"/><path class="cls-4" d="M180.79,464.7c10.35-9.1,22.64-12.51,33.1-14s18.67,1.16,22.5,9.56,0,12.78,0,12.78,8.46-.43,9.78,8.86c1.26,8.89-5.22,11.48-5.22,11.48s6.79.9,7.56,8c1,9.44-2.9,10.88-4.94,12,2.63,1.61,5.69,13.66-4.63,17.14-10.94,16.58-40.67,25.73-58.77,16.05C151.19,528.1,168.31,475.66,180.79,464.7Z"/><path class="cls-3" d="M197.59,553.65a40,40,0,0,1-18.88-4.28l-.21-.12c-10.13-6.47-16.06-17.45-17.15-31.76-.77-10.08.9-21.75,4.71-32.87,3.41-10,8.15-18.28,12.67-22.26h0c9-7.89,20.34-12.71,34.72-14.72,16-2.24,22.84,4.94,25.76,11.35,2.27,5,2.24,8.92,1.6,11.65,3.62,1.24,7.52,4.32,8.44,10.85a14.47,14.47,0,0,1-2.49,11.06,11.68,11.68,0,0,1,4.85,8.49c.8,7.36-1.1,11-3.66,13.22a16.15,16.15,0,0,1,1.21,8.09A12.75,12.75,0,0,1,241,533.14C232,545.82,214,553.63,197.59,553.65Zm-15.84-9.71c16.11,8.52,44.13.79,54.6-15.08a3.11,3.11,0,0,1,1.6-1.24,6.7,6.7,0,0,0,4.84-5,9.24,9.24,0,0,0-1-6.67,3.11,3.11,0,0,1,.21-5.27l.48-.27c1.71-.94,3.64-2,2.91-8.74a5.85,5.85,0,0,0-4.91-5.24,3.14,3.14,0,0,1-2.63-2.73,3.1,3.1,0,0,1,1.92-3.24c.39-.17,4.16-2,3.29-8.15s-5.63-6.21-6.57-6.19a3.14,3.14,0,0,1-2.92-1.78A3.11,3.11,0,0,1,234,471c0-.07,2.36-3.17-.5-9.44-3-6.53-9.45-9.14-19.23-7.77-13.14,1.84-23.44,6.17-31.48,13.23h0c-7.13,6.27-16.86,29.39-15.28,50C168.5,529.42,173.28,538.48,181.75,543.94Zm60.2-27.85h0Zm-.17-.12Z"/><path class="cls-4" d="M249.43,528.71s-10.63-6.56-20.92-1.36-15,6.12-19,5.13-10.64-1.77-12.82,3.37.55,21.7,33.38,15"/><path d="M251.06,526.06c-.49-.31-12.25-7.41-24-1.48-10,5-13.93,5.6-16.79,4.89-8.18-2.05-14.17-.17-16.45,5.17-1.42,3.33-1.23,9,2.52,13.59,3,3.64,8.74,7.3,19.92,7.29a60.56,60.56,0,0,0,6.38-.37l.45,0c1-.11,2-.25,3-.4,4.19-.83,7.36-2.69,7-4.5a3.12,3.12,0,0,0-.18-.56l0-.09c0-.07-.07-.13-.11-.2-.88-1.42-3.24-1.54-6.59-1h0c-16.51,2.77-22.76-1.29-25-4.09a7.77,7.77,0,0,1-1.61-7.21c1.35-3.16,6.88-2.15,9.2-1.57,5.12,1.28,10.84-.17,21.12-5.37,8.53-4.32,17.75,1.14,17.89,1.23a3.11,3.11,0,0,0,3.26-5.3Z"/><path d="M244,492.72a3.11,3.11,0,0,0-3.73-2.34l-16.7,3.8c-3.32.76-8,2.4-7.44,4.89s4.47,2.18,7.45,1.5h0l18.07-4.11A3.11,3.11,0,0,0,244,492.72Z"/><path d="M239.38,472.19a3.11,3.11,0,0,0-3.86-2.12l-17.45,5.09h0a17.54,17.54,0,0,0-4.59,2c-1.68,1.16-2.2,3.49-.29,4.23a6.84,6.84,0,0,0,1,.21l.19,0a33.09,33.09,0,0,0,8.63-1.43l14.26-4.16A3.11,3.11,0,0,0,239.38,472.19Z"/><path d="M246.67,513.1a3.1,3.1,0,0,0-3.43-2.77L225,512.28c-4.17.44-7.43,1.4-7.41,3.92a3.09,3.09,0,0,0,.27.95c1,1.61,4.53,1.67,8,1.31l18.12-1.93A3.11,3.11,0,0,0,246.67,513.1Z"/></g></g></svg>