<svg xmlns="http://www.w3.org/2000/svg" viewBox="0 0 20 20"><defs><style>.cls-1{fill:#fff;}</style></defs><title>アセット 9</title><g id="レイヤー_2" data-name="レイヤー 2"><g id="レイヤー_1-2" data-name="レイヤー 1"><path id="White" class="cls-1" d="M-331.1038-1700h-17.7924A1.10371,1.10371,0,0,0-350-1698.8961v17.7923A1.10375,1.10375,0,0,0-348.8962-1680h9.5788v-7.745h-2.6063v-3.0184h2.6063v-2.226a3.637,3.637,0,0,1,3.8822-3.9899,21.35975,21.35975,0,0,1,2.329.119v2.6996l-1.5982.0007c-1.2533,0-1.496.5956-1.496,1.4695v1.9271h2.989l-.3892,3.0184h-2.5998V-1680h5.0966A1.10388,1.10388,0,0,0-330-1681.1038v-17.7923A1.10384,1.10384,0,0,0-331.1038-1700Z" transform="translate(350 1700)"/></g></g></svg>