<svg xmlns="http://www.w3.org/2000/svg" viewBox="0 0 132.39 124.5"><defs><style>.cls-1{fill:#ee5ba0;}</style></defs><title>icon_about_title_03</title><g id="レイヤー_2" data-name="レイヤー 2"><g id="レイヤー_1-2" data-name="レイヤー 1"><path class="cls-1" d="M10.66,116.34H7.42V95.23H0v-3H18.08v3H10.66Z"/><path class="cls-1" d="M22.59,102q0-1-.1-1.8h2.91q.07.61.1,1.41t0,1.31h.1a5.53,5.53,0,0,1,1.91-2.29,4.87,4.87,0,0,1,2.83-.87,4.59,4.59,0,0,1,1.21.14l-.13,3a5.58,5.58,0,0,0-1.41-.17,4.13,4.13,0,0,0-1.93.43,4,4,0,0,0-1.36,1.14,4.88,4.88,0,0,0-.8,1.65,7.21,7.21,0,0,0-.26,2v8.47H22.63V103.69C22.63,103.26,22.62,102.71,22.59,102Z"/><path class="cls-1" d="M45.74,105.9a3.27,3.27,0,0,0-1-2.67,4.22,4.22,0,0,0-2.78-.87,5.9,5.9,0,0,0-2.47.53,6.24,6.24,0,0,0-1.95,1.34l-1.63-2a8.2,8.2,0,0,1,2.79-1.77,9.65,9.65,0,0,1,3.55-.65,7.72,7.72,0,0,1,2.89.49,5.47,5.47,0,0,1,2,1.34,5.56,5.56,0,0,1,1.18,2,7.67,7.67,0,0,1,.39,2.48v7q0,.82,0,1.72a9.15,9.15,0,0,0,.18,1.48H46.14a10.43,10.43,0,0,1-.26-2.31h-.1a6.05,6.05,0,0,1-2.14,2,6.22,6.22,0,0,1-3.06.71,7.73,7.73,0,0,1-1.91-.26,5.44,5.44,0,0,1-1.81-.83,4.63,4.63,0,0,1-1.36-1.53,4.68,4.68,0,0,1-.54-2.35,4.22,4.22,0,0,1,.95-2.91,6,6,0,0,1,2.49-1.63,13.56,13.56,0,0,1,3.47-.73q1.93-.17,3.89-.17ZM45,108.66q-1.14,0-2.37.1a10.47,10.47,0,0,0-2.22.41,4.14,4.14,0,0,0-1.65.92,2.12,2.12,0,0,0-.65,1.63,2.33,2.33,0,0,0,.28,1.19,2.36,2.36,0,0,0,.74.78,2.92,2.92,0,0,0,1,.42,5.47,5.47,0,0,0,1.14.12,4.15,4.15,0,0,0,3.32-1.34,5,5,0,0,0,1.16-3.38v-.85Z"/><path class="cls-1" d="M59.05,94.41a1.94,1.94,0,0,1-.6,1.46,2,2,0,0,1-1.44.58,1.92,1.92,0,0,1-1.43-.59A2,2,0,0,1,55,94.41a2,2,0,0,1,.58-1.48A1.93,1.93,0,0,1,57,92.34a2,2,0,0,1,1.44.59A2,2,0,0,1,59.05,94.41Zm-.49,21.93H55.49V100.22h3.07Z"/><path class="cls-1" d="M68.34,100.22q.07.61.1,1.38t0,1.27h.1a4.72,4.72,0,0,1,.8-1.21,5.93,5.93,0,0,1,1.16-1,5.67,5.67,0,0,1,3.07-.9,5.83,5.83,0,0,1,2.58.53,5.28,5.28,0,0,1,1.8,1.41A5.79,5.79,0,0,1,79,103.79a9.15,9.15,0,0,1,.34,2.55v10H76.31V107.4a11.44,11.44,0,0,0-.15-1.87,4.63,4.63,0,0,0-.54-1.56,3,3,0,0,0-1.08-1.09,3.43,3.43,0,0,0-1.77-.41,3.66,3.66,0,0,0-3,1.45,6,6,0,0,0-1.16,3.86v8.57H65.56V103.69c0-.43,0-1,0-1.67s-.05-1.28-.1-1.8Z"/><path class="cls-1" d="M89.82,94.41a1.94,1.94,0,0,1-.6,1.46,2,2,0,0,1-1.44.58,1.92,1.92,0,0,1-1.43-.59,2,2,0,0,1-.58-1.45,2,2,0,0,1,.58-1.48,1.93,1.93,0,0,1,1.43-.59,2,2,0,0,1,1.44.59A2,2,0,0,1,89.82,94.41Zm-.49,21.93H86.25V100.22h3.07Z"/><path class="cls-1" d="M99.1,100.22q.07.61.1,1.38t0,1.27h.1a4.72,4.72,0,0,1,.8-1.21,5.93,5.93,0,0,1,1.16-1,5.67,5.67,0,0,1,3.07-.9,5.83,5.83,0,0,1,2.58.53,5.28,5.28,0,0,1,1.8,1.41,5.79,5.79,0,0,1,1.06,2.07,9.15,9.15,0,0,1,.34,2.55v10h-3.07V107.4a11.44,11.44,0,0,0-.15-1.87,4.63,4.63,0,0,0-.54-1.56,3,3,0,0,0-1.08-1.09,3.43,3.43,0,0,0-1.77-.41,3.66,3.66,0,0,0-3,1.45,6,6,0,0,0-1.16,3.86v8.57H96.32V103.69c0-.43,0-1,0-1.67s-.05-1.28-.1-1.8Z"/><path class="cls-1" d="M118.2,119.09a7.43,7.43,0,0,0,2.53,1.9,7.29,7.29,0,0,0,3.12.71,6.42,6.42,0,0,0,2.58-.46,4.33,4.33,0,0,0,1.68-1.26,5,5,0,0,0,.92-1.89,9.45,9.45,0,0,0,.28-2.35v-2.07h-.07a5.53,5.53,0,0,1-2.32,2.07,7.11,7.11,0,0,1-3.14.71,7.87,7.87,0,0,1-3.22-.65,7.26,7.26,0,0,1-2.47-1.77,8,8,0,0,1-1.57-2.64,9.32,9.32,0,0,1-.56-3.25,9.47,9.47,0,0,1,.56-3.26,8.17,8.17,0,0,1,1.57-2.67,7.37,7.37,0,0,1,2.45-1.8,7.56,7.56,0,0,1,3.2-.66,7.14,7.14,0,0,1,3.19.75,5.57,5.57,0,0,1,2.4,2.28h.07v-2.58h3v15.3a13.25,13.25,0,0,1-.42,3.38,7.47,7.47,0,0,1-1.44,2.86,7.25,7.25,0,0,1-2.65,2,9.75,9.75,0,0,1-4.05.75,11.55,11.55,0,0,1-4.07-.77,10.29,10.29,0,0,1-3.51-2.16Zm.92-11a6.66,6.66,0,0,0,.34,2.14,5.35,5.35,0,0,0,1,1.8,5.14,5.14,0,0,0,1.62,1.26,4.77,4.77,0,0,0,2.17.48,5.21,5.21,0,0,0,2.16-.44,5,5,0,0,0,1.67-1.21,5.44,5.44,0,0,0,1.07-1.8,6.47,6.47,0,0,0,.38-2.23,6.23,6.23,0,0,0-.38-2.18,5.56,5.56,0,0,0-1.08-1.8,5.29,5.29,0,0,0-1.67-1.24,5.3,5.3,0,0,0-4.31,0,5.06,5.06,0,0,0-1.62,1.22,5.16,5.16,0,0,0-1,1.8A6.92,6.92,0,0,0,119.11,108.11Z"/><path class="cls-1" d="M39.5,0a16.61,16.61,0,0,1,9.39,2.61,20.35,20.35,0,0,1,6.49,7.15,36,36,0,0,1,3.76,10.67,67.16,67.16,0,0,1,1.21,13,67,67,0,0,1-1.21,13.1,35.93,35.93,0,0,1-3.76,10.62,20.33,20.33,0,0,1-6.49,7.16A16.62,16.62,0,0,1,39.5,67a16.82,16.82,0,0,1-9.43-2.61,20.17,20.17,0,0,1-6.54-7.16,35.88,35.88,0,0,1-3.76-10.62,66.9,66.9,0,0,1-1.21-13.1,67.09,67.09,0,0,1,1.21-13A35.91,35.91,0,0,1,23.53,9.76a20.19,20.19,0,0,1,6.54-7.15A16.81,16.81,0,0,1,39.5,0Zm0,7.29a8.19,8.19,0,0,0-6.23,2.56,17.56,17.56,0,0,0-3.76,6.48,40,40,0,0,0-1.86,8.5,77.17,77.17,0,0,0-.52,8.64,77.18,77.18,0,0,0,.52,8.64,39.21,39.21,0,0,0,1.86,8.46A17.6,17.6,0,0,0,33.27,57a8.19,8.19,0,0,0,6.23,2.57A8,8,0,0,0,45.6,57a18.48,18.48,0,0,0,3.76-6.43,37.58,37.58,0,0,0,1.9-8.46,77,77,0,0,0,.52-8.64,77,77,0,0,0-.52-8.64,38.37,38.37,0,0,0-1.9-8.5A18.44,18.44,0,0,0,45.6,9.85,8,8,0,0,0,39.5,7.29Z"/><path class="cls-1" d="M88,28.53h2.68a25.52,25.52,0,0,0,5.06-.5,12.64,12.64,0,0,0,4.37-1.72,9.19,9.19,0,0,0,3.07-3.3,10.39,10.39,0,0,0,1.17-5.15,10.68,10.68,0,0,0-.87-4.38,9.65,9.65,0,0,0-2.38-3.3,11.45,11.45,0,0,0-3.46-2.12,11.11,11.11,0,0,0-4.11-.77,10.63,10.63,0,0,0-6.62,2.07,12.56,12.56,0,0,0-4.11,5.76l-7.62-2.79a18.7,18.7,0,0,1,7.23-9A20.34,20.34,0,0,1,93.86,0a23,23,0,0,1,7.23,1.13,17.87,17.87,0,0,1,6,3.29,15.43,15.43,0,0,1,4.07,5.41,17.67,17.67,0,0,1,1.5,7.48,15.14,15.14,0,0,1-.82,5,15.51,15.51,0,0,1-2.25,4.24,14.44,14.44,0,0,1-7.75,5.23V32a16,16,0,0,1,5,1.89,14.55,14.55,0,0,1,3.94,3.37,16,16,0,0,1,2.6,4.63,16.38,16.38,0,0,1,1,5.66A19.54,19.54,0,0,1,112.57,56,17.9,17.9,0,0,1,108,62a19.6,19.6,0,0,1-6.55,3.68A23.63,23.63,0,0,1,93.86,67,23.88,23.88,0,0,1,81,63.54a19.44,19.44,0,0,1-8-10.62l7.79-2.7A14,14,0,0,0,85.5,57a12.85,12.85,0,0,0,8.18,2.61,13.79,13.79,0,0,0,4.54-.76,11.64,11.64,0,0,0,3.94-2.29,11.26,11.26,0,0,0,2.77-3.78,12.56,12.56,0,0,0,1-5.31,10.48,10.48,0,0,0-1.38-5.58A11.22,11.22,0,0,0,101,38.21a15.1,15.1,0,0,0-5-2,26.38,26.38,0,0,0-5.45-.58H88Z"/></g></g></svg>