<svg xmlns="http://www.w3.org/2000/svg" viewBox="0 0 25 20.3178"><defs><style>.cls-1{fill:#fff;}</style></defs><title>アセット 10</title><g id="レイヤー_2" data-name="レイヤー 2"><g id="レイヤー_1-2" data-name="レイヤー 1"><path class="cls-1" d="M-342.1376-1679.6822a14.49433,14.49433,0,0,0,14.5935-14.5936q0-.33315-.0146-.6631A10.43271,10.43271,0,0,0-325-1697.5946a10.237,10.237,0,0,1-2.9455.8075,5.14693,5.14693,0,0,0,2.2554-2.8373,10.27993,10.27993,0,0,1-3.2568,1.245,5.12378,5.12378,0,0,0-3.744-1.6206,5.1302,5.1302,0,0,0-5.1299,5.1288,5.11931,5.11931,0,0,0,.1331,1.1695,14.56171,14.56171,0,0,1-10.5722-5.3589,5.11139,5.11139,0,0,0-.6947,2.578,5.12517,5.12517,0,0,0,2.2825,4.2694,5.0924,5.0924,0,0,1-2.3231-.6416c-.0011.0214-.0011.0428-.0011.0653a5.13127,5.13127,0,0,0,4.115,5.0285,5.14413,5.14413,0,0,1-1.3521.1804,5.11585,5.11585,0,0,1-.9642-.0925,5.1348,5.1348,0,0,0,4.7916,3.5625,10.293,10.293,0,0,1-6.3704,2.1956,10.43238,10.43238,0,0,1-1.2236-.0711,14.52039,14.52039,0,0,0,7.8624,2.3039" transform="translate(350 1700)"/></g></g></svg>