<svg xmlns="http://www.w3.org/2000/svg" viewBox="0 0 164.75292 61.12675"><defs><style>.cls-1{isolation:isolate;}.cls-2,.cls-7{fill:#ee5ba0;}.cls-3{fill:#231f20;}.cls-4{fill:#fff;}.cls-5,.cls-6{fill:#00b8f1;}.cls-5,.cls-7{mix-blend-mode:multiply;}</style></defs><title>アセット 13</title><g class="cls-1"><g id="レイヤー_2" data-name="レイヤー 2"><g id="レイヤー_1-2" data-name="レイヤー 1"><path class="cls-2" d="M65.88478,16.43034a1.05507,1.05507,0,1,0,.18015,1.48118A1.05619,1.05619,0,0,0,65.88478,16.43034Z"/><path class="cls-2" d="M65.85872,15.61763l.8214.64332a.3221.3221,0,0,0,.443-.04361l3.72159-4.3285a.32207.32207,0,0,0-.04562-.46374l-1.23235-.96518a.32207.32207,0,0,0-.46116.06683l-3.31065,4.65036A.32211.32211,0,0,0,65.85872,15.61763Z"/><path class="cls-3" d="M57.68976,26.75382a1.439,1.439,0,0,1-1.23833-2.17354l2.90234-4.89094a6.12534,6.12534,0,0,1,.958-9.80169,6.12508,6.12508,0,0,1,10.806-3.91411,4.85548,4.85548,0,0,1,3.28048,1.0732,4.97978,4.97978,0,0,1,1.65065,5.30337,6.123,6.123,0,0,1-5.27266,10.07414,4.49992,4.49992,0,0,1-.40092.595,4.54942,4.54942,0,0,1-6.38572.723c-.038-.03045-.0752-.06089-.11175-.09227l-5.51256,2.935A1.43776,1.43776,0,0,1,57.68976,26.75382ZM64.197,20.41a1.43848,1.43848,0,0,1,1.21793.67066,1.6472,1.6472,0,0,0,.36806.41032,1.66907,1.66907,0,0,0,2.34118-.26509,1.64372,1.64372,0,0,0,.333-.729,1.43863,1.43863,0,0,1,1.88334-1.09562,3.24526,3.24526,0,0,0,3.09733-5.59183,1.43943,1.43943,0,0,1-.33715-1.84622,2.08084,2.08084,0,0,0-.49587-2.6651A2.05729,2.05729,0,0,0,70.806,8.91283a1.43854,1.43854,0,0,1-1.58521-.65794,3.24515,3.24515,0,0,0-5.97929,2.24175,1.4389,1.4389,0,0,1-.91677,1.60423,3.24679,3.24679,0,0,0-.38409,5.91228,1.43925,1.43925,0,0,1,.56416,2.0064l-.95473,1.60892L63.522,20.57874A1.43367,1.43367,0,0,1,64.197,20.41Z"/><path class="cls-4" d="M38.15664,11.0631c-2.76294-3.64153-2.72308-6.69781-.32942-8.64775s6.14424-1.16986,9.18694,2.66394,3.81519,10.4778-1.34977,11.65268C41.90012,17.58823,41.90005,15.9969,38.15664,11.0631Z"/><path class="cls-3" d="M44.05245,18.326c-2.43654.0008-3.48782-1.49959-5.14494-3.86386-.51879-.74035-1.10688-1.57913-1.85309-2.56266h0c-3.12383-4.11706-3.16175-8.06363-.101-10.55686a5.952,5.952,0,0,1,4.509-1.30214,10.25335,10.25335,0,0,1,6.63534,4.17862c2.37316,2.99031,3.31544,7.112,2.29175,10.02336a5.87214,5.87214,0,0,1-4.41826,3.83884A8.7112,8.7112,0,0,1,44.05245,18.326ZM40.74156,2.768a3.14819,3.14819,0,0,0-2.04053.71994c-2.32677,1.8955-.98092,4.71073.55783,6.73876h0c.77768,1.02522,1.40805,1.9246,1.91467,2.6472,1.97415,2.81627,2.09289,2.98341,4.184,2.509a3.07689,3.07689,0,0,0,2.42133-2.058c.70246-1.99754-.09237-5.17265-1.8485-7.38518a7.57632,7.57632,0,0,0-4.76669-3.14819A3.94163,3.94163,0,0,0,40.74156,2.768Z"/><path class="cls-4" d="M24.19783,44.44706c-5.58083.41468-9.16129,3.958-12.41025.01757-2.63468-3.19538-4.79529-4.33892-6.76706-4.35949C1.91176,40.07272-.881,42.84707,4.174,50.42811c2.56194,3.84215,5.59308,6.21351,14.56138,8.2326,13.789,3.10439,23.59525-1.183,28.14114-4.26479,5.163-3.50023,7.92024-7.56523,7.485-13.42675-.6454-8.692-12.09294-8.25978-18.80528-5.935C31.49018,36.44243,24.19783,44.44706,24.19783,44.44706Z"/><path class="cls-3" d="M28.163,61.12675a44.19,44.19,0,0,1-9.7315-1.11634C9.00405,57.888,5.743,55.275,3.02283,51.19568.12537,46.85-.6944,43.44871.5863,41.08549a4.74971,4.74971,0,0,1,4.376-2.36413c.02412,0,.04844.00037.07277.00037,2.62223.02735,5.1071,1.57267,7.81985,4.8625,1.51536,1.8381,2.83694,1.53521,5.946.60933a26.05152,26.05152,0,0,1,4.7403-1.07557c1.66125-1.78421,7.68428-8.0481,11.5621-9.39143,5.25941-1.8215,12.51258-2.38058,16.86.47853a8.39342,8.39342,0,0,1,3.77785,6.6614c.44343,5.96978-2.12667,10.63291-8.08831,14.67469A34.85329,34.85329,0,0,1,28.163,61.12675ZM4.97072,41.48855a2.18145,2.18145,0,0,0-1.95151.91527c-1.05358,1.94432,1.4987,6.046,2.30594,7.25654,2.37442,3.5609,5.14719,5.72191,13.71413,7.6507C33.31686,60.526,42.72,55.54163,46.1002,53.25063c5.12652-3.47569,7.249-7.23192,6.88156-12.17907A5.58,5.58,0,0,0,50.4431,36.517c-3.54181-2.32843-9.96517-1.72317-14.434-.17552-3.05926,1.05946-8.82506,6.88282-10.78852,9.0373a1.38486,1.38486,0,0,1-.92027.448,21.77466,21.77466,0,0,0-4.70884,1.01842c-3.01276.89846-6.12821,1.82667-8.87146-1.50022-2.12467-2.5769-3.99374-3.83819-5.714-3.856C4.99465,41.48855,4.98288,41.48855,4.97072,41.48855Zm19.22707,2.9585h0Z"/><path class="cls-4" d="M14.8989,10.41783C19.50105,6.37867,24.96706,4.8652,29.61423,4.219s8.29532.52393,9.99366,4.25831.001,5.68.001,5.68a4.24974,4.24974,0,0,1,4.34172,3.943c.5565,3.95246-2.32277,5.0995-2.32277,5.0995a4.0067,4.0067,0,0,1,3.357,3.54943c.45253,4.19539-1.295,4.83466-2.19852,5.35118,1.16682.71628,2.52319,6.07333-2.06416,7.61673-4.8682,7.3655-18.08486,11.41908-26.12525,7.11093C1.72234,38.58565,9.35171,15.28642,14.8989,10.41783Z"/><path class="cls-3" d="M22.3343,49.95512a17.7894,17.7894,0,0,1-8.39109-1.90759q-.04719-.02547-.09246-.05441c-4.498-2.87955-7.12951-7.763-7.61026-14.12229A37.57479,37.57479,0,0,1,8.34506,19.26626c1.51893-4.42476,3.62786-8.12154,5.64119-9.88844h0c3.99269-3.50407,9.04242-5.63977,15.43735-6.52916,7.11027-.98756,10.14689,2.20377,11.44372,5.05606a7.93169,7.93169,0,0,1,.70465,5.17911,5.56807,5.56807,0,0,1,3.74858,4.82343,6.43283,6.43283,0,0,1-1.11079,4.91651,5.18937,5.18937,0,0,1,2.15074,3.77712c.35282,3.27247-.495,4.899-1.63353,5.87439a7.17693,7.17693,0,0,1,.53316,3.59634,5.665,5.665,0,0,1-3.64271,4.78762C37.651,46.48773,29.62,49.95388,22.3343,49.95512Zm-7.03685-4.32178c7.15644,3.79171,19.61132.37,24.2705-6.67929a1.38278,1.38278,0,0,1,.71294-.54831,2.97968,2.97968,0,0,0,2.152-2.20123,4.10528,4.10528,0,0,0-.429-2.96285,1.38365,1.38365,0,0,1,.09592-2.34255c.06717-.03823.13839-.07762.21289-.11817.75929-.41513,1.61971-.88549,1.29646-3.8831a2.598,2.598,0,0,0-2.18-2.32866,1.39369,1.39369,0,0,1-1.16839-1.21392,1.3794,1.3794,0,0,1,.85485-1.44088c.17158-.07569,1.84844-.89633,1.46482-3.62138a2.83864,2.83864,0,0,0-2.91667-2.75319,1.397,1.397,0,0,1-1.29842-.79234,1.382,1.382,0,0,1,.20088-1.49983c.02084-.029,1.05135-1.40694-.21768-4.19747-1.31943-2.9017-4.19549-4.06708-8.54384-3.46063C23.9622,6.402,19.385,8.32145,15.81145,11.45754h0c-3.16956,2.782-7.50314,13.057-6.81152,22.20474C9.41664,39.17652,11.53519,43.20381,15.29745,45.63334Zm26.7638-12.35462.00077.00038Z"/><path class="cls-4" d="M45.38115,38.89167s-4.72277-2.91972-9.29781-.61055-6.67344,2.71265-8.426,2.27137-4.72636-.7907-5.7008,1.49323.23422,9.64364,14.82935,6.66256"/><path d="M46.10877,37.71469c-.21969-.13623-5.44269-3.29592-10.64888-.66875-4.43763,2.24022-6.19372,2.48412-7.46465,2.16507-3.636-.91625-6.29955-.07961-7.31137,2.29167a6.16454,6.16454,0,0,0,1.11362,6.03954c1.32056,1.6177,3.88343,3.24716,8.84917,3.24632a26.91659,26.91659,0,0,0,2.83548-.16045q.09126-.01269.20139-.02182c.43041-.04855.8766-.10883,1.33531-.17861,1.86156-.36926,3.272-1.19147,3.12294-1.99645a1.3867,1.3867,0,0,0-.07759-.2486c-.00565-.01313-.01094-.02654-.01707-.03925-.0138-.03084-.03244-.05829-.04829-.08775-.38893-.63214-1.43733-.6869-2.92695-.43588l-.0002-.00065c-7.33987,1.22371-10.11606-.584-11.13037-1.8268a3.45533,3.45533,0,0,1-.71242-3.20369c.60007-1.40532,3.06043-.95368,4.09045-.69443,2.27392.5729,4.81787-.07185,9.38714-2.37772,3.79376-1.91545,7.8859.5148,7.95076.55417a1.38359,1.38359,0,0,0,1.45153-2.35592Z"/><path d="M42.97694,22.89367a1.3812,1.3812,0,0,0-1.65517-1.04321l-7.42364,1.68308c-1.47694.335-3.54963,1.06236-3.30708,2.16842.24262,1.10637,1.98441.96855,3.30884.66829h0l8.03384-1.82141A1.38313,1.38313,0,0,0,42.97694,22.89367Z"/><path d="M40.93744,13.77092a1.38368,1.38368,0,0,0-1.715-.94244l-7.75576,2.25459-.00012,0a7.79507,7.79507,0,0,0-2.0399.8942c-.74508.51557-.97847,1.54988-.13183,1.88128a3.04032,3.04032,0,0,0,.4376.09492c.02869.00248.05538.00646.08544.00785a14.7046,14.7046,0,0,0,3.83627-.63218L39.995,15.48591A1.38392,1.38392,0,0,0,40.93744,13.77092Z"/><path d="M44.1621,31.95518a1.37787,1.37787,0,0,0-1.52124-1.23046l-8.12779.85768c-1.85283.19564-3.30324.61759-3.293,1.73889a1.37135,1.37135,0,0,0,.11835.42012c.43192.71429,2.0118.746,3.53881.585l8.05442-.84995A1.38322,1.38322,0,0,0,44.1621,31.95518Z"/><path class="cls-3" d="M96.41882,52.06345a1.89479,1.89479,0,0,1-.61484,1.42741,1.8211,1.8211,0,0,1-1.28917.53608H92.829v2.83632a.35639.35639,0,0,1-.35705.35685.35862.35862,0,0,1-.25779-.10449.33472.33472,0,0,1-.1091-.25236V50.45682a.3352.3352,0,0,1,.1091-.25317A.3612.3612,0,0,1,92.472,50.1H94.604a1.70887,1.70887,0,0,1,1.25942.54492A1.96381,1.96381,0,0,1,96.41882,52.06345Zm-.73379,0a1.23543,1.23543,0,0,0-.34219-.87283,1.1027,1.1027,0,0,0-.83787-.3673H92.829v2.48911h1.61648a1.1808,1.1808,0,0,0,.86762-.37694A1.20371,1.20371,0,0,0,95.685,52.06345Z"/><path class="cls-3" d="M107.59512,56.684a.35184.35184,0,0,1,.05947.19851.35469.35469,0,0,1-.35705.35686.3507.3507,0,0,1-.30742-.15834l-2.023-3.06457h-1.43805v2.90624a.357.357,0,1,1-.7139,0V50.45682a.35469.35469,0,0,1,.35705-.35685h2.44933a1.72758,1.72758,0,0,1,1.23974.50554,1.90547,1.90547,0,0,1,.5851,1.44749,1.84474,1.84474,0,0,1-.49589,1.29962,2.09887,2.09887,0,0,1-1.15032.62448Zm-.89253-4.631a1.25364,1.25364,0,0,0-.33214-.87766,1.1009,1.1009,0,0,0-.84792-.36167h-1.99342v2.48912h1.9239a1.289,1.289,0,0,0,1.24958-1.24979Z"/><path class="cls-3" d="M119.674,53.49086a4.0667,4.0667,0,0,1-.89252,2.678,2.78166,2.78166,0,0,1-4.43291-.04018,4.46059,4.46059,0,0,1,.01989-5.30052,2.79117,2.79117,0,0,1,4.408-.01447A4.02587,4.02587,0,0,1,119.674,53.49086Zm-.76373,0a3.546,3.546,0,0,0-.59495-2.01251,2.00334,2.00334,0,0,0-1.73543-1.01188,2.02659,2.02659,0,0,0-1.74547,1.01188,3.70259,3.70259,0,0,0,0,4.02582,2.02659,2.02659,0,0,0,1.74547,1.01188,2.00334,2.00334,0,0,0,1.73543-1.01188A3.54678,3.54678,0,0,0,118.91026,53.49086Z"/><path class="cls-3" d="M129.77913,54.93916a2.34262,2.34262,0,0,1-.61484,1.63636,2.03883,2.03883,0,0,1-1.57669.67432,2.06818,2.06818,0,0,1-1.49753-.57546,2.415,2.415,0,0,1-.67432-1.4282.34221.34221,0,0,1,.07435-.26764.36154.36154,0,0,1,.24292-.13905.35455.35455,0,0,1,.26784.06993.34309.34309,0,0,1,.13884.2379,1.67409,1.67409,0,0,0,.476.99179,1.33289,1.33289,0,0,0,.98175.39623,1.3036,1.3036,0,0,0,1.04141-.4959,1.64387,1.64387,0,0,0,.39664-1.10028V50.08952a.329.329,0,0,1,.11392-.25237.37647.37647,0,0,1,.26282-.10448.359.359,0,0,1,.25779.10448.33543.33543,0,0,1,.1091.25237Z"/><path class="cls-3" d="M140.84633,56.70412a.35469.35469,0,0,1-.357.35685h-3.61954a.35469.35469,0,0,1-.35705-.35685V50.29768a.35605.35605,0,0,1,.35705-.35685H140.42a.35893.35893,0,0,1,.25779.10449.33543.33543,0,0,1,.1091.25236.373.373,0,0,1-.36689.3673h-3.17348v2.37981h2.757a.359.359,0,0,1,.2578.10449.34735.34735,0,0,1,0,.50553.36233.36233,0,0,1-.2578.10449h-2.757v2.57832h3.2428a.33729.33729,0,0,1,.253.10851A.36287.36287,0,0,1,140.84633,56.70412Z"/><path class="cls-3" d="M152.8161,55.53391a2.89675,2.89675,0,0,1-2.64765,1.71593,2.81655,2.81655,0,0,1-2.32073-1.2,4.2744,4.2744,0,0,1,0-5.09718,2.81447,2.81447,0,0,1,2.32073-1.2,2.88214,2.88214,0,0,1,2.5287,1.507.33478.33478,0,0,1,.05948.18888.37013.37013,0,0,1-.10911.26281.346.346,0,0,1-.25779.11333.34187.34187,0,0,1-.30742-.17843,2.196,2.196,0,0,0-1.91386-1.15976,2.08953,2.08953,0,0,0-1.77521.99179,3.6354,3.6354,0,0,0,0,4.04591,2.09136,2.09136,0,0,0,1.77521.99179,2.20016,2.20016,0,0,0,2.00307-1.32935.35489.35489,0,0,1,.32731-.18807.34526.34526,0,0,1,.253.10368.35822.35822,0,0,1,.10409.26282A.37507.37507,0,0,1,152.8161,55.53391Z"/><path class="cls-3" d="M164.11135,50.48656a.356.356,0,0,1-.357.35685h-2.09248v6.1388a.36579.36579,0,0,1-.1089.26763.354.354,0,0,1-.258.10851.37159.37159,0,0,1-.37674-.37614v-6.1388h-2.15195a.35685.35685,0,1,1,0-.7137h4.98807a.35469.35469,0,0,1,.357.35685Z"/><path class="cls-2" d="M99.47234,4.70807q0-.23922-.032-1.18025-.016-.70162-.01583-1.19628a.50557.50557,0,0,1,.19153-.39078.63669.63669,0,0,1,.43055-.1674.57154.57154,0,0,1,.5742.5742q-.016,1.48338,0,2.28077l.03206,1.16423.09537,3.9076a6.72549,6.72549,0,0,1,2.871,2.08943.55509.55509,0,0,1,.11159.351.49324.49324,0,0,1-.558.55817.53082.53082,0,0,1-.44678-.20736,5.83268,5.83268,0,0,0-1.93-1.54709v.44658a2.07115,2.07115,0,0,1-.73368,1.69054,2.62538,2.62538,0,0,1-1.77008.5742,3.13451,3.13451,0,0,1-1.83419-.51029,1.87733,1.87733,0,0,1-.82944-1.64286,1.9166,1.9166,0,0,1,.941-1.67471,3.373,3.373,0,0,1,1.92956-.55817A6.22248,6.22248,0,0,1,99.616,9.3812q-.06411-1.9618-.09576-3.5089Zm.19154,6.68283q0-.271-.01623-.8613a4.84539,4.84539,0,0,0-1.1484-.14345,2.401,2.401,0,0,0-1.11634.255.97207.97207,0,0,0-.62208.87733q0,1.05273,1.53146,1.05263Q99.66349,12.57115,99.66388,11.3909Z"/><path class="cls-2" d="M115.70859,3.99042l.59-2.23308a.56418.56418,0,0,1,.62208-.43055.57153.57153,0,0,1,.5742.5742.83631.83631,0,0,1-.01583.15947l-.49465,1.85022-.33479,1.19608-2.29679,8.35754a.53348.53348,0,0,1-.5742.43075.599.599,0,0,1-.60586-.60625.73578.73578,0,0,1,.01583-.14345q.78117-2.75931,2.23308-7.97468Z"/><path class="cls-5" d="M115.42169,5.17067a19.89278,19.89278,0,0,1-2.16937-.016.5568.5568,0,0,1-.39849-.19945.56325.56325,0,0,1-.14365-.42264q.04748-.58973.70162-.54214a20.51539,20.51539,0,0,0,2.29679,0c.23132-.01259.92208-.0411,1.27583-.07974a22.5249,22.5249,0,0,0,2.44044-.335.55694.55694,0,0,1,.43846.08765.57259.57259,0,0,1,.24733.37476.55636.55636,0,0,1-.08785.43866.57143.57143,0,0,1-.37475.24733,23.90881,23.90881,0,0,1-2.99842.38266C116.27107,5.12771,115.74979,5.15844,115.42169,5.17067Z"/><path class="cls-6" d="M124.78378,12.90613a.61191.61191,0,0,1-.10368.43866.516.516,0,0,1-.37475.23111,13.85273,13.85273,0,0,1-2.31262.19153,5.52176,5.52176,0,0,1-3.38148-.79759,1.87417,1.87417,0,0,1-.74951-1.54709,2.42238,2.42238,0,0,1,.04788-.47843.54351.54351,0,0,1,.24733-.36684.57479.57479,0,0,1,.43847-.07974.51767.51767,0,0,1,.35892.24713.59713.59713,0,0,1,.07163.43867.98545.98545,0,0,0-.03166.23921.80237.80237,0,0,0,.33478.63811,4.22828,4.22828,0,0,0,2.552.54215,13.74949,13.74949,0,0,0,2.23269-.17531.61373.61373,0,0,1,.43886.10348A.51893.51893,0,0,1,124.78378,12.90613Z"/><path class="cls-6" d="M124.19376,7.16434q-.09558.27127-.49466.27107a.34756.34756,0,0,1-.1116-.016,4.85642,4.85642,0,0,0-1.86585-.30293,16.02652,16.02652,0,0,0-2.02572.15948.54259.54259,0,0,1-.42263-.1116.56037.56037,0,0,1-.21528-.38286.54183.54183,0,0,1,.1116-.42264.56218.56218,0,0,1,.38266-.21527,18.407,18.407,0,0,1,2.24891-.15948,4.32183,4.32183,0,0,1,2.16938.39869.57136.57136,0,0,1,.27107.51029A.85447.85447,0,0,1,124.19376,7.16434Z"/><path class="cls-2" d="M143.52419,10.30641a3.67225,3.67225,0,0,1-.5742,1.94578q-1.19609,1.80245-4.83261,2.21686a.52785.52785,0,0,1-.42263-.11951.59114.59114,0,0,1-.21528-.39078.50468.50468,0,0,1,.11951-.41472.60538.60538,0,0,1,.391-.20736q4.30649-.47842,4.30629-3.0463a1.68338,1.68338,0,0,0-.81361-1.49921,3.06551,3.06551,0,0,0-1.70637-.44657,6.78392,6.78392,0,0,0-4.81678,2.37633.702.702,0,0,1-.49427.23942.57186.57186,0,0,1-.57419-.5742,32.632,32.632,0,0,1,.60585-6.15651.57351.57351,0,0,1,.24733-.37495.55778.55778,0,0,1,.43847-.08766.634.634,0,0,1,.391.24733.52614.52614,0,0,1,.10368.43847,35.72182,35.72182,0,0,0-.55837,4.60941,7.44013,7.44013,0,0,1,4.68936-1.866,4.23015,4.23015,0,0,1,2.56747.78156A2.6558,2.6558,0,0,1,143.52419,10.30641Z"/><path class="cls-6" d="M140.749,3.65544a.56039.56039,0,0,1,.09577.319.54241.54241,0,0,1-.17531.40681.60091.60091,0,0,1-.43055.16739.56583.56583,0,0,1-.49466-.25524,1.9614,1.9614,0,0,0-.4626-.3987,14.54005,14.54005,0,0,0-2.72735-1.45132.56457.56457,0,0,1-.38266-.55837.5658.5658,0,0,1,.1753-.41452.58656.58656,0,0,1,.43095-.17551.56131.56131,0,0,1,.22319.04788Q140.15893,2.69857,140.749,3.65544Z"/><path class="cls-6" d="M159.075,6.07966q-.447-.78117-.941-1.61081l-.59-.97289q-.35141-.55827-.92521-1.4355a.53833.53833,0,0,1-.09577-.30312.48649.48649,0,0,1,.55837-.54215.55238.55238,0,0,1,.49426.23922q.46242.68589,1.11635,1.80233l.55837.95687q.25524.43065.909,1.595l.54254.95707q.84528,1.57895.87733,1.64266a16.04849,16.04849,0,0,1,.78116,1.69074.56055.56055,0,0,1,.04788.22319.54.54,0,0,1-.15947.39869.52183.52183,0,0,1-.38267.15968.60226.60226,0,0,1-.23942-.04789,9.09262,9.09262,0,0,0-3.74792-.79758,4.43808,4.43808,0,0,0-1.65888.27127,1.29723,1.29723,0,0,0-.941,1.244q0,.8613,1.22833,1.24417a6.04213,6.04213,0,0,0,1.88208.27107,11.91279,11.91279,0,0,0,1.8979-.15948.579.579,0,0,1,.41472.09557.48986.48986,0,0,1,.22319.351.55813.55813,0,0,1-.10368.41472.515.515,0,0,1-.35892.22319,12.99816,12.99816,0,0,1-2.07321.1755,6.77619,6.77619,0,0,1-2.72735-.47843,2.23,2.23,0,0,1-1.4994-2.13732,2.29219,2.29219,0,0,1,1.62683-2.24891,5.66961,5.66961,0,0,1,2.10526-.35081,10.55058,10.55058,0,0,1,2.91888.43055q-.51049-1.05243-1.19628-2.31262Z"/><path class="cls-2" d="M93.204,26.46529a40.37725,40.37725,0,0,0-.59,6.2044,9.04256,9.04256,0,0,0,.52632,3.60447.637.637,0,0,1,.06371.2871.54751.54751,0,0,1-.51009.60605.5587.5587,0,0,1-.62208-.39869,10.2044,10.2044,0,0,1-.63791-4.09893,41.67212,41.67212,0,0,1,.60585-6.3799.58172.58172,0,0,1,.2315-.36684.66616.66616,0,0,1,.42264-.15948.46838.46838,0,0,1,.41472.21548A.64393.64393,0,0,1,93.204,26.46529Z"/><path class="cls-6" d="M99.47234,28.29948q0-.2392-.032-1.18025-.016-.70163-.01583-1.19628a.50559.50559,0,0,1,.19153-.39078.63672.63672,0,0,1,.43055-.16739.57153.57153,0,0,1,.5742.5742q-.016,1.48338,0,2.28077l.03206,1.16422.09537,3.9076a6.72557,6.72557,0,0,1,2.871,2.08943.55511.55511,0,0,1,.11159.351.49325.49325,0,0,1-.558.55818.53085.53085,0,0,1-.44678-.20736,5.83283,5.83283,0,0,0-1.93-1.5471v.44658a2.07115,2.07115,0,0,1-.73368,1.69054,2.62533,2.62533,0,0,1-1.77008.5742,3.13444,3.13444,0,0,1-1.83419-.51029,1.87731,1.87731,0,0,1-.82944-1.64285,1.91662,1.91662,0,0,1,.941-1.67472,3.37312,3.37312,0,0,1,1.92956-.55817,6.22254,6.22254,0,0,1,1.11674.1116q-.06411-1.96182-.09576-3.50891Zm.19154,6.68283q0-.271-.01623-.8613a4.8459,4.8459,0,0,0-1.1484-.14345,2.40089,2.40089,0,0,0-1.11634.25505.97206.97206,0,0,0-.62208.87732q0,1.05273,1.53146,1.05263Q99.66349,36.16256,99.66388,34.98231Z"/><path class="cls-2" d="M121.48224,36.94412a.57126.57126,0,0,1,.12782.36684.61258.61258,0,0,1-.1757.43866.57345.57345,0,0,1-.43055.18342.56091.56091,0,0,1-.47844-.23941,29.83951,29.83951,0,0,0-4.402-4.54551,3.275,3.275,0,0,1-1.45153-2.23289,3.03723,3.03723,0,0,1,1.3241-2.10526q1.67451-1.43559,1.7222-1.48338,1.24416-1.11624,2.34468-2.29679a.59714.59714,0,0,1,.4626-.19134.599.599,0,0,1,.60586.60606.59561.59561,0,0,1-.15948.41472,32.42143,32.42143,0,0,1-2.44,2.37653q-.87732.73368-1.75465,1.48318-.87732.75-.87692,1.19628,0,.44668,1.02057,1.30788A30.61349,30.61349,0,0,1,121.48224,36.94412Z"/><path class="cls-6" d="M123.36431,29.416a.50662.50662,0,0,1,.06372.255q0,.463-.44638.46261a.44957.44957,0,0,1-.3989-.22339q-.36683-.558-.909-1.30768a.46737.46737,0,0,1-.09576-.2871.40883.40883,0,0,1,.4626-.4626.4401.4401,0,0,1,.36684.19133A13.45186,13.45186,0,0,1,123.36431,29.416Z"/><path class="cls-6" d="M125.15062,28.60261a.42888.42888,0,0,1,.07994.25505.42294.42294,0,0,1-.47844.47863.44954.44954,0,0,1-.39889-.22339q-.447-.70162-.909-1.29185a.44354.44354,0,0,1-.112-.30312.42316.42316,0,0,1,.47883-.47844.43827.43827,0,0,1,.35061.17551A14.27219,14.27219,0,0,1,125.15062,28.60261Z"/><path class="cls-6" d="M141.72205,37.07175a.63661.63661,0,0,1,.12743.38266.5733.5733,0,0,1-.18323.43075.6134.6134,0,0,1-.43846.17531.60491.60491,0,0,1-.49466-.23922,29.2959,29.2959,0,0,0-4.38623-4.54551,3.31547,3.31547,0,0,1-1.46735-2.24891,3.03716,3.03716,0,0,1,1.3241-2.10526,54.64629,54.64629,0,0,0,4.06688-3.78.63055.63055,0,0,1,.4626-.19153.60026.60026,0,0,1,.62208.62208.61735.61735,0,0,1-.15947.43055,56.15777,56.15777,0,0,1-4.17887,3.85991q-.89336.76544-.89316,1.16423,0,.44667,1.021,1.30787A31.822,31.822,0,0,1,141.72205,37.07175Z"/><path class="cls-2" d="M155.4862,27.26268l.01622-2.185a.50981.50981,0,0,1,.1674-.38267.56869.56869,0,0,1,.4068-.15967.58034.58034,0,0,1,.41433.16759.52384.52384,0,0,1,.1757.39078l-.04788,2.12129-.03206,1.11634-.04788,2.7594a2.267,2.267,0,0,1,.19153,1.48318,21.534,21.534,0,0,0-.30312,2.42442,1.812,1.812,0,0,0,.22358,1.02077q.36625.52622,1.91373.52632,2.45628,0,3.20578-1.45152a2.85627,2.85627,0,0,0,.27107-1.48319.53029.53029,0,0,1,.15157-.4068.58742.58742,0,0,1,.4068-.19925.54027.54027,0,0,1,.41473.14345.57391.57391,0,0,1,.19153.39869,4.05144,4.05144,0,0,1-.3989,2.08944q-1.021,1.99386-4.24258,1.99367-2.201,0-2.85476-.98892a2.66765,2.66765,0,0,1-.3989-1.26,2.10357,2.10357,0,0,1-.63791.09577q-2.23308,0-2.23308-2.34468a3.17424,3.17424,0,0,1,.68579-2.00949,2.23968,2.23968,0,0,1,1.83419-.941,2.08249,2.08249,0,0,1,.46261.06371l.04788-1.86605Zm-.06371,4.17887a.70742.70742,0,0,0-.46261-.14365,1.23017,1.23017,0,0,0-1.05263.62208,2.18456,2.18456,0,0,0-.351,1.21211q0,1.22844,1.11674,1.22814.71766,0,.71745-.74951Q155.39043,33.11656,155.42249,31.44155Z"/><path class="cls-6" d="M164.68921,29.91029a.47726.47726,0,0,1,.06371.23941.62662.62662,0,0,1-.18322.44658.57.57,0,0,1-.42264.19133.54262.54262,0,0,1-.49465-.319A11.61262,11.61262,0,0,0,161.914,28.156a.54076.54076,0,0,1-.15948-.39889.57188.57188,0,0,1,.5742-.5742.54051.54051,0,0,1,.3985.15968A10.66241,10.66241,0,0,1,164.68921,29.91029Z"/><path class="cls-5" d="M99.52023,5.8723q-1.8342.11189-3.541.09576a.50046.50046,0,0,1-.558-.5742.57188.57188,0,0,1,.5742-.5742q1.56292.016,3.47685-.11159l1.1484-.07974q1.46736-.12732,2.26474-.23922a.59379.59379,0,0,1,.46261.13554.5215.5215,0,0,1,.20736.42264.52278.52278,0,0,1-.49466.59022q-.89335.12762-2.408.255Z"/><path class="cls-7" d="M158.134,4.46885a14.59163,14.59163,0,0,1-2.85516.30293,6.98617,6.98617,0,0,1-1.61061-.14345.47439.47439,0,0,1-.39889-.51029.52936.52936,0,0,1,.19945-.42283.48649.48649,0,0,1,.45429-.10368,6.30611,6.30611,0,0,0,1.35576.12762A13.50411,13.50411,0,0,0,157.544,3.496c.315-.04887.726-.132,1.148-.23922a19.83016,19.83016,0,0,0,2.24891-.686.6074.6074,0,0,1,.19153-.03185.45836.45836,0,0,1,.51049.52631.48438.48438,0,0,1-.33518.49446q-1.037.38287-2.05738.65394C158.91,4.29552,158.50574,4.39863,158.134,4.46885Z"/><path class="cls-7" d="M159.61719,7.06858A16.24886,16.24886,0,0,1,155.933,7.563a6.09031,6.09031,0,0,1-1.83419-.23922.50989.50989,0,0,1-.38266-.52632.53549.53549,0,0,1,.71745-.49446,4.94276,4.94276,0,0,0,1.4994.19134,14.9234,14.9234,0,0,0,3.14207-.41472c.35207-.08726.82538-.20032,1.08429-.27108q1.18065-.31875,2.16937-.65393a.46931.46931,0,0,1,.17531-.03186.49638.49638,0,0,1,.37475.15948.53707.53707,0,0,1,.15156.38286.4701.4701,0,0,1-.35061.49427q-.92541.30331-1.97784.60625C160.37263,6.86194,159.93374,6.9959,159.61719,7.06858Z"/><path class="cls-6" d="M93.204,2.87388a40.37713,40.37713,0,0,0-.59,6.20439,9.04253,9.04253,0,0,0,.52632,3.60447.63708.63708,0,0,1,.06371.2871.54752.54752,0,0,1-.51009.60606.55871.55871,0,0,1-.62208-.3987A10.20437,10.20437,0,0,1,91.434,9.07827a41.67223,41.67223,0,0,1,.60585-6.3799.5817.5817,0,0,1,.2315-.36683.6661.6661,0,0,1,.42264-.15948.46838.46838,0,0,1,.41472.21547A.644.644,0,0,1,93.204,2.87388Z"/><path class="cls-7" d="M99.52023,29.46371q-1.8342.1119-3.541.09577a.50046.50046,0,0,1-.558-.5742.57188.57188,0,0,1,.5742-.5742q1.56292.016,3.47685-.1116c.47131-.01978.91639-.05931,1.1484-.07973q1.46736-.12734,2.26474-.23922a.59375.59375,0,0,1,.46261.13554.57578.57578,0,0,1-.2873,1.01286q-.89335.12762-2.408.255C100.34888,29.40673,99.78011,29.44849,99.52023,29.46371Z"/><path class="cls-5" d="M155.47037,28.37922q-1.45132.06381-2.4721.06391a.55418.55418,0,0,1-.40681-.16759.53984.53984,0,0,1,0-.78156.554.554,0,0,1,.40681-.16739q1.06847,0,2.48793-.06391c.26012-.00448.89025-.02829,1.13257-.04768l2.79106-.22339a.55851.55851,0,0,1,.4068.13554.53481.53481,0,0,1,.19945.39078.556.556,0,0,1-.13574.41472.52805.52805,0,0,1-.37475.19133q-1.7867.14366-2.91888.20736C156.236,28.35568,155.68481,28.37007,155.47037,28.37922Z"/></g></g></g></svg>