<svg xmlns="http://www.w3.org/2000/svg" viewBox="0 0 41.13965 41.51668"><defs><style>.cls-1{fill:#231f20;}.cls-2{fill:none;stroke:#231f20;stroke-miterlimit:10;}</style></defs><title>アセット 12</title><g id="レイヤー_2" data-name="レイヤー 2"><g id="レイヤー_1-2" data-name="レイヤー 1"><path class="cls-1" d="M4.14062,1.65967a1.54108,1.54108,0,0,0-.56445-.43506,1.69885,1.69885,0,0,0-.73633-.17481,1.80634,1.80634,0,0,0-.43945.05518A1.35667,1.35667,0,0,0,2,1.2749a.95546.95546,0,0,0-.29492.29981.83182.83182,0,0,0-.11524.44482.78835.78835,0,0,0,.10059.41016.91156.91156,0,0,0,.27441.29,1.881,1.881,0,0,0,.42578.21q.249.09009.54981.18017.33984.10988.70508.25A2.74581,2.74581,0,0,1,4.31543,3.73a1.83764,1.83764,0,0,1,.5.57959,1.76978,1.76978,0,0,1,.19434.87012,2.2259,2.2259,0,0,1-.209.99511,2.061,2.061,0,0,1-.56055.70508,2.38083,2.38083,0,0,1-.82031.41992,3.44287,3.44287,0,0,1-.98926.14014,3.71318,3.71318,0,0,1-1.35058-.25537A2.6106,2.6106,0,0,1,0,6.42969l.90039-.83985a1.81492,1.81492,0,0,0,.69531.56983,1.94974,1.94974,0,0,0,.85547.21,1.92749,1.92749,0,0,0,.44922-.05469,1.20934,1.20934,0,0,0,.415-.18506,1.0261,1.0261,0,0,0,.2998-.32519.94512.94512,0,0,0,.11524-.48487A.78682.78682,0,0,0,3.60059,4.855,1.17293,1.17293,0,0,0,3.25,4.53467a2.51908,2.51908,0,0,0-.51953-.23487q-.3003-.0996-.62988-.21a6.00164,6.00164,0,0,1-.63965-.24023A2.13148,2.13148,0,0,1,.88477,3.48,1.78173,1.78173,0,0,1,.4707,2.91455a1.92029,1.92029,0,0,1-.16015-.835A1.82468,1.82468,0,0,1,.53516,1.1499,1.99191,1.99191,0,0,1,1.125.50488,2.63325,2.63325,0,0,1,1.95508.125,3.62125,3.62125,0,0,1,2.90039,0a3.37044,3.37044,0,0,1,1.0957.18994,2.67869,2.67869,0,0,1,.96485.56983Z"/><path class="cls-1" d="M12.12988,1.83984a1.61227,1.61227,0,0,0-.72949-.55517,2.45321,2.45321,0,0,0-1.87988.0249,2.35507,2.35507,0,0,0-.77539.55029,2.43771,2.43771,0,0,0-.5.81983,2.9115,2.9115,0,0,0-.17481,1.02,3.15735,3.15735,0,0,0,.16992,1.06006,2.40686,2.40686,0,0,0,.48438.82519,2.19131,2.19131,0,0,0,.75586.53467,2.46683,2.46683,0,0,0,.99023.18994A2.19,2.19,0,0,0,11.48047,6.085a1.988,1.988,0,0,0,.71-.59521l1.00977.71a3.22575,3.22575,0,0,1-1.1504.915A3.64751,3.64751,0,0,1,10.46,7.43994a4.1018,4.1018,0,0,1-1.52441-.27539,3.5111,3.5111,0,0,1-1.19532-.77,3.47337,3.47337,0,0,1-.77929-1.17969,3.9515,3.9515,0,0,1-.28125-1.51513,3.85282,3.85282,0,0,1,.29492-1.53516A3.42,3.42,0,0,1,7.78516,1,3.594,3.594,0,0,1,9,.25977,4.33446,4.33446,0,0,1,10.52051,0a4.09626,4.09626,0,0,1,.71.06494,3.63937,3.63937,0,0,1,.71.19971,3.46467,3.46467,0,0,1,.63965.335,2.06008,2.06008,0,0,1,.50976.48Z"/><path class="cls-1" d="M14.73047.17969h2.46a4.44683,4.44683,0,0,1,.96973.105,2.49536,2.49536,0,0,1,.835.34521,1.79862,1.79862,0,0,1,.585.62989A1.90834,1.90834,0,0,1,19.7998,2.21a1.80773,1.80773,0,0,1-.43457,1.25488,2.18935,2.18935,0,0,1-1.18457.65479l1.88965,3.14014H18.5498l-1.63964-3h-.91993v3H14.73047Zm2.29,3.05029a3.73212,3.73212,0,0,0,.54-.04,1.55434,1.55434,0,0,0,.48437-.15039.94846.94846,0,0,0,.35547-.31494.91452.91452,0,0,0,.13965-.5249.80657.80657,0,0,0-.12988-.4751.97309.97309,0,0,0-.33008-.29492,1.39123,1.39123,0,0,0-.45508-.1499,3.22952,3.22952,0,0,0-.49512-.04H15.99023V3.23Z"/><path class="cls-1" d="M21.43066,3.69971a3.97431,3.97431,0,0,1,.28418-1.53516A3.38411,3.38411,0,0,1,22.50488,1a3.50121,3.50121,0,0,1,1.2002-.74023A4.29542,4.29542,0,0,1,25.2207,0,4.36057,4.36057,0,0,1,26.75.25977,3.53476,3.53476,0,0,1,27.96,1a3.32923,3.32923,0,0,1,.79492,1.16455A3.95628,3.95628,0,0,1,29.04,3.69971a3.89794,3.89794,0,0,1-.28516,1.51513A3.48361,3.48361,0,0,1,27.96,6.39453a3.60329,3.60329,0,0,1-1.21.77,4.14244,4.14244,0,0,1-1.5293.27539,4.081,4.081,0,0,1-1.51562-.27539,3.49266,3.49266,0,0,1-1.99024-1.94971A3.91573,3.91573,0,0,1,21.43066,3.69971Zm1.36914,0a2.98893,2.98893,0,0,0,.17579,1.04492,2.42365,2.42365,0,0,0,.5.82519,2.28146,2.28146,0,0,0,.76953.54493,2.43117,2.43117,0,0,0,.98535.19482,2.47154,2.47154,0,0,0,.99023-.19482,2.28184,2.28184,0,0,0,.77442-.54493,2.42381,2.42381,0,0,0,.5-.82519,3.01163,3.01163,0,0,0,.1748-1.04492,2.9115,2.9115,0,0,0-.1748-1.02A2.474,2.474,0,0,0,27,1.85986a2.29178,2.29178,0,0,0-.76953-.55029,2.43679,2.43679,0,0,0-1-.19971,2.40067,2.40067,0,0,0-.99512.19971,2.30155,2.30155,0,0,0-.76465.55029,2.47415,2.47415,0,0,0-.49511.81983A2.88953,2.88953,0,0,0,22.7998,3.69971Z"/><path class="cls-1" d="M31.01074.17969h1.25977v5.96h3.00976V7.25977H31.01074Z"/><path class="cls-1" d="M36.87012.17969h1.25976v5.96h3.00977V7.25977H36.87012Z"/><polyline class="cls-2" points="20.668 16.31 20.668 40.31 28.668 32.31"/></g></g></svg>