<svg xmlns="http://www.w3.org/2000/svg" viewBox="0 0 187.61 124.5"><defs><style>.cls-1{fill:#ee5ba0;}</style></defs><title>icon_about_title_01</title><g id="レイヤー_2" data-name="レイヤー 2"><g id="レイヤー_1-2" data-name="レイヤー 1"><path class="cls-1" d="M21,112.6a10.5,10.5,0,0,1-3.56,3.15A10.76,10.76,0,0,1,12.2,117,12.56,12.56,0,0,1,7.31,116a11.35,11.35,0,0,1-3.86-2.62,12.1,12.1,0,0,1-2.53-4,14.73,14.73,0,0,1,0-10.27,11.46,11.46,0,0,1,6.49-6.54,12.89,12.89,0,0,1,4.9-.92,12.35,12.35,0,0,1,2.39.24,11.53,11.53,0,0,1,2.32.71,9.52,9.52,0,0,1,2,1.17,7.45,7.45,0,0,1,1.57,1.62l-2.55,2a6.43,6.43,0,0,0-2.4-2,7.22,7.22,0,0,0-3.35-.8,8.42,8.42,0,0,0-3.65.77,8.27,8.27,0,0,0-2.76,2.09,9.55,9.55,0,0,0-1.77,3.08,11.06,11.06,0,0,0-.62,3.72,11.66,11.66,0,0,0,.61,3.81,9.21,9.21,0,0,0,1.73,3.08,8,8,0,0,0,2.75,2.06,8.51,8.51,0,0,0,3.61.75,7.74,7.74,0,0,0,3.56-.82,7,7,0,0,0,2.65-2.38Z"/><path class="cls-1" d="M41.49,108.25a9,9,0,0,1-.64,3.43,8.19,8.19,0,0,1-1.77,2.7,7.94,7.94,0,0,1-2.67,1.77,9,9,0,0,1-6.61,0,7.75,7.75,0,0,1-2.65-1.77,8.31,8.31,0,0,1-1.75-2.7,9,9,0,0,1-.64-3.43,8.89,8.89,0,0,1,.64-3.42,8.16,8.16,0,0,1,1.75-2.67,7.9,7.9,0,0,1,2.65-1.75,9,9,0,0,1,6.61,0,7.94,7.94,0,0,1,4.43,4.42A8.89,8.89,0,0,1,41.49,108.25Zm-3.21,0a7,7,0,0,0-.34-2.2,5.65,5.65,0,0,0-1-1.85,4.83,4.83,0,0,0-1.62-1.27,5.4,5.4,0,0,0-4.43,0,4.82,4.82,0,0,0-1.62,1.27,5.65,5.65,0,0,0-1,1.85,7.22,7.22,0,0,0,0,4.41,5.85,5.85,0,0,0,1,1.86,4.74,4.74,0,0,0,1.62,1.29,5.41,5.41,0,0,0,4.43,0,4.74,4.74,0,0,0,1.62-1.29,5.85,5.85,0,0,0,1-1.86A7,7,0,0,0,38.29,108.27Z"/><path class="cls-1" d="M52.27,100.68a5.21,5.21,0,0,1,3.06-.9,5.43,5.43,0,0,1,2.83.75,5,5,0,0,1,2,2.48,5.66,5.66,0,0,1,2.19-2.4,5.92,5.92,0,0,1,3.07-.83,5.83,5.83,0,0,1,2.58.53,5.27,5.27,0,0,1,1.8,1.41,5.8,5.8,0,0,1,1.06,2.07,9.18,9.18,0,0,1,.34,2.55v10H68.11V107.4a10.25,10.25,0,0,0-.16-1.87,4.89,4.89,0,0,0-.56-1.56,3.07,3.07,0,0,0-1-1.09,3.11,3.11,0,0,0-1.67-.41,3.38,3.38,0,0,0-1.8.46,3.8,3.8,0,0,0-1.23,1.19,5.12,5.12,0,0,0-.69,1.65,8.22,8.22,0,0,0-.21,1.87v8.7H57.68v-9.59a8.54,8.54,0,0,0-.16-1.73,3.61,3.61,0,0,0-.56-1.34,2.78,2.78,0,0,0-1-.88,3.3,3.3,0,0,0-1.54-.32,3.45,3.45,0,0,0-2.83,1.45,6.1,6.1,0,0,0-1.13,3.86v8.57H47.38V103.69q0-.65,0-1.67t-.1-1.8h2.91q.07.61.1,1.38t0,1.27h.1A5.39,5.39,0,0,1,52.27,100.68Z"/><path class="cls-1" d="M82.9,100.68a5.21,5.21,0,0,1,3.06-.9,5.43,5.43,0,0,1,2.83.75,5,5,0,0,1,2,2.48,5.66,5.66,0,0,1,2.19-2.4A5.92,5.92,0,0,1,96,99.78a5.83,5.83,0,0,1,2.58.53,5.27,5.27,0,0,1,1.8,1.41,5.8,5.8,0,0,1,1.06,2.07,9.18,9.18,0,0,1,.34,2.55v10H98.75V107.4a10.25,10.25,0,0,0-.16-1.87A4.89,4.89,0,0,0,98,104a3.07,3.07,0,0,0-1-1.09,3.11,3.11,0,0,0-1.67-.41,3.38,3.38,0,0,0-1.8.46,3.8,3.8,0,0,0-1.23,1.19,5.12,5.12,0,0,0-.69,1.65,8.22,8.22,0,0,0-.21,1.87v8.7H88.31v-9.59a8.54,8.54,0,0,0-.16-1.73,3.61,3.61,0,0,0-.56-1.34,2.78,2.78,0,0,0-1-.88,3.3,3.3,0,0,0-1.54-.32,3.45,3.45,0,0,0-2.83,1.45,6.1,6.1,0,0,0-1.13,3.86v8.57H78V103.69q0-.65,0-1.67t-.1-1.8h2.91q.07.61.1,1.38t0,1.27H81A5.39,5.39,0,0,1,82.9,100.68Z"/><path class="cls-1" d="M119.57,116.34q-.07-.61-.1-1.38t0-1.27h-.07a5.19,5.19,0,0,1-2,2.19,5.57,5.57,0,0,1-3.09.9,6.11,6.11,0,0,1-2.6-.51,4.82,4.82,0,0,1-1.8-1.41,6.1,6.1,0,0,1-1-2.09,9.14,9.14,0,0,1-.34-2.55v-10h3.07v8.91a11.75,11.75,0,0,0,.15,1.89,4.63,4.63,0,0,0,.54,1.58,3,3,0,0,0,1.08,1.09,3.42,3.42,0,0,0,1.77.41,3.65,3.65,0,0,0,3-1.44,6,6,0,0,0,1.14-3.86v-8.57h3.07v12.65q0,.65,0,1.67t.1,1.8Z"/><path class="cls-1" d="M132.1,100.22q.07.61.1,1.38t0,1.27h.1a4.69,4.69,0,0,1,.8-1.21,5.88,5.88,0,0,1,1.16-1,5.66,5.66,0,0,1,3.07-.9,5.83,5.83,0,0,1,2.58.53,5.27,5.27,0,0,1,1.8,1.41,5.78,5.78,0,0,1,1.06,2.07,9.14,9.14,0,0,1,.34,2.55v10h-3.07V107.4a11.44,11.44,0,0,0-.15-1.87,4.63,4.63,0,0,0-.54-1.56,3,3,0,0,0-1.08-1.09,3.42,3.42,0,0,0-1.77-.41,3.66,3.66,0,0,0-3,1.45,6,6,0,0,0-1.16,3.86v8.57h-3.07V103.69q0-.65,0-1.67t-.1-1.8Z"/><path class="cls-1" d="M153.58,94.41a1.94,1.94,0,0,1-.6,1.46,2,2,0,0,1-1.44.58,1.92,1.92,0,0,1-1.43-.59,2,2,0,0,1-.58-1.45,2,2,0,0,1,.58-1.48,1.93,1.93,0,0,1,1.43-.59,2,2,0,0,1,1.44.59A2,2,0,0,1,153.58,94.41Zm-.49,21.93H150V100.22h3.07Z"/><path class="cls-1" d="M168.65,102.84h-4.12v8.37a3.27,3.27,0,0,0,.52,2.08,2,2,0,0,0,1.67.63,4.9,4.9,0,0,0,.92-.09,3.61,3.61,0,0,0,.88-.28l.1,2.62a7.27,7.27,0,0,1-1.23.32,8,8,0,0,1-1.39.12,4.33,4.33,0,0,1-3.35-1.26,5.39,5.39,0,0,1-1.16-3.77v-8.74h-3v-2.62h3V95.6h3v4.62h4.12Z"/><path class="cls-1" d="M180,112.87h.07l4.28-12.65h3.27l-7.52,19.92a13.28,13.28,0,0,1-.85,1.82,5.51,5.51,0,0,1-1.08,1.36,4.42,4.42,0,0,1-1.46.87,5.75,5.75,0,0,1-2,.31,9.9,9.9,0,0,1-1-.05,6.8,6.8,0,0,1-1-.19l.29-2.82a4.68,4.68,0,0,0,1.54.27,2.22,2.22,0,0,0,1.8-.7,6.89,6.89,0,0,0,1.08-2l1-2.69-6.64-16.12h3.43Z"/><path class="cls-1" d="M65.29,0a16.61,16.61,0,0,1,9.39,2.61,20.36,20.36,0,0,1,6.49,7.15,36,36,0,0,1,3.76,10.67,67.17,67.17,0,0,1,1.21,13.05,67,67,0,0,1-1.21,13.09,35.94,35.94,0,0,1-3.76,10.62,20.34,20.34,0,0,1-6.49,7.15A16.61,16.61,0,0,1,65.29,67a16.82,16.82,0,0,1-9.43-2.61,20.17,20.17,0,0,1-6.54-7.15,35.88,35.88,0,0,1-3.76-10.62,66.88,66.88,0,0,1-1.21-13.09,67.09,67.09,0,0,1,1.21-13.05A35.9,35.9,0,0,1,49.32,9.76a20.2,20.2,0,0,1,6.54-7.15A16.82,16.82,0,0,1,65.29,0Zm0,7.29a8.19,8.19,0,0,0-6.23,2.56,17.55,17.55,0,0,0-3.76,6.48,40,40,0,0,0-1.86,8.5,77.17,77.17,0,0,0-.52,8.64,77.16,77.16,0,0,0,.52,8.64,39.21,39.21,0,0,0,1.86,8.46A17.6,17.6,0,0,0,59.05,57a8.19,8.19,0,0,0,6.23,2.57A8,8,0,0,0,71.39,57a18.48,18.48,0,0,0,3.76-6.43,37.58,37.58,0,0,0,1.9-8.46,76.94,76.94,0,0,0,.52-8.64,77,77,0,0,0-.52-8.64,38.37,38.37,0,0,0-1.9-8.5,18.42,18.42,0,0,0-3.76-6.48A8,8,0,0,0,65.29,7.29Z"/><path class="cls-1" d="M128,65.34h-8.31V12.24l-11.6,10.08-4.93-6L120.58,1.62H128Z"/></g></g></svg>