<svg xmlns="http://www.w3.org/2000/svg" viewBox="0 0 196.28 287.5"><defs><style>.cls-1{fill:#00b8f1;}.cls-2{fill:#ee5ba0;}.cls-3{fill:#231f20;}.cls-4{fill:#fff;}.cls-5{fill:#808184;}.cls-6{fill:none;stroke:#231f20;stroke-linecap:round;stroke-linejoin:round;stroke-width:4.43px;}</style></defs><title>icon_baby</title><g id="レイヤー_2" data-name="レイヤー 2"><g id="レイヤー_1-2" data-name="レイヤー 1"><polygon class="cls-1" points="98.14 0 105.57 13.74 90.7 13.74 98.14 0"/><polygon class="cls-2" points="49.07 13.15 62.38 21.33 49.5 28.76 49.07 13.15"/><polygon class="cls-1" points="13.15 49.07 28.76 49.5 21.33 62.38 13.15 49.07"/><polygon class="cls-2" points="0 98.14 13.74 90.7 13.74 105.57 0 98.14"/><polygon class="cls-1" points="13.15 147.21 21.33 133.9 28.76 146.78 13.15 147.21"/><polygon class="cls-2" points="49.07 183.13 49.5 167.51 62.38 174.95 49.07 183.13"/><polygon class="cls-1" points="98.14 196.28 90.7 182.54 105.57 182.54 98.14 196.28"/><polygon class="cls-2" points="147.21 183.13 133.9 174.95 146.78 167.51 147.21 183.13"/><polygon class="cls-1" points="183.13 147.21 167.51 146.78 174.95 133.9 183.13 147.21"/><polygon class="cls-2" points="196.28 98.14 182.54 105.57 182.54 90.7 196.28 98.14"/><polygon class="cls-1" points="183.13 49.07 174.95 62.38 167.51 49.5 183.13 49.07"/><polygon class="cls-2" points="147.21 13.15 146.78 28.76 133.9 21.33 147.21 13.15"/><path class="cls-3" d="M142,109.71a2.62,2.62,0,0,1-2.39-3.69c3-6.61,7.85-24.63,4-38.14-2.3-8.16-12.3-34.78-44.71-34.78h-.85a2.62,2.62,0,0,1,0-5.23h.87c36.09,0,47.21,29.54,49.75,38.6,4.52,16.08-1.75,36-4.31,41.69A2.62,2.62,0,0,1,142,109.71Z"/><path class="cls-3" d="M54.16,109.71a2.62,2.62,0,0,1-2.39-1.55c-2.56-5.7-8.83-25.61-4.31-41.69,2.55-9.06,13.66-38.6,49.75-38.6h.87A2.62,2.62,0,1,1,98,33.1h-.82c-32.41,0-42.42,26.62-44.71,34.78-3.8,13.51,1.09,31.53,4,38.14a2.62,2.62,0,0,1-2.39,3.69Z"/><path d="M148.49,107.56a20.06,20.06,0,0,0-4.94-2.54c-2-.66-5.57-.93-6.38.34a2.57,2.57,0,0,0-.13.28c-.42,1.48,2.24,3.32,4.62,4.26l.29.11.24.09.07,0a14.18,14.18,0,0,1,3.17,1.67c2.74,2,3.76,4.69,3.22,8.53-.68,4.87-2.77,6.28-4.29,6.92-2.1.89-4.81.91-7.44.93H136a2.62,2.62,0,0,0-2.57,2.43c-.73,10-4,17.68-10.14,24.15-5.65,5.91-15.29,9.59-25.14,9.59S78.65,160.68,73,154.76c-6.19-6.47-9.41-14.14-10.14-24.15a2.62,2.62,0,0,0-2.57-2.43h-.92c-2.63,0-5.34,0-7.44-.93-1.52-.64-3.61-2.05-4.29-6.92-.54-3.84.49-6.55,3.22-8.53A14.18,14.18,0,0,1,54,110.13l.07,0,.24-.09.29-.11c2.38-.94,5-2.78,4.62-4.26a2.57,2.57,0,0,0-.13-.28c-.82-1.27-4.34-1-6.38-.34a20.06,20.06,0,0,0-4.94,2.54c-4.29,3.1-6.14,7.77-5.34,13.49.78,5.56,3.28,9.26,7.44,11a21.43,21.43,0,0,0,8,1.33c1.15,10,4.88,18.22,11.35,25s17.69,11.2,28.93,11.2,22.32-4.29,28.93-11.2,10.2-15,11.35-25a21.43,21.43,0,0,0,8-1.33c4.16-1.76,6.66-5.46,7.44-11C154.63,115.33,152.78,110.66,148.49,107.56Z"/><circle class="cls-3" cx="82.76" cy="108.49" r="2.44"/><path class="cls-3" d="M82.76,112.86a4.37,4.37,0,1,1,4.37-4.37A4.37,4.37,0,0,1,82.76,112.86Zm0-4.87a.5.5,0,1,0,.5.5A.5.5,0,0,0,82.76,108Z"/><circle class="cls-3" cx="113.03" cy="108.49" r="2.44"/><path class="cls-3" d="M113,112.86a4.37,4.37,0,1,1,4.37-4.37A4.37,4.37,0,0,1,113,112.86Zm0-4.87a.5.5,0,1,0,.5.5A.5.5,0,0,0,113,108Z"/><path class="cls-3" d="M86.94,88.56c0-.06,0-.12,0-.18-.19-.85-1.15-1.29-2.28-1.51h0c-.29-.05-.6-.09-.9-.12a10.63,10.63,0,0,0-2.7.06l-.38.06h0c-1.46.25-3,.8-3.25,1.74a2,2,0,0,0,.1.93c.71,1.41,3.49,1.13,5.87.95s3.48-1,3.59-1.6a2,2,0,0,0,0-.21S86.95,88.59,86.94,88.56Z"/><path d="M80.63,90.94c-1.55,0-2.91-.25-3.42-1.27a2.23,2.23,0,0,1-.13-1.1c.39-1.3,2.36-1.81,3.49-2l.4-.06a11,11,0,0,1,2.77-.06c.31,0,.62.07.93.12l.08,0c1.42.26,2.26.84,2.46,1.72,0,.08,0,.15,0,.22h0s0,.09,0,.14,0,.16,0,.24c-.14.8-1.23,1.68-3.87,1.88l-.32,0C82.25,90.88,81.42,90.94,80.63,90.94ZM82.58,87a10,10,0,0,0-1.52.11l-.38.06c-1.66.28-2.82.87-3,1.53a2.35,2.35,0,0,0,0,.28,1.68,1.68,0,0,0,.1.45c.58,1.14,3.06.95,5.25.78l.32,0c2.47-.19,3.25-1,3.32-1.36,0,0,0-.09,0-.15v-.1c0-.05,0-.1,0-.15-.17-.76-1.2-1.11-2-1.26a9,9,0,0,0-.9-.12A11,11,0,0,0,82.58,87Z"/><path class="cls-3" d="M109.16,88.56c0-.06,0-.12,0-.18.19-.85,1.15-1.29,2.28-1.51h0c.29-.05.6-.09.9-.12a10.63,10.63,0,0,1,2.7.06l.38.06h0c1.46.25,3,.8,3.25,1.74a2,2,0,0,1-.1.93c-.71,1.41-3.49,1.13-5.87.95s-3.48-1-3.59-1.6a2,2,0,0,1,0-.21S109.16,88.59,109.16,88.56Z"/><path d="M115.46,90.94c-.78,0-1.61-.06-2.4-.12l-.32,0c-2.64-.2-3.73-1.09-3.87-1.85a2.38,2.38,0,0,1,0-.28s0-.09,0-.14h0c0-.07,0-.14,0-.2.2-.89,1-1.47,2.52-1.75.33-.06.65-.1,1-.13a11.05,11.05,0,0,1,2.77.06l.39.06c1.15.19,3.11.7,3.49,2a2.18,2.18,0,0,1,0,.5,2.29,2.29,0,0,1-.13.62C118.39,90.68,117,90.94,115.46,90.94Zm-6-2.36v.1a1.77,1.77,0,0,0,0,.18c.07.35.85,1.14,3.32,1.32l.32,0c2.19.17,4.67.36,5.26-.81a1.72,1.72,0,0,0,.08-.42,1.67,1.67,0,0,0,0-.33c-.19-.62-1.34-1.2-3-1.48l-.38-.06a10.48,10.48,0,0,0-2.63-.06c-.3,0-.59.06-.88.11-.86.16-1.89.51-2.07,1.28C109.48,88.48,109.47,88.53,109.46,88.58Z"/><path class="cls-3" d="M56.57,120.55c2.49-.59,3.34-1.84,3.09-2.88a1.92,1.92,0,0,0-.1-.26c-.45-.76-2.13-1-3.46-.71l-.58.15h0c-2.54.82-3.29,2-3.08,2.85a1.91,1.91,0,0,0,.07.19C52.88,120.67,54,121.15,56.57,120.55Z"/><path class="cls-3" d="M139.86,120.55c-2.49-.59-3.34-1.84-3.09-2.88a1.92,1.92,0,0,1,.1-.26c.45-.76,2.13-1,3.46-.71l.58.15h0c2.54.82,3.29,2,3.08,2.85a1.91,1.91,0,0,1-.07.19C143.55,120.67,142.39,121.15,139.86,120.55Z"/><path class="cls-3" d="M102.19,116.27a6.51,6.51,0,0,0-8.58,0,8.13,8.13,0,0,0-2.17,6.51c.28,1.17.89,2,1.52,2a1.6,1.6,0,0,0,1.18-.79,7.42,7.42,0,0,0,.72-1.81h0a7.73,7.73,0,0,1,.73-2l0,0,0-.05h0a2.49,2.49,0,0,1,4.57.06,7.63,7.63,0,0,1,.75,2.06h0a7.43,7.43,0,0,0,.72,1.81,1.6,1.6,0,0,0,1.18.79c.62,0,1.24-.86,1.52-2A8.13,8.13,0,0,0,102.19,116.27Z"/><path class="cls-3" d="M97.92,151.13c-4.89,0-8.41-4.24-9.24-8.22s.35-6.32,1.45-7.68,3.44-3.11,7.79-3.11c3.45,0,6.26,1.21,7.91,3.41a8.61,8.61,0,0,1,1.1,7.75h0C105.8,147.19,102.57,151.13,97.92,151.13Zm0-14.18c-1.35,0-3.15.23-4,1.33a4.51,4.51,0,0,0-.47,3.65c.45,2.15,2.25,4.37,4.51,4.37,2,0,3.74-2.2,4.37-4.37h0a4,4,0,0,0-.32-3.5C101.26,137.48,99.82,137,97.92,137Zm6.69,5.65h0Z"/><path d="M106.71,51.38a2.39,2.39,0,0,0-.33,0c-1.33.08-2.25,1.83-2.62,3.19l-.09.35h0A21.92,21.92,0,0,1,88.59,70.81h0c-1.65.48-2.17,1.59-1.58,2.47l0,0a1.84,1.84,0,0,0,.26.3c1.06,1,3.37,1.77,7.17,0a26.53,26.53,0,0,0,13.14-15.18l0-.05c.23-.67.42-1.28.57-1.82C108.79,53.92,108.06,51.58,106.71,51.38Z"/><path d="M120.23,42.57h-.31l-.16,0c-1.53.33-1.87,2.5-1.63,4.83,0,.3.09.62.14,1h0c.65,5.41.57,17-10.93,22h0c-1.9.82-2.92,1.56-3.13,2.46,0,0,0,.09,0,.13a1.63,1.63,0,0,0,0,.25s0,.09,0,.14c.11,1.13,1.71,3.28,7.45.29,10.7-6,12.43-17.56,11.53-25.5C122.71,44.89,121.56,42.73,120.23,42.57Z"/><path d="M92.26,46.77h0a.86.86,0,0,0-.31-.11h-.27l-.08,0c-1.23.28-2,2.58-2.5,4.31h0C87.89,55.73,83.8,66.86,70.9,70.7c-1.06.28-2.51.37-2.62,1.82h0c-.19,1.13,2.4,4.29,10.35.13C88,67.41,91.88,58.55,93.39,53.39l0-.14s0-.1,0-.14.06-.27.08-.41v-.07C94.11,49.69,93.49,47.33,92.26,46.77Z"/><path class="cls-4" d="M107.26,228.39c-3-4-3-7.32-.36-9.46s6.72-1.28,10,2.91,4,10.85-1.68,12.13C111.15,234.92,111.35,233.79,107.26,228.39Z"/><path class="cls-3" d="M113.17,236.6c-2.71,0-3.93-1.51-6-4.39-.49-.68-1.06-1.48-1.76-2.4h0c-5.5-7.25-1.37-11.53,0-12.67a7.39,7.39,0,0,1,5.53-1.6c2.78.3,5.55,2,7.8,4.87,2.72,3.43,3.73,7.79,2.57,11.1a7.33,7.33,0,0,1-5.55,4.75A11.93,11.93,0,0,1,113.17,236.6ZM109.11,227c.73,1,1.33,1.79,1.84,2.5a12.24,12.24,0,0,0,2,2.42c.1.06.48.11,1.83-.19a2.66,2.66,0,0,0,2.2-1.75c.62-1.75-.15-4.56-1.82-6.66a7.61,7.61,0,0,0-4.66-3.14,2.73,2.73,0,0,0-2.09.58c-1.64,1.33-1.39,3.44.74,6.25Z"/><path class="cls-4" d="M92.35,264.59c-7.09.32-.23,6.05-8.33,2.94-1.74-.67-1.16.51-3.53-.75-5.22-2.77-12.13,4-6,10.54,3.08,3.32,6.84,5,12,6.42,15.06,4.26,28.48-1.85,34.28-5.7,4.67-3.1,8.63-8.08,7.38-15.43-1.94-11.42-12.41-12.22-21-9.52C101.88,254.72,92.35,264.59,92.35,264.59Z"/><path class="cls-3" d="M96.89,287.5A40.62,40.62,0,0,1,85.8,286c-5.29-1.5-9.54-3.27-13.06-7.07-4.2-4.53-3.33-9.2-1.32-11.83a8.05,8.05,0,0,1,10.15-2.35,5.63,5.63,0,0,0,.7.33,4.44,4.44,0,0,1,2.57.31c.72.28,1.25.45,1.64.57.44-1.53,1.56-3.17,4.8-3.58,2.37-2.39,10.11-9.91,15.1-11.48,4-1.24,11.48-2.78,17.43.86,3.53,2.16,5.74,5.69,6.56,10.49,1.2,7.06-1.77,13.37-8.38,17.75A47.76,47.76,0,0,1,96.89,287.5Zm-19-19a3.66,3.66,0,0,0-2.82,1.44c-1.26,1.63-.88,3.76,1,5.83,2.79,3,6.25,4.44,10.91,5.76,16.18,4.58,29.8-3.69,32.36-5.4,5.13-3.41,7.27-7.81,6.37-13.1-.58-3.42-2.06-5.87-4.4-7.3-3.2-2-8.16-2.1-13.61-.39-3.8,1.19-11.22,8.28-13.76,10.9a2.33,2.33,0,0,1-1.57.71,4.09,4.09,0,0,0-1.5.26c0,.1-.05.26-.07.38a3.6,3.6,0,0,1-1.65,2.78c-1.48.85-3.34.41-6.05-.63l-.16-.06a5.12,5.12,0,0,1-3.62-.81A3.1,3.1,0,0,0,77.93,268.46Zm14.42-3.87h0Z"/><path class="cls-4" d="M80.81,229.51c5.07-5.35,12-7.08,17.11-7.79s9.27-.44,11.13,3.64,0,6.21,0,6.21a4.65,4.65,0,0,1,4.75,4.31,5.61,5.61,0,0,1-2.34,5.58,4.26,4.26,0,0,1,3.47,3.88c.49,4.59-1.42,5.29-2.41,5.85,1.28.78,2.76,6.64-2.26,8.33-5.32,8.05-19.78,12.48-28.57,7.77C67.62,258.28,75.27,235.37,80.81,229.51Z"/><path class="cls-3" d="M90.11,271.51a20.16,20.16,0,0,1-9.51-2.16l-.16-.09c-5-3.2-8.07-8.34-8.86-14.86-1.29-10.56,3.65-22.36,7.55-26.49h0c4.35-4.59,10.39-7.37,18.48-8.49,3.18-.44,10.63-1.48,13.57,5a9.85,9.85,0,0,1,1,5.51,7,7,0,0,1,4,5.65,8.22,8.22,0,0,1-1,5.25,6.58,6.58,0,0,1,2.09,4.28c.38,3.51-.46,5.49-1.63,6.71a9,9,0,0,1,.42,3.82,7,7,0,0,1-4.26,5.8C107.24,267.68,98.26,271.51,90.11,271.51Zm-7.23-6.22c7.51,4,20.56.35,25.45-7a2.32,2.32,0,0,1,1.2-.92,2.49,2.49,0,0,0,1.77-1.64,3.85,3.85,0,0,0-.22-2.67,2.33,2.33,0,0,1,.3-3.84l.25-.14c.67-.36,1.29-.71,1-3.45a1.88,1.88,0,0,0-1.48-1.83,2.33,2.33,0,0,1-.87-4.3,3.31,3.31,0,0,0,1.23-3.27c-.32-2.28-2-2.32-2.33-2.3a2.36,2.36,0,0,1-2.33-1.33,2.18,2.18,0,0,1,.42-2.49c.14-.24.72-1.45-.33-3.76-.93-2-2.7-3.13-8.69-2.3-7,1-12.14,3.29-15.74,7.09-2.89,3.05-7.47,13.25-6.31,22.72C76.82,259,79.07,262.82,82.87,265.29Zm28.43-12.11h0Z"/><path class="cls-4" d="M114.84,258.16c-1.59-.08-4-.13-5.77,1.23-3.74,2.91-6.9,3.16-8.91,2.78S94.95,262,94,264.67s.14,10.3,13.74,6.42"/><path d="M110.89,232.67a2.14,2.14,0,0,0-1.23-3.15l.06-.83s-2.51-2.39-2.18-.66-.33,1.86-1.24,2.15h0l-1.34.42c-1.34.42-3.07,1.5-2.64,3.07a1.68,1.68,0,0,0,.2.44l.06.1c.72,1,2.42.87,3.69.48h0l1.3-.4c.76-.23,2.84-.78,3.4.26s.63-1.5.63-1.5Z"/><path class="cls-3" d="M113,242.76a2.14,2.14,0,0,0-2.12-3.4l-3.69.72c-1.8.4-3.32,1.15-3.08,2.79a2.13,2.13,0,0,0,.21.57c.66,1.07,2.58,1.07,3.34.92l1.75-.34h0c1.31-.26,2.82-.35,3.11.88s1-1.54,1-1.54Z"/><path d="M114.65,250.92a2.15,2.15,0,0,0-2.41-1.85l-4.64.61c-1.29.17-3.31,1-3.14,2.58a2.15,2.15,0,0,0,.08.36l0,.09.05.12c.53,1.06,2.12,1.3,3.22,1.15h0l5-.65A2.15,2.15,0,0,0,114.65,250.92Z"/><path d="M115,255.84c-1.56-.08-4.81-.23-7.31,1.71-3.12,2.43-5.56,2.61-7.06,2.33-3.43-.64-7.47.36-8.77,4a8,8,0,0,0,1.7,7.81c1.75,1.86,4.28,2.8,7.56,2.8a24.9,24.9,0,0,0,5.71-.76c2.22-.7,3.48-2.34,3.13-3.46l-.06-.15c-.57-1.24-2.35-1.34-4.52-.82-4.07.91-7.09.64-8.43-.78a3.35,3.35,0,0,1-.71-3.07c.45-1.27,2.7-1.15,3.53-1,2.43.45,6.28.26,10.76-3.23,1.14-.89,3.23-.79,4.23-.74a2.33,2.33,0,0,0,.23-4.65Z"/><circle class="cls-5" cx="147.35" cy="224.75" r="1.77" transform="translate(-120.44 202.13) rotate(-51.92)"/><path class="cls-5" d="M148.4,222l1.38,1.08a.54.54,0,0,0,.74-.07l6.25-7.26a.54.54,0,0,0-.08-.78l-2.07-1.62a.54.54,0,0,0-.77.11l-5.56,7.8A.54.54,0,0,0,148.4,222Z"/><path class="cls-6" d="M162.64,217.08a5.89,5.89,0,0,0-6.52-8.68,7.86,7.86,0,0,0-14.49,5.43,7.87,7.87,0,0,0-.94,14.32h0l-6,10.12,10.93-5.81h0a5.21,5.21,0,0,0,9.52-1.82,7.86,7.86,0,0,0,7.51-13.55Z"/></g></g></svg>