<svg xmlns="http://www.w3.org/2000/svg" viewBox="0 0 77.52 61.13"><defs><style>.cls-1{fill:#fff;}.cls-2{fill:#ee5ba0;}.cls-3{fill:#231f20;}</style></defs><title>logo_hands</title><g id="レイヤー_2" data-name="レイヤー 2"><g id="レイヤー_1-2" data-name="レイヤー 1"><path class="cls-1" d="M57.69,26.75a1.44,1.44,0,0,1-1.24-2.17l2.9-4.89a6.13,6.13,0,0,1,1-9.8A6.13,6.13,0,0,1,71.12,6,4.86,4.86,0,0,1,74.4,7,5,5,0,0,1,76,12.35a6.12,6.12,0,0,1-5.27,10.07,4.5,4.5,0,0,1-.4.6,4.55,4.55,0,0,1-6.39.72l-.11-.09-5.51,2.94A1.44,1.44,0,0,1,57.69,26.75Z"/><circle class="cls-2" cx="65.23" cy="17.26" r="1.06" transform="translate(11.42 57.98) rotate(-51.93)"/><path class="cls-2" d="M65.86,15.62l.82.64a.32.32,0,0,0,.44,0l3.72-4.33a.32.32,0,0,0,0-.46l-1.23-1a.32.32,0,0,0-.46.07l-3.31,4.65A.32.32,0,0,0,65.86,15.62Z"/><path class="cls-3" d="M57.69,26.75a1.44,1.44,0,0,1-1.24-2.17l2.9-4.89a6.13,6.13,0,0,1,1-9.8A6.13,6.13,0,0,1,71.12,6,4.86,4.86,0,0,1,74.4,7,5,5,0,0,1,76,12.35a6.12,6.12,0,0,1-5.27,10.07,4.5,4.5,0,0,1-.4.6,4.55,4.55,0,0,1-6.39.72l-.11-.09-5.51,2.94A1.44,1.44,0,0,1,57.69,26.75Zm6.51-6.34a1.44,1.44,0,0,1,1.22.67,1.65,1.65,0,0,0,.37.41,1.67,1.67,0,0,0,2.34-.27,1.64,1.64,0,0,0,.33-.73,1.44,1.44,0,0,1,1.88-1.1,3.25,3.25,0,0,0,3.1-5.59A1.44,1.44,0,0,1,73.1,12a2.08,2.08,0,0,0-.5-2.67,2.06,2.06,0,0,0-1.8-.39,1.44,1.44,0,0,1-1.59-.66,3.25,3.25,0,0,0-6,2.24,1.44,1.44,0,0,1-.92,1.6A3.25,3.25,0,0,0,61.94,18a1.44,1.44,0,0,1,.56,2l-1,1.61,2-1A1.43,1.43,0,0,1,64.2,20.41Z"/><path class="cls-1" d="M38.16,11.06c-2.76-3.64-2.72-6.7-.33-8.65S44,1.25,47,5.08s3.82,10.48-1.35,11.65C41.9,17.59,41.9,16,38.16,11.06Z"/><path class="cls-3" d="M44.05,18.33c-2.44,0-3.49-1.5-5.14-3.86-.52-.74-1.11-1.58-1.85-2.56h0C33.93,7.78,33.89,3.84,37,1.34A6,6,0,0,1,41.46,0,10.25,10.25,0,0,1,48.1,4.22c2.37,3,3.32,7.11,2.29,10A5.87,5.87,0,0,1,46,18.08,8.71,8.71,0,0,1,44.05,18.33ZM40.74,2.77a3.15,3.15,0,0,0-2,.72c-2.33,1.9-1,4.71.56,6.74h0c.78,1,1.41,1.92,1.91,2.65,2,2.82,2.09,3,4.18,2.51a3.08,3.08,0,0,0,2.42-2.06c.7-2-.09-5.17-1.85-7.39a7.58,7.58,0,0,0-4.77-3.15Z"/><path class="cls-1" d="M24.2,44.45c-5.58.41-9.16,4-12.41,0C9.15,41.27,7,40.13,5,40.11c-3.11,0-5.9,2.74-.85,10.32,2.56,3.84,5.59,6.21,14.56,8.23,13.79,3.1,23.6-1.18,28.14-4.26C52,50.9,54.8,46.83,54.36,41c-.65-8.69-12.09-8.26-18.81-5.93C31.49,36.44,24.2,44.45,24.2,44.45Z"/><path class="cls-3" d="M28.16,61.13A44.19,44.19,0,0,1,18.43,60C9,57.89,5.74,55.27,3,51.2.13,46.85-.69,43.45.59,41.09A4.75,4.75,0,0,1,5,38.72H5c2.62,0,5.11,1.57,7.82,4.86,1.52,1.84,2.84,1.54,5.95.61a26.05,26.05,0,0,1,4.74-1.08c1.66-1.78,7.68-8,11.56-9.39,5.26-1.82,12.51-2.38,16.86.48a8.39,8.39,0,0,1,3.78,6.66c.44,6-2.13,10.63-8.09,14.67A34.85,34.85,0,0,1,28.16,61.13ZM5,41.49a2.18,2.18,0,0,0-2,.92c-1.05,1.94,1.5,6,2.31,7.26C7.7,53.22,10.47,55.38,19,57.31c14.28,3.21,23.68-1.77,27.06-4.06C51.23,49.77,53.35,46,53,41.07a5.58,5.58,0,0,0-2.54-4.55c-3.54-2.33-10-1.72-14.43-.18-3.06,1.06-8.83,6.88-10.79,9a1.38,1.38,0,0,1-.92.45,21.77,21.77,0,0,0-4.71,1c-3,.9-6.13,1.83-8.87-1.5-2.12-2.58-4-3.84-5.71-3.86Zm19.23,3h0Z"/><path class="cls-1" d="M14.9,10.42c4.6-4,10.07-5.55,14.72-6.2s8.3.52,10,4.26,0,5.68,0,5.68A4.25,4.25,0,0,1,44,18.1c.56,4-2.32,5.1-2.32,5.1A4,4,0,0,1,45,26.75c.45,4.2-1.29,4.83-2.2,5.35,1.17.72,2.52,6.07-2.06,7.62-4.87,7.37-18.08,11.42-26.13,7.11C1.72,38.59,9.35,15.29,14.9,10.42Z"/><path class="cls-3" d="M22.33,50A17.79,17.79,0,0,1,13.94,48L13.85,48c-4.5-2.88-7.13-7.76-7.61-14.12a37.57,37.57,0,0,1,2.1-14.6C9.86,14.84,12,11.14,14,9.38h0c4-3.5,9-5.64,15.44-6.53,7.11-1,10.15,2.2,11.44,5.06a7.93,7.93,0,0,1,.7,5.18,5.57,5.57,0,0,1,3.75,4.82,6.43,6.43,0,0,1-1.11,4.92,5.19,5.19,0,0,1,2.15,3.78c.35,3.27-.5,4.9-1.63,5.87a7.18,7.18,0,0,1,.53,3.6,5.66,5.66,0,0,1-3.64,4.79C37.65,46.49,29.62,50,22.33,50Zm-7-4.32C22.45,49.43,34.91,46,39.57,39a1.38,1.38,0,0,1,.71-.55,3,3,0,0,0,2.15-2.2,4.11,4.11,0,0,0-.43-3,1.38,1.38,0,0,1,.1-2.34l.21-.12c.76-.42,1.62-.89,1.3-3.88a2.6,2.6,0,0,0-2.18-2.33,1.39,1.39,0,0,1-1.17-1.21,1.38,1.38,0,0,1,.85-1.44c.17-.08,1.85-.9,1.46-3.62a2.84,2.84,0,0,0-2.92-2.75,1.4,1.4,0,0,1-1.3-.79,1.38,1.38,0,0,1,.2-1.5s1.05-1.41-.22-4.2S34.15,5,29.8,5.59c-5.84.81-10.42,2.73-14,5.87h0C12.64,14.24,8.31,24.51,9,33.66,9.42,39.18,11.54,43.2,15.3,45.63ZM42.06,33.28h0ZM42,33.22Z"/><path class="cls-1" d="M45.38,38.89s-4.72-2.92-9.3-.61S29.41,41,27.66,40.55,22.93,39.76,22,42s.23,9.64,14.83,6.66"/><path d="M46.11,37.71c-.22-.14-5.44-3.3-10.65-.67C31,39.29,29.27,39.53,28,39.21c-3.64-.92-6.3-.08-7.31,2.29a6.16,6.16,0,0,0,1.11,6c1.32,1.62,3.88,3.25,8.85,3.25a26.91,26.91,0,0,0,2.84-.16l.2,0L35,50.43c1.86-.37,3.27-1.19,3.12-2a1.39,1.39,0,0,0-.08-.25l0,0,0-.09c-.39-.63-1.44-.69-2.93-.44h0C27.73,48.84,25,47,23.94,45.79a3.46,3.46,0,0,1-.71-3.2c.6-1.41,3.06-1,4.09-.69,2.27.57,4.82-.07,9.39-2.38,3.79-1.92,7.89.51,8,.55a1.38,1.38,0,0,0,1.45-2.36Z"/><path d="M43,22.89a1.38,1.38,0,0,0-1.66-1L33.9,23.53c-1.48.34-3.55,1.06-3.31,2.17s2,1,3.31.67h0l8-1.82A1.38,1.38,0,0,0,43,22.89Z"/><path d="M40.94,13.77a1.38,1.38,0,0,0-1.71-.94l-7.76,2.25h0a7.8,7.8,0,0,0-2,.89c-.75.52-1,1.55-.13,1.88a3,3,0,0,0,.44.09h.09a14.7,14.7,0,0,0,3.84-.63L40,15.49A1.38,1.38,0,0,0,40.94,13.77Z"/><path d="M44.16,32a1.38,1.38,0,0,0-1.52-1.23l-8.13.86c-1.85.2-3.3.62-3.29,1.74a1.37,1.37,0,0,0,.12.42c.43.71,2,.75,3.54.58l8.05-.85A1.38,1.38,0,0,0,44.16,32Z"/></g></g></svg>