<svg xmlns="http://www.w3.org/2000/svg" viewBox="0 0 221.11 214.51"><defs><style>.cls-1{isolation:isolate;}.cls-2{fill:#231f20;}.cls-3,.cls-6{fill:#ee5ba0;}.cls-4,.cls-5{fill:#00b8f1;}.cls-4,.cls-6{mix-blend-mode:multiply;}</style></defs><title>logo_title</title><g class="cls-1"><g id="レイヤー_2" data-name="レイヤー 2"><g id="レイヤー_1-2" data-name="レイヤー 1"><path class="cls-2" d="M15,198.54a5.71,5.71,0,0,1-1.85,4.3,5.49,5.49,0,0,1-3.89,1.62H4.22V213a1.07,1.07,0,0,1-1.08,1.08,1.08,1.08,0,0,1-.78-.32A1,1,0,0,1,2,213V193.7a1,1,0,0,1,.33-.76,1.09,1.09,0,0,1,.78-.31H9.58a5.15,5.15,0,0,1,3.8,1.64A5.92,5.92,0,0,1,15,198.54Zm-2.21,0a3.73,3.73,0,0,0-1-2.63,3.33,3.33,0,0,0-2.53-1.11H4.22v7.51H9.1a3.56,3.56,0,0,0,2.62-1.14A3.63,3.63,0,0,0,12.84,198.54Z"/><path class="cls-2" d="M48.75,212.47a1.06,1.06,0,0,1,.18.6,1.07,1.07,0,0,1-1.08,1.08,1.06,1.06,0,0,1-.93-.48l-6.1-9.24H36.49v8.76a1.08,1.08,0,1,1-2.15,0V193.7a1.07,1.07,0,0,1,1.08-1.08H42.8a5.21,5.21,0,0,1,3.74,1.52,5.75,5.75,0,0,1,1.76,4.37,5.56,5.56,0,0,1-1.5,3.92,6.33,6.33,0,0,1-3.47,1.88Zm-2.69-14a3.78,3.78,0,0,0-1-2.65,3.32,3.32,0,0,0-2.56-1.09h-6v7.51h5.8a3.89,3.89,0,0,0,3.77-3.77Z"/><path class="cls-2" d="M85.18,202.85a12.26,12.26,0,0,1-2.69,8.08,8.39,8.39,0,0,1-13.37-.12,13.45,13.45,0,0,1,.06-16,8.42,8.42,0,0,1,13.29,0A12.14,12.14,0,0,1,85.18,202.85Zm-2.3,0a10.69,10.69,0,0,0-1.79-6.07,6,6,0,0,0-5.23-3.05,6.11,6.11,0,0,0-5.26,3.05,11.17,11.17,0,0,0,0,12.14A6.11,6.11,0,0,0,75.85,212a6,6,0,0,0,5.23-3.05A10.7,10.7,0,0,0,82.87,202.85Z"/><path class="cls-2" d="M115.65,207.21a7.06,7.06,0,0,1-1.85,4.93,6.15,6.15,0,0,1-4.75,2,6.24,6.24,0,0,1-4.52-1.74,7.28,7.28,0,0,1-2-4.31,1,1,0,0,1,.22-.81,1.09,1.09,0,0,1,.73-.42,1.07,1.07,0,0,1,.81.21,1,1,0,0,1,.42.72,5,5,0,0,0,1.44,3,4,4,0,0,0,3,1.19,3.93,3.93,0,0,0,3.14-1.5,5,5,0,0,0,1.2-3.32V192.59a1,1,0,0,1,.34-.76,1.14,1.14,0,0,1,.79-.32,1.08,1.08,0,0,1,.78.32,1,1,0,0,1,.33.76Z"/><path class="cls-2" d="M149,212.54a1.07,1.07,0,0,1-1.08,1.08H137a1.07,1.07,0,0,1-1.08-1.08V193.22a1.07,1.07,0,0,1,1.08-1.08h10.71a1.08,1.08,0,0,1,.78.32,1,1,0,0,1,.33.76,1.12,1.12,0,0,1-1.11,1.11h-9.57v7.18h8.31a1.08,1.08,0,0,1,.78.32,1,1,0,0,1,0,1.52,1.09,1.09,0,0,1-.78.32h-8.31v7.78h9.78a1,1,0,0,1,.76.33A1.09,1.09,0,0,1,149,212.54Z"/><path class="cls-2" d="M185.12,209q-2.81,5.17-8,5.17a8.49,8.49,0,0,1-7-3.62,12.89,12.89,0,0,1,0-15.37,8.49,8.49,0,0,1,7-3.62q4.75,0,7.63,4.54a1,1,0,0,1,.18.57,1.12,1.12,0,0,1-.33.79,1,1,0,0,1-.78.34,1,1,0,0,1-.93-.54,6.62,6.62,0,0,0-5.77-3.5,6.3,6.3,0,0,0-5.35,3,11,11,0,0,0,0,12.2,6.31,6.31,0,0,0,5.35,3q3.89,0,6-4a1.07,1.07,0,0,1,1-.57,1,1,0,0,1,.76.31,1.08,1.08,0,0,1,.31.79A1.13,1.13,0,0,1,185.12,209Z"/><path class="cls-2" d="M219.18,193.79a1.07,1.07,0,0,1-1.08,1.08h-6.31v18.51a1.1,1.1,0,0,1-.33.81,1.07,1.07,0,0,1-.78.33,1.12,1.12,0,0,1-1.14-1.13V194.86h-6.49a1.08,1.08,0,1,1,0-2.15h15a1.07,1.07,0,0,1,1.08,1.08Z"/><path class="cls-2" d="M12.09,2.63a.4.4,0,0,1-.45.45H.45A.4.4,0,0,1,0,2.63a.4.4,0,0,1,.45-.45H7.28L8.52.41a.49.49,0,0,1,.42-.2.42.42,0,0,1,.48.48.51.51,0,0,1-.1.3l-.86,1.2h3.18A.4.4,0,0,1,12.09,2.63ZM5.87,10.89a1.48,1.48,0,0,1-.5,1.24,1.59,1.59,0,0,1-1,.26A.46.46,0,0,1,4,12.26.41.41,0,0,1,3.9,12,.43.43,0,0,1,4,11.64a.45.45,0,0,1,.33-.14q.35,0,.46-.14a.83.83,0,0,0,.1-.48V9.53H1.79V12a.46.46,0,0,1-.14.33.46.46,0,0,1-.33.14A.47.47,0,0,1,1,12.3.46.46,0,0,1,.82,12V5.51a1.3,1.3,0,0,1,.4-1,1.39,1.39,0,0,1,1-.39H4.45a1.41,1.41,0,0,1,1,.39,1.29,1.29,0,0,1,.41,1ZM4.93,6.5v-1a.42.42,0,0,0-.48-.46H2.25a.41.41,0,0,0-.46.46v1Zm0,2.17V7.36H1.79V8.67Zm-.61-7.4a.48.48,0,0,1,.08.27Q4.4,2,3.94,2a.43.43,0,0,1-.37-.19L2.94.94A.48.48,0,0,1,2.85.67.4.4,0,0,1,3.3.22.44.44,0,0,1,3.67.4ZM8.57,9.91a.47.47,0,0,1-.46.46.43.43,0,0,1-.32-.14.46.46,0,0,1-.13-.33V5.05a.46.46,0,0,1,.13-.33.43.43,0,0,1,.32-.14.47.47,0,0,1,.46.46Zm2.78.9a1.6,1.6,0,0,1-.55,1.35,1.79,1.79,0,0,1-1.13.31.46.46,0,0,1-.33-.13A.42.42,0,0,1,9.21,12a.47.47,0,0,1,.46-.46.82.82,0,0,0,.57-.15.87.87,0,0,0,.15-.6V4.6a.42.42,0,0,1,.14-.32.5.5,0,0,1,.67,0,.42.42,0,0,1,.14.32Z"/><path class="cls-2" d="M21.28,3.06a.37.37,0,0,1-.42.42h-1V5a.4.4,0,0,1,.25-.08.39.39,0,0,1,.34.19l.71,1.08a.43.43,0,0,1,.07.23.37.37,0,0,1-.42.42.4.4,0,0,1-.35-.19l-.59-.93v6.25a.44.44,0,0,1-.87,0V5.75a24.88,24.88,0,0,1-1.24,3,.39.39,0,0,1-.38.23A.37.37,0,0,1,17,8.57a.39.39,0,0,1,0-.18,26.29,26.29,0,0,0,1.83-4.91H17.54a.37.37,0,0,1-.41-.42.37.37,0,0,1,.41-.42H19v-2A.43.43,0,0,1,19.1.34a.43.43,0,0,1,.63,0,.43.43,0,0,1,.14.31v2h1A.37.37,0,0,1,21.28,3.06ZM29,6a.43.43,0,0,1-.23-.07A10.46,10.46,0,0,1,26,3.28H24.32A14.33,14.33,0,0,1,22,5.76a.38.38,0,0,1-.26.1.37.37,0,0,1-.41-.42.4.4,0,0,1,.14-.31,13.88,13.88,0,0,0,1.8-1.84H21.95a.35.35,0,0,1-.4-.4.35.35,0,0,1,.4-.4h1.92q.3-.44.61-1-1,0-1.75,0a.36.36,0,0,1-.41-.41.36.36,0,0,1,.41-.4A44.51,44.51,0,0,0,27.42.48a.46.46,0,0,1,.31.1.37.37,0,0,1,.16.27.39.39,0,0,1-.11.3.49.49,0,0,1-.29.16,17,17,0,0,1-2,.15,9,9,0,0,1-.59,1h3.92a.35.35,0,0,1,.4.4.35.35,0,0,1-.4.4H27.07a10.94,10.94,0,0,0,2.16,1.94.39.39,0,0,1,.18.34A.36.36,0,0,1,29,6Zm-.05,5a1.39,1.39,0,0,1-.45,1.16,1.57,1.57,0,0,1-1,.27.37.37,0,0,1-.42-.42.38.38,0,0,1,.42-.44.94.94,0,0,0,.38-.05q.19-.1.19-.52V8.56a.43.43,0,0,0-.48-.49H22.86a.43.43,0,0,0-.49.49V12a.44.44,0,0,1-.87,0V8.56a1.29,1.29,0,0,1,1.34-1.34h4.75a1.32,1.32,0,0,1,1,.38,1.29,1.29,0,0,1,.38,1Zm-2-5.35q0,1-1.05,1H24.47q-1.05,0-1.05-1V5.08q0-1,1.05-1h1.41q1.05,0,1.05,1Zm-.11,4.68a1,1,0,0,1-1,1H24.5a1,1,0,0,1-1-1V9.72A1,1,0,0,1,23.76,9a1,1,0,0,1,.74-.29h1.28a1,1,0,0,1,1,1Zm-.67-4.68V5.08q0-.19-.27-.19H24.47q-.27,0-.27.19v.57q0,.19.27.19h1.41Q26.15,5.84,26.15,5.65ZM26,10.33V9.72a.22.22,0,0,0-.25-.25H24.5a.22.22,0,0,0-.25.25v.61a.22.22,0,0,0,.25.25h1.28A.22.22,0,0,0,26,10.33Z"/><path class="cls-2" d="M45,2.28a.44.44,0,0,1-.46.5L43,2.88a5.73,5.73,0,0,0-2.2,1.9,4.63,4.63,0,0,0-1.12,2.66q0,2.63,3.4,3.06a.46.46,0,0,1,.45.5.45.45,0,0,1-.18.36.51.51,0,0,1-.4.12,5.57,5.57,0,0,1-3-1.16,3.54,3.54,0,0,1-1.26-2.87A4.85,4.85,0,0,1,39.49,5a8.17,8.17,0,0,1,1.72-2q-2.18.16-5.76.61a.47.47,0,0,1-.39-.13.49.49,0,0,1-.17-.38.46.46,0,0,1,.45-.5q5.21-.57,9.17-.78a.44.44,0,0,1,.35.12A.5.5,0,0,1,45,2.28Zm-.67,4.07a.37.37,0,0,1,.07.22.4.4,0,0,1-.74.22q-.4-.61-.78-1.13a.38.38,0,0,1-.08-.23.36.36,0,0,1,.41-.4.38.38,0,0,1,.31.16Q44,5.83,44.35,6.35Zm1.6-.67A.37.37,0,0,1,46,5.9a.36.36,0,0,1-.41.4.38.38,0,0,1-.34-.19q-.38-.6-.78-1.11a.38.38,0,0,1-.1-.26.36.36,0,0,1,.41-.41.39.39,0,0,1,.31.15A11.87,11.87,0,0,1,45.95,5.68Z"/><path class="cls-2" d="M55,.93q-.5,1.26-1.35,2.92.4,0,.4.42V12a.39.39,0,0,1-.45.44.39.39,0,0,1-.44-.44V4.7q-.55,1-1.17,2a.4.4,0,0,1-.37.21.44.44,0,0,1-.31-.13.42.42,0,0,1-.14-.32.41.41,0,0,1,.07-.22A38.1,38.1,0,0,0,54.11.59a.44.44,0,0,1,.45-.27A.39.39,0,0,1,55,.76.5.5,0,0,1,55,.93Zm8.37,4.15a.39.39,0,0,1-.44.44H59.77V11h2.85a.44.44,0,1,1,0,.87H55.9a.44.44,0,0,1,0-.87h2.95V5.51H55.64a.39.39,0,0,1-.45-.44.47.47,0,0,1,.45-.45h3.19V1A.44.44,0,0,1,59,.63a.47.47,0,0,1,.33-.14.45.45,0,0,1,.33.14.45.45,0,0,1,.14.33V4.63H62.9A.39.39,0,0,1,63.34,5.08Z"/><path class="cls-2" d="M80.41,8.26a.36.36,0,0,1-.41.41H79v.52a1.2,1.2,0,0,1-.3.82,1,1,0,0,1-.78.34H74.76v.79a1.29,1.29,0,0,1-.39,1.08,2,2,0,0,1-1.19.3.44.44,0,0,1-.31-.13.41.41,0,0,1-.14-.31.47.47,0,0,1,.45-.45,1.76,1.76,0,0,0,.52,0q.18-.08.18-.45v-.79H69.55a.37.37,0,0,1-.42-.41.42.42,0,0,1,.42-.42h4.33V8.67H68.5a.36.36,0,0,1-.41-.41.37.37,0,0,1,.41-.42h5.38V7H69.55a.37.37,0,0,1-.42-.41.37.37,0,0,1,.42-.41h4.33V5.41H70.54a.86.86,0,0,1-.64-.27.89.89,0,0,1-.26-.65v-.7a.89.89,0,0,1,.26-.65.86.86,0,0,1,.64-.27h3.33V2.17h-5a.36.36,0,0,1-.41-.41.36.36,0,0,1,.41-.41h5V.59A.43.43,0,0,1,74,.27a.43.43,0,0,1,.31-.14.45.45,0,0,1,.32.14.42.42,0,0,1,.14.31v.76h5a.36.36,0,0,1,.41.41.36.36,0,0,1-.41.41h-5v.71h3a.91.91,0,0,1,.91.91v.7a.91.91,0,0,1-.91.91h-3V6.2H78a1,1,0,0,1,.78.34,1.2,1.2,0,0,1,.3.82v.48h1A.37.37,0,0,1,80.41,8.26ZM73.87,4.59V3.7H70.54c-.05,0-.08,0-.08.1v.7q0,.1.08.1Zm4-.1v-.7a.08.08,0,0,0-.1-.1h-3v.89h3A.08.08,0,0,0,77.86,4.49Zm.35,3.34V7.36c0-.23-.09-.34-.26-.34H74.76v.82Zm0,1.35V8.67H74.76v.85H78C78.13,9.51,78.21,9.41,78.21,9.19Z"/><path class="cls-2" d="M95,10.52a.48.48,0,0,1-.45.52,15.75,15.75,0,0,1-3,.29,9.51,9.51,0,0,1-2.29-.25,3.12,3.12,0,0,1-1.49-.79,2.1,2.1,0,0,1-.61-1.53,3.16,3.16,0,0,1,.66-1.86,12.76,12.76,0,0,1,1.35-1.46,33.51,33.51,0,0,0-2.1-3.22.47.47,0,0,1-.11-.3.53.53,0,0,1,.15-.38.48.48,0,0,1,.35-.16.51.51,0,0,1,.44.23A34.15,34.15,0,0,1,90,4.81q1.16-.91,3.58-2.48a.5.5,0,0,1,.29-.08q.52,0,.52.49a.53.53,0,0,1-.25.46Q91.55,4.9,90.68,5.58q-2.44,1.92-2.43,3.18,0,1,1.34,1.34a8.39,8.39,0,0,0,2,.21A15.62,15.62,0,0,0,94.4,10a.57.57,0,0,1,.44.1A.44.44,0,0,1,95,10.52Z"/><path class="cls-2" d="M113,6.42a.4.4,0,0,1-.46.45h-4.65V10.8a1.53,1.53,0,0,1-.63,1.41,2.28,2.28,0,0,1-1.23.27.47.47,0,0,1-.33-.14.44.44,0,0,1-.14-.33.49.49,0,0,1,.48-.48,1.57,1.57,0,0,0,.68-.1.72.72,0,0,0,.23-.64V6.87h-5.05a.4.4,0,0,1-.46-.45.47.47,0,0,1,.14-.33.44.44,0,0,1,.33-.14H107V4.23a.45.45,0,0,1,.14-.34.47.47,0,0,1,.33-.14.43.43,0,0,1,.27.1l2.5-2h-6.81a.43.43,0,0,1-.32-.14.46.46,0,0,1-.13-.33.46.46,0,0,1,.13-.33.43.43,0,0,1,.32-.14h7.37a.85.85,0,0,1,.57.2.61.61,0,0,1,.23.48.74.74,0,0,1-.33.59l-3.34,2.69V5.94h4.65a.44.44,0,0,1,.33.14A.47.47,0,0,1,113,6.42Z"/><path class="cls-2" d="M129.95,1.8a.44.44,0,0,1-.44.44H122.7q-.65.93-1.19,1.57l5.31-.31-.26-.23a.43.43,0,0,1-.15-.33.41.41,0,0,1,.15-.32.51.51,0,0,1,.34-.13.42.42,0,0,1,.26.08l2.38,2a.39.39,0,0,1,.14.33q0,.48-.44.48a.43.43,0,0,1-.3-.11l-1.17-1-9.27.56a.38.38,0,0,1-.45-.4.44.44,0,0,1,.1-.32.41.41,0,0,1,.29-.16l1.88-.11q.67-.81,1.24-1.6h-3.24a.44.44,0,0,1-.31-.13.41.41,0,0,1-.14-.31.39.39,0,0,1,.14-.3.46.46,0,0,1,.31-.12h5.21V.46a.43.43,0,0,1,.14-.33A.47.47,0,0,1,124,0a.45.45,0,0,1,.33.14.45.45,0,0,1,.14.33v.91h5A.38.38,0,0,1,129.95,1.8ZM128.45,11a1.44,1.44,0,0,1-.4,1.13,1.81,1.81,0,0,1-1.22.35.41.41,0,0,1-.31-.14.44.44,0,0,1-.13-.31.39.39,0,0,1,.44-.44,1,1,0,0,0,.55-.11q.16-.11.16-.49v-.76h-7.07v1.83a.42.42,0,0,1-.14.31.47.47,0,0,1-.33.14.47.47,0,0,1-.45-.45V7a1.39,1.39,0,0,1,.37-1,1.37,1.37,0,0,1,1-.37h6.16a1.36,1.36,0,0,1,1,.37,1.38,1.38,0,0,1,.37,1Zm-.92-3.48V7a.55.55,0,0,0-.11-.4.56.56,0,0,0-.4-.11H121a.56.56,0,0,0-.4.11.56.56,0,0,0-.11.4v.55Zm0,1.87v-1h-7.07v1Z"/><path class="cls-2" d="M145.75,2.44a.45.45,0,0,1-.48.52l-1.53.1a5.33,5.33,0,0,0-2.17,1.83,4.64,4.64,0,0,0-1.13,2.72q0,2.62,3.37,3a.56.56,0,0,1,.33.18.48.48,0,0,1,.14.34.46.46,0,0,1-.18.37.54.54,0,0,1-.42.12,5.65,5.65,0,0,1-3-1.16,3.55,3.55,0,0,1-1.26-2.88,4.82,4.82,0,0,1,.76-2.5,8.2,8.2,0,0,1,1.69-2q-3.11.23-5.94.59a.51.51,0,0,1-.42-.14.48.48,0,0,1,0-.73.58.58,0,0,1,.34-.18q4.57-.5,9.39-.75a.47.47,0,0,1,.36.13A.51.51,0,0,1,145.75,2.44Z"/><path class="cls-2" d="M162,6.46a4.63,4.63,0,0,1-.79,2.68,5,5,0,0,1-2.8,1.94h-.12a.46.46,0,0,1-.49-.46q0-.36.48-.53a3.65,3.65,0,0,0,1.93-1.37,3.74,3.74,0,0,0,.73-2.26,3.14,3.14,0,0,0-.9-2.29,3.85,3.85,0,0,0-2.25-1,23.39,23.39,0,0,1-1,3.43,9.63,9.63,0,0,1-1.64,3.1,2.25,2.25,0,0,1-1.69.82,1.82,1.82,0,0,1-1.64-1,3.59,3.59,0,0,1-.5-1.92,5.14,5.14,0,0,1,1.76-3.89,5.66,5.66,0,0,1,4-1.62,5.12,5.12,0,0,1,3.41,1.16A4,4,0,0,1,162,6.46Zm-5.25-3.39a4.75,4.75,0,0,0-3.07,1.45,4.19,4.19,0,0,0-1.31,3.06,2.93,2.93,0,0,0,.23,1.16q.31.71.86.71a1.31,1.31,0,0,0,1-.46,8.34,8.34,0,0,0,1.43-2.81A22.56,22.56,0,0,0,156.76,3.07Z"/><path class="cls-2" d="M179.46,7.51a.37.37,0,0,1-.42.42h-5.21V9.42h4.08a.38.38,0,0,1,.44.42.44.44,0,0,1-.44.44h-4.07v1.88a.43.43,0,0,1-.14.31.46.46,0,0,1-.66,0,.43.43,0,0,1-.14-.31V10.28h-4a.38.38,0,0,1-.42-.44.37.37,0,0,1,.42-.42h4V7.93h-5.15a.38.38,0,0,1-.44-.42.44.44,0,0,1,.44-.44h6.81l1.13-1.79a.45.45,0,0,1,.41-.22.4.4,0,0,1,.45.46.43.43,0,0,1-.07.23l-.85,1.31H179A.38.38,0,0,1,179.46,7.51Zm-.26-3.08a.38.38,0,0,1-.44.42H168a.37.37,0,0,1-.42-.42A.37.37,0,0,1,168,4h4.89V2.5h-3.29a.37.37,0,0,1-.42-.42.37.37,0,0,1,.42-.42h3.28V.51A.43.43,0,0,1,173,.19a.46.46,0,0,1,.66,0,.43.43,0,0,1,.14.31V1.65h3.39a.38.38,0,0,1,.44.42.38.38,0,0,1-.44.42h-3.4V4h4.94A.38.38,0,0,1,179.2,4.42Zm-7.67,1.84a.41.41,0,0,1,.07.22.43.43,0,0,1-.14.32.46.46,0,0,1-.33.13.4.4,0,0,1-.37-.21l-.59-.94a.45.45,0,0,1-.07-.25.39.39,0,0,1,.45-.44.4.4,0,0,1,.37.2Z"/><path class="cls-2" d="M195.43,4.63a.49.49,0,0,1-.14.34.44.44,0,0,1-.34.15l-2.18.07a10,10,0,0,1-.05,1.64,1.64,1.64,0,0,1-1.34,1.52.49.49,0,0,1-.37-.07.46.46,0,0,1-.21-.31.49.49,0,0,1,.07-.37.47.47,0,0,1,.31-.21.73.73,0,0,0,.56-.7,8.78,8.78,0,0,0,0-1.45l-4.05.19q-.05,1-.05,1.58a6.75,6.75,0,0,0,.27,2.25,1.6,1.6,0,0,0,.82.93,3.18,3.18,0,0,0,1.23.26,25.5,25.5,0,0,0,3.82-.14.44.44,0,0,1,.36.11.53.53,0,0,1,.18.34.45.45,0,0,1-.1.36.5.5,0,0,1-.33.18,25.88,25.88,0,0,1-4,.12,3.14,3.14,0,0,1-2.65-1.19,5.78,5.78,0,0,1-.63-3.1q0-.49.05-1.67-.72.07-2.16.15a.45.45,0,0,1-.52-.45.48.48,0,0,1,.12-.36.47.47,0,0,1,.33-.17l2.28-.14L186.91,2a.53.53,0,0,1,.55-.48.53.53,0,0,1,.35.17.46.46,0,0,1,.14.36q-.06.85-.16,2.42,2.37-.14,3.95-.19,0-.29-.15-2.72a.47.47,0,0,1,.13-.36.5.5,0,0,1,.35-.17.47.47,0,0,1,.36.13.5.5,0,0,1,.17.35q.08,1.42.14,2.74l2.21-.07a.5.5,0,0,1,.35.13A.43.43,0,0,1,195.43,4.63Z"/><path class="cls-2" d="M209.9,5.73a.46.46,0,0,1-.31.46q-1.64.66-2.63,1.17a9.16,9.16,0,0,1,.23,2,.51.51,0,0,1-.14.35.44.44,0,0,1-.34.15.49.49,0,0,1-.35-.14.45.45,0,0,1-.14-.34,8.26,8.26,0,0,0-.15-1.54A7,7,0,0,0,204.54,9a1.46,1.46,0,0,0-.47.92.78.78,0,0,0,.48.7,4.22,4.22,0,0,0,1.94.33,15.67,15.67,0,0,0,2.29-.21.48.48,0,0,1,.36.09.46.46,0,0,1,.18.32.5.5,0,0,1-.09.37.45.45,0,0,1-.32.19,16.33,16.33,0,0,1-2.43.19,6.38,6.38,0,0,1-2-.25,1.77,1.77,0,0,1-1.42-1.73,2.27,2.27,0,0,1,.7-1.54,8.42,8.42,0,0,1,2-1.46,1.22,1.22,0,0,0-1.15-.76,2.5,2.5,0,0,0-1.86.6A14.34,14.34,0,0,1,201.6,8a.46.46,0,0,1-.34.14.47.47,0,0,1-.35-.14.46.46,0,0,1-.14-.33.49.49,0,0,1,.15-.35,14.62,14.62,0,0,0,2.7-3.67q-.93,0-1.9-.11a.43.43,0,0,1-.33-.17.51.51,0,0,1-.11-.36.44.44,0,0,1,.17-.33.51.51,0,0,1,.36-.11q1.15.11,2.25.11A11.52,11.52,0,0,0,204.7.87a.51.51,0,0,1,.85-.22.5.5,0,0,1,.14.35,6.54,6.54,0,0,1-.53,1.65,8.46,8.46,0,0,0,2-.3l.16,0a.49.49,0,0,1,.48.48.46.46,0,0,1-.34.48,10.25,10.25,0,0,1-2.72.35,17.38,17.38,0,0,1-.92,1.64,3.47,3.47,0,0,1,.81-.11,2.15,2.15,0,0,1,2,1.28q1.15-.59,2.61-1.17a.39.39,0,0,1,.18,0,.5.5,0,0,1,.36.14A.46.46,0,0,1,209.9,5.73Z"/><path class="cls-2" d="M218.07,10.44a2.12,2.12,0,0,1-2.13,2.13,2.08,2.08,0,0,1-1.52-.62,2,2,0,0,1-.63-1.51,2.14,2.14,0,0,1,2.14-2.14,2,2,0,0,1,1.51.63A2.08,2.08,0,0,1,218.07,10.44Zm-.67,0a1.43,1.43,0,0,0-.43-1,1.43,1.43,0,0,0-2.06,0,1.43,1.43,0,0,0-.43,1,1.46,1.46,0,0,0,2.92,0Z"/><path class="cls-3" d="M24.26,55.74q0-.72-.1-3.56,0-2.12,0-3.61a1.52,1.52,0,0,1,.58-1.18,1.92,1.92,0,0,1,1.3-.5,1.72,1.72,0,0,1,1.73,1.73q0,4.47,0,6.88l.1,3.51.29,11.78a20.28,20.28,0,0,1,8.66,6.3,1.67,1.67,0,0,1,.34,1.06,1.49,1.49,0,0,1-1.68,1.68,1.6,1.6,0,0,1-1.35-.63,17.59,17.59,0,0,0-5.82-4.67v1.35A6.25,6.25,0,0,1,26,81a7.92,7.92,0,0,1-5.34,1.73,9.45,9.45,0,0,1-5.53-1.54,5.66,5.66,0,0,1-2.5-5,5.78,5.78,0,0,1,2.84-5.05,10.17,10.17,0,0,1,5.82-1.68,18.76,18.76,0,0,1,3.37.34q-.19-5.92-.29-10.58Zm.58,20.15q0-.82,0-2.6a14.61,14.61,0,0,0-3.46-.43,7.24,7.24,0,0,0-3.37.77,2.93,2.93,0,0,0-1.88,2.65q0,3.17,4.62,3.17Q24.83,79.45,24.83,75.89Z"/><path class="cls-3" d="M73.22,53.57,75,46.84a1.7,1.7,0,0,1,1.88-1.3,1.72,1.72,0,0,1,1.73,1.73,2.52,2.52,0,0,1,0,.48l-1.49,5.58-1,3.61-6.93,25.2a1.61,1.61,0,0,1-1.73,1.3,1.81,1.81,0,0,1-1.83-1.83,2.22,2.22,0,0,1,0-.43q2.36-8.32,6.73-24Z"/><path class="cls-4" d="M72.35,57.13a60,60,0,0,1-6.54,0,1.68,1.68,0,0,1-1.2-.6,1.7,1.7,0,0,1-.43-1.27q.14-1.78,2.12-1.63a61.87,61.87,0,0,0,6.93,0c.7,0,2.78-.12,3.85-.24a67.92,67.92,0,0,0,7.36-1,1.68,1.68,0,0,1,1.32.26,1.73,1.73,0,0,1,.75,1.13A1.68,1.68,0,0,1,86.23,55a1.72,1.72,0,0,1-1.13.75,72.09,72.09,0,0,1-9,1.15C74.91,57,73.34,57.1,72.35,57.13Z"/><path class="cls-5" d="M100.58,80.46a1.85,1.85,0,0,1-.31,1.32,1.56,1.56,0,0,1-1.13.7,41.77,41.77,0,0,1-7,.58Q85,83.06,82,80.65A5.65,5.65,0,0,1,79.71,76a7.3,7.3,0,0,1,.14-1.44,1.64,1.64,0,0,1,.75-1.11,1.73,1.73,0,0,1,1.32-.24,1.56,1.56,0,0,1,1.08.75,1.8,1.8,0,0,1,.22,1.32,3,3,0,0,0-.1.72,2.42,2.42,0,0,0,1,1.92q2,1.64,7.7,1.63A41.46,41.46,0,0,0,98.56,79a1.85,1.85,0,0,1,1.32.31A1.56,1.56,0,0,1,100.58,80.46Z"/><path class="cls-5" d="M98.81,63.14q-.29.82-1.49.82a1,1,0,0,1-.34,0A14.64,14.64,0,0,0,91.35,63a48.33,48.33,0,0,0-6.11.48A1.64,1.64,0,0,1,84,63.14,1.69,1.69,0,0,1,83.32,62a1.63,1.63,0,0,1,.34-1.27,1.7,1.7,0,0,1,1.15-.65,55.51,55.51,0,0,1,6.78-.48q4.62,0,6.54,1.2a1.72,1.72,0,0,1,.82,1.54A2.58,2.58,0,0,1,98.81,63.14Z"/><path class="cls-3" d="M157.1,72.62a11.07,11.07,0,0,1-1.73,5.87q-3.61,5.44-14.57,6.69a1.59,1.59,0,0,1-1.27-.36,1.78,1.78,0,0,1-.65-1.18,1.52,1.52,0,0,1,.36-1.25,1.83,1.83,0,0,1,1.18-.63q13-1.44,13-9.19a5.08,5.08,0,0,0-2.45-4.52,9.24,9.24,0,0,0-5.15-1.35q-7.5,0-14.53,7.17a2.12,2.12,0,0,1-1.49.72A1.72,1.72,0,0,1,128,72.86a98.4,98.4,0,0,1,1.83-18.57,1.73,1.73,0,0,1,.75-1.13,1.68,1.68,0,0,1,1.32-.26,1.91,1.91,0,0,1,1.18.75,1.59,1.59,0,0,1,.31,1.32,107.72,107.72,0,0,0-1.68,13.9q7-5.63,14.14-5.63a12.76,12.76,0,0,1,7.74,2.36A8,8,0,0,1,157.1,72.62Z"/><path class="cls-5" d="M148.73,52.56a1.69,1.69,0,0,1,.29,1,1.64,1.64,0,0,1-.53,1.23,1.81,1.81,0,0,1-1.3.5,1.71,1.71,0,0,1-1.49-.77,5.91,5.91,0,0,0-1.4-1.2,43.85,43.85,0,0,0-8.22-4.38,1.78,1.78,0,0,1-.63-2.93,1.77,1.77,0,0,1,1.3-.53,1.69,1.69,0,0,1,.67.14Q146.95,49.68,148.73,52.56Z"/><path class="cls-5" d="M204,59.87q-1.35-2.36-2.84-4.86l-1.78-2.93q-1.06-1.68-2.79-4.33a1.62,1.62,0,0,1-.29-.91A1.47,1.47,0,0,1,198,45.2a1.67,1.67,0,0,1,1.49.72q1.39,2.07,3.37,5.44l1.68,2.89q.77,1.3,2.74,4.81l1.64,2.89,2.65,5A48.39,48.39,0,0,1,213.9,72a1.69,1.69,0,0,1,.14.67,1.63,1.63,0,0,1-.48,1.2,1.57,1.57,0,0,1-1.15.48,1.82,1.82,0,0,1-.72-.14,27.42,27.42,0,0,0-11.3-2.41,13.38,13.38,0,0,0-5,.82q-2.84,1.15-2.84,3.75t3.7,3.75a18.22,18.22,0,0,0,5.68.82,35.92,35.92,0,0,0,5.72-.48,1.75,1.75,0,0,1,1.25.29,1.48,1.48,0,0,1,.67,1.06,1.68,1.68,0,0,1-.31,1.25,1.55,1.55,0,0,1-1.08.67,39.2,39.2,0,0,1-6.25.53,20.43,20.43,0,0,1-8.22-1.44q-4.52-2-4.52-6.45,0-4.81,4.91-6.78a17.1,17.1,0,0,1,6.35-1.06,31.82,31.82,0,0,1,8.8,1.3q-1.54-3.17-3.61-7Z"/><path class="cls-3" d="M5.35,121.35a121.76,121.76,0,0,0-1.78,18.71q0,7.5,1.59,10.87a1.92,1.92,0,0,1,.19.87,1.65,1.65,0,0,1-1.54,1.83,1.68,1.68,0,0,1-1.88-1.2Q0,148.23,0,140.06a125.66,125.66,0,0,1,1.83-19.24,1.75,1.75,0,0,1,.7-1.11,2,2,0,0,1,1.27-.48,1.41,1.41,0,0,1,1.25.65A1.94,1.94,0,0,1,5.35,121.35Z"/><path class="cls-5" d="M24.26,126.88q0-.72-.1-3.56,0-2.12,0-3.61a1.52,1.52,0,0,1,.58-1.18A1.92,1.92,0,0,1,26,118a1.72,1.72,0,0,1,1.73,1.73q0,4.47,0,6.88l.1,3.51.29,11.78a20.28,20.28,0,0,1,8.66,6.3,1.67,1.67,0,0,1,.34,1.06A1.49,1.49,0,0,1,35.42,151a1.6,1.6,0,0,1-1.35-.63,17.59,17.59,0,0,0-5.82-4.67V147a6.25,6.25,0,0,1-2.21,5.1,7.92,7.92,0,0,1-5.34,1.73,9.45,9.45,0,0,1-5.53-1.54,5.66,5.66,0,0,1-2.5-5,5.78,5.78,0,0,1,2.84-5.05,10.17,10.17,0,0,1,5.82-1.68,18.76,18.76,0,0,1,3.37.34q-.19-5.92-.29-10.58ZM24.83,147q0-.82,0-2.6a14.61,14.61,0,0,0-3.46-.43,7.24,7.24,0,0,0-3.37.77,2.93,2.93,0,0,0-1.88,2.65q0,3.17,4.62,3.17Q24.83,150.59,24.83,147Z"/><path class="cls-3" d="M90.63,152.95a1.72,1.72,0,0,1,.39,1.11,1.85,1.85,0,0,1-.53,1.32,1.73,1.73,0,0,1-1.3.55,1.69,1.69,0,0,1-1.44-.72A90,90,0,0,0,74.47,141.5q-4.38-3.7-4.38-6.73t4-6.35q5-4.33,5.19-4.47Q83,120.58,86.35,117a1.8,1.8,0,0,1,1.4-.58,1.81,1.81,0,0,1,1.83,1.83,1.8,1.8,0,0,1-.48,1.25,97.77,97.77,0,0,1-7.36,7.17q-2.65,2.21-5.29,4.47t-2.64,3.61q0,1.35,3.08,3.94A92.32,92.32,0,0,1,90.63,152.95Z"/><path class="cls-5" d="M96.3,130.25a1.53,1.53,0,0,1,.19.77q0,1.4-1.35,1.4a1.36,1.36,0,0,1-1.2-.67q-1.11-1.68-2.74-3.94a1.41,1.41,0,0,1-.29-.87,1.23,1.23,0,0,1,1.4-1.4,1.33,1.33,0,0,1,1.11.58A40.57,40.57,0,0,1,96.3,130.25Z"/><path class="cls-5" d="M101.69,127.79a1.29,1.29,0,0,1,.24.77,1.28,1.28,0,0,1-1.44,1.44,1.36,1.36,0,0,1-1.2-.67q-1.35-2.12-2.74-3.9a1.34,1.34,0,0,1-.34-.91,1.28,1.28,0,0,1,1.44-1.44,1.32,1.32,0,0,1,1.06.53A43,43,0,0,1,101.69,127.79Z"/><path class="cls-5" d="M151.66,153.33a1.92,1.92,0,0,1,.38,1.15,1.73,1.73,0,0,1-.55,1.3,1.85,1.85,0,0,1-1.32.53,1.82,1.82,0,0,1-1.49-.72,88.34,88.34,0,0,0-13.23-13.71Q131,138.13,131,135.1t4-6.35a164.79,164.79,0,0,0,12.26-11.4,1.9,1.9,0,0,1,1.4-.58,1.81,1.81,0,0,1,1.88,1.88,1.86,1.86,0,0,1-.48,1.3,169.34,169.34,0,0,1-12.6,11.64q-2.69,2.31-2.69,3.51t3.08,3.94A96,96,0,0,1,151.66,153.33Z"/><path class="cls-3" d="M193.17,123.75l0-6.59a1.54,1.54,0,0,1,.5-1.15,1.71,1.71,0,0,1,1.23-.48,1.75,1.75,0,0,1,1.25.51,1.58,1.58,0,0,1,.53,1.18l-.14,6.4-.1,3.37-.14,8.32a6.84,6.84,0,0,1,.58,4.47,64.93,64.93,0,0,0-.91,7.31,5.46,5.46,0,0,0,.67,3.08q1.1,1.59,5.77,1.59,7.41,0,9.67-4.38a8.61,8.61,0,0,0,.82-4.47,1.6,1.6,0,0,1,.46-1.23,1.77,1.77,0,0,1,1.23-.6,1.63,1.63,0,0,1,1.25.43,1.73,1.73,0,0,1,.58,1.2,12.22,12.22,0,0,1-1.2,6.3q-3.08,6-12.79,6-6.64,0-8.61-3a8,8,0,0,1-1.2-3.8,6.34,6.34,0,0,1-1.92.29q-6.73,0-6.73-7.07a9.57,9.57,0,0,1,2.07-6.06,6.75,6.75,0,0,1,5.53-2.84,6.28,6.28,0,0,1,1.4.19l.14-5.63Zm-.19,12.6a2.13,2.13,0,0,0-1.4-.43,3.71,3.71,0,0,0-3.17,1.88,6.59,6.59,0,0,0-1.06,3.66q0,3.7,3.37,3.7,2.16,0,2.16-2.26Q192.88,141.41,193,136.35Z"/><path class="cls-5" d="M220.92,131.74a1.44,1.44,0,0,1,.19.72,1.89,1.89,0,0,1-.55,1.35,1.72,1.72,0,0,1-1.27.58,1.64,1.64,0,0,1-1.49-1,35,35,0,0,0-5.24-7,1.63,1.63,0,0,1-.48-1.2,1.72,1.72,0,0,1,1.73-1.73,1.63,1.63,0,0,1,1.2.48A32.15,32.15,0,0,1,220.92,131.74Z"/><path class="cls-4" d="M24.4,59.25q-5.53.34-10.68.29A1.51,1.51,0,0,1,12,57.81a1.72,1.72,0,0,1,1.73-1.73q4.71,0,10.48-.34l3.46-.24q4.42-.38,6.83-.72a1.79,1.79,0,0,1,1.4.41,1.74,1.74,0,0,1-.87,3.05q-2.69.38-7.26.77Z"/><path class="cls-6" d="M201.15,55a44,44,0,0,1-8.61.91,21.07,21.07,0,0,1-4.86-.43,1.43,1.43,0,0,1-1.2-1.54,1.6,1.6,0,0,1,.6-1.28,1.47,1.47,0,0,1,1.37-.31,19,19,0,0,0,4.09.38,40.72,40.72,0,0,0,6.83-.67c.95-.15,2.19-.4,3.46-.72a59.8,59.8,0,0,0,6.78-2.07,1.83,1.83,0,0,1,.58-.1,1.38,1.38,0,0,1,1.54,1.59,1.46,1.46,0,0,1-1,1.49q-3.13,1.15-6.2,2C203.49,54.49,202.28,54.8,201.15,55Z"/><path class="cls-6" d="M205.63,62.86a49,49,0,0,1-11.11,1.49,18.37,18.37,0,0,1-5.53-.72A1.54,1.54,0,0,1,187.83,62,1.61,1.61,0,0,1,190,60.55a14.91,14.91,0,0,0,4.52.58A45,45,0,0,0,204,59.87c1.06-.26,2.49-.6,3.27-.82q3.56-1,6.54-2a1.42,1.42,0,0,1,.53-.1,1.5,1.5,0,0,1,1.13.48,1.62,1.62,0,0,1,.46,1.15,1.42,1.42,0,0,1-1.06,1.49q-2.79.91-6,1.83C207.91,62.23,206.58,62.64,205.63,62.86Z"/><path class="cls-5" d="M5.35,50.21A121.76,121.76,0,0,0,3.57,68.92q0,7.5,1.59,10.87a1.92,1.92,0,0,1,.19.87,1.65,1.65,0,0,1-1.54,1.83,1.68,1.68,0,0,1-1.88-1.2Q0,77.09,0,68.92A125.66,125.66,0,0,1,1.84,49.68a1.75,1.75,0,0,1,.7-1.11,2,2,0,0,1,1.27-.48,1.41,1.41,0,0,1,1.25.65A1.94,1.94,0,0,1,5.35,50.21Z"/><path class="cls-6" d="M24.4,130.39q-5.53.34-10.68.29A1.51,1.51,0,0,1,12,128.95a1.72,1.72,0,0,1,1.73-1.73q4.71,0,10.48-.34c1.42-.06,2.76-.18,3.46-.24q4.42-.38,6.83-.72a1.79,1.79,0,0,1,1.4.41,1.74,1.74,0,0,1-.87,3.05q-2.69.38-7.26.77Z"/><path class="cls-4" d="M193.12,127.12q-4.38.19-7.45.19a1.67,1.67,0,0,1-1.23-.51,1.63,1.63,0,0,1,0-2.36,1.67,1.67,0,0,1,1.23-.5q3.22,0,7.5-.19c.78,0,2.68-.09,3.42-.14l8.42-.67a1.68,1.68,0,0,1,1.23.41,1.61,1.61,0,0,1,.6,1.18,1.68,1.68,0,0,1-.41,1.25,1.59,1.59,0,0,1-1.13.58q-5.39.43-8.8.63C195.43,127,193.77,127.09,193.12,127.12Z"/></g></g></g></svg>