<svg xmlns="http://www.w3.org/2000/svg" viewBox="0 0 135.87103 33.10309"><defs><style>.cls-1{fill:#fff;}</style></defs><title>アセット 7</title><g id="レイヤー_2" data-name="レイヤー 2"><g id="レイヤー_1-2" data-name="レイヤー 1"><path class="cls-1" d="M-288.06949-1682.27692h-1.80486v4.51887h-4.49757v1.80692h4.49757v4.51685h1.80486v-4.51685h4.4994v-1.80692h-4.4994Zm17.40066,1.06313a4.49134,4.49134,0,0,0-3.28632-1.32888c-3.38545.00468-5.06437,2.67888-5.07,5.75066.00568,3.07625,1.70288,5.80732,5.11272,5.81342a4.105,4.105,0,0,0,3.24365-1.27605v1.02819h2.1539v-15.1338h-2.1539Zm-2.9958,8.28263c-2.12952-.00224-3.08682-1.79046-3.10021-3.73428.01828-2.055.75656-3.92425,2.99865-3.92608,2.27375.00489,3.14024,1.78293,3.16015,3.841C-270.62292-1674.79171-271.46317-1672.93116-273.66463-1672.93116Zm12.56221-9.61151c-3.02628.00468-5.21207,2.46454-5.21675,5.75207.08533,3.32026,1.80284,5.82663,5.32035,5.8114h.03291a4.49966,4.49966,0,0,0,4.72348-3.79077l.04855-.24257H-258.334l-.03514.15745a2.36671,2.36671,0,0,1-2.56856,1.92333,2.91135,2.91135,0,0,1-3.12318-3.10227h7.97951l.0061-.19543c.00326-.105.00651-.21515.00651-.32629C-256.07523-1679.13647-257.32751-1682.53982-261.10242-1682.54267Zm-2.93241,4.5577a2.801,2.801,0,0,1,2.8286-2.60694,2.85079,2.85079,0,0,1,2.85419,2.60694Zm15.86923.21067c-1.67484-.37421-3.40029-.65864-3.32858-1.65494.00183-.86953,1.02069-1.15841,2.06594-1.16309,1.12816.014,2.16753.39292,2.27885,1.61086l.01525.18366h2.14882l-.012-.21251c-.13631-2.72783-2.19819-3.55775-4.57253-3.53337-1.90136.00306-4.1739.92316-4.18447,3.23513.003,2.20083,1.9225,2.82881,3.64489,3.20771,1.79857.3868,3.38343.65864,3.33,1.78494-.00183,1.132-1.28215,1.37866-2.378,1.38475-1.42132-.01687-2.6102-.45366-2.66993-1.866l-.00732-.19239h-2.15349l.00751.209c.09691,2.74022,2.24351,3.80073,4.64851,3.80133l.07233-.0006c2.19311-.00327,4.73119-.85734,4.73729-3.56222C-244.52375-1676.76093-246.42187-1677.39216-248.1656-1677.7743Zm6.21894-6.03649h2.15837v-2.54946h-2.15837Zm0,12.58395h2.15837v-11.06674h-2.15837Zm12.679-9.97578a3.763,3.763,0,0,0-2.99439-1.34005c-3.83789.0061-5.128,3.26744-5.13426,5.83416.0063,2.97323,1.66593,5.60172,4.97012,5.60782a3.92821,3.92821,0,0,0,3.15853-1.46742v.02681c-.026,2.35707-.83073,3.82693-2.99439,3.84074-1.12855.00123-2.52121-.45691-2.56244-1.5434l-.01261-.18854h-2.15146l.00915.2117c.12027,2.48261,2.55716,3.32389,4.58145,3.32389h.03312a5.06271,5.06271,0,0,0,3.8832-1.38209,5.75158,5.75158,0,0,0,1.26894-4.05549v-9.96011h-2.055Zm-3.05595,8.14937c-2.1411-.00489-2.79689-1.966-2.81071-3.85884.01667-2.00316.84738-3.67516,2.955-3.67982,2.05495.00466,2.81518,1.77764,2.83043,3.61664C-229.3609-1675.01212-230.17495-1673.05814-232.32359-1673.05325Zm16.445-8.32429a3.7031,3.7031,0,0,0-3.04355-1.16552,3.94464,3.94464,0,0,0-3.30968,1.532v-1.28356h-2.05151v11.06776h2.15633v-6.22423c.01991-1.852.93821-3.125,2.95557-3.14045a1.805,1.805,0,0,1,1.96436,1.94424v7.42044h2.15756v-7.213A4.53114,4.53114,0,0,0-215.87857-1681.37754Z" transform="translate(350 1700)"/><path class="cls-1" d="M-348.6181-1698.52059v-1.3492h.78989v1.3492h.8228l.06583-.03252.49327.49369-.75779,1.18422a2.38633,2.38633,0,0,1-.39454.49388,8.02029,8.02029,0,0,0,1.11861,1.15171c-.06582.06522-.13125.13551-.19728.21353-.06481.0778-.17534.20316-.3281.3795q-.395-.39557-.85694-.92275v3.29119h-.78927v-3.06041a5.35248,5.35248,0,0,1-.8876.72508,3.9153,3.9153,0,0,0-.46078-.65924c.08738-.06584.19728-.14242.32851-.23121.13227-.08775.25214-.16841.362-.24642a1.70973,1.70973,0,0,0,.23059-.18122,7.177,7.177,0,0,0,.8232-.82139q.19625-.26359.37748-.50994c.12066-.16474.24582-.34577.37827-.543h-2.17158v-.72467Zm3.58619,1.31668v-2.63195h.85571v2.63195h1.77723v.72365h-1.77723v3.22557h2.04054v.72345h-5.101v-.72345h2.20471v-3.22557h-1.6454v-.72365Z" transform="translate(350 1700)"/><path class="cls-1" d="M-336.44271-1699.9675l.85529.29661-.13164.16456a10.96611,10.96611,0,0,0,1.61309,1.51213,12.967,12.967,0,0,0,1.97228,1.08568c-.06459.06563-.13044.13206-.19665.19848-.06583.06481-.12108.12048-.16375.164a1.864,1.864,0,0,0-.19666.36366,10.64753,10.64753,0,0,1-1.54768-.92378v.65927h-4.079v-.5591a9.89328,9.89328,0,0,1-1.3177.85509,5.6533,5.6533,0,0,0-.42623-.65783,7.55876,7.55876,0,0,0,1.184-.72386q.62471-.49367,1.25086-1.05277A13.783,13.783,0,0,0-336.44271-1699.9675Zm-3.22517,5.03411v-.69116h7.04133v.69116h-3.97991l-.85653,1.7102q.88923-.032,2.83044-.29541l-.69137-.78987.59141-.395a10.62907,10.62907,0,0,1,1.02087,1.05279c.34965.45974.60278.80167.75638,1.02048l-.72326.49367q-.33035-.52843-.49367-.78948-.85693.13073-1.28275.181-.4297.04785-.95526.14627l-1.94018.26431-.79029.09813-.2625-.8549,1.0857-.066.72365-1.77621Zm3.456-4.08048a15.8526,15.8526,0,0,1-1.90931,1.87538h3.817q-.85509-.72346-1.119-.987C-335.62072-1698.32333-335.884-1698.61791-336.21192-1699.01387Z" transform="translate(350 1700)"/><path class="cls-1" d="M-326.03807-1692.53124a3.47852,3.47852,0,0,0-.36223-.75758,6.21486,6.21486,0,0,0,1.481-.46076,2.39778,2.39778,0,0,0,.953-.85389,2.50441,2.50441,0,0,0,.36161-1.38352,2.34676,2.34676,0,0,0-.59037-1.67768,2.43134,2.43134,0,0,0-1.71265-.68993,15.82236,15.82236,0,0,1-.78867,3.026,5.75466,5.75466,0,0,1-1.08567,1.80995.75229.75229,0,0,1-.62573.29541,1.11278,1.11278,0,0,1-.88782-.52639,2.98765,2.98765,0,0,1-.52741-1.80975,3.20265,3.20265,0,0,1,1.0536-2.43487,3.87544,3.87544,0,0,1,2.76338-.987,3.84131,3.84131,0,0,1,1.67769.39576,2.45705,2.45705,0,0,1,.88985.5912,2.75369,2.75369,0,0,1,.52537.888,4.09667,4.09667,0,0,1,.16537,1.0857,3.296,3.296,0,0,1-.46078,1.74453,3.05482,3.05482,0,0,1-1.251,1.15151A4.61055,4.61055,0,0,1-326.03807-1692.53124Zm-.65825-5.758a3.0412,3.0412,0,0,0-1.80953.98655,2.80055,2.80055,0,0,0-.55931,1.71081,2.22166,2.22166,0,0,0,.29581,1.21854c.11051.19627.24013.29623.39412.29623a.2867.2867,0,0,0,.2308-.13329,5.401,5.401,0,0,0,.78968-1.51334A12.89717,12.89717,0,0,0-326.69632-1698.2892Z" transform="translate(350 1700)"/><path class="cls-1" d="M-320.42029-1697.79592v-.69176h2.995v.69176Zm3.35579,1.31566v-3.09331h3.94862v3.09331h-1.67768v.69074h1.90806v.62513h-1.64438a5.87628,5.87628,0,0,0,.85491,1.05278,6.56676,6.56676,0,0,0,1.05278.69135,4.00162,4.00162,0,0,0-.55951.69134,4.12454,4.12454,0,0,1-.92072-.78968,6.81666,6.81666,0,0,1-.69114-.8547v2.13705h-.75779v-2.17077a7.20529,7.20529,0,0,1-1.6769,1.61128c-.08856-.13023-.1544-.22389-.197-.27956-.04369-.05465-.09468-.1156-.14953-.17939a.90544.90544,0,0,1-.11438-.16557v.92133h-.757v-.32872h-.95464v.46015h-.72365v-2.76458h2.43527v1.647a5.01126,5.01126,0,0,0,1.84205-1.67933h-1.54564v-.62513h1.84145v-.69074Zm-2.96125-2.43488v-.65843h2.27051v.65843Zm2.27051,2.17219h-2.27051v-.62552h2.27051Zm-2.27051,1.053v-.59282h2.27051v.59282Zm1.57956,2.26971v-1.05318h-.95464v1.05318Zm2.89484-4.86894v-.65843h-.82158v.65843Zm0,1.21672v-.658h-.82158v.658Zm1.6787-1.21672v-.65843h-.92091v.65843Zm0,1.21672v-.658h-.92091v.658Z" transform="translate(350 1700)"/><path class="cls-1" d="M-309.74931-1695.78952v-.5918h3.5876v.5918h-1.28356v.85613h1.05237v.5922h-1.05237v1.01927c.41648.11071.66962.17612.75616.19746a19.64067,19.64067,0,0,0,2.10514.06664h1.416l1.05277-.03333a2.49718,2.49718,0,0,0-.29662.69074q-3.58768,0-3.9478-.0321a4.46121,4.46121,0,0,1-1.41522-.29641,4.102,4.102,0,0,1-1.05237-.65843,6.01169,6.01169,0,0,1-.4949,1.1511,4.94947,4.94947,0,0,0-.59036-.49267,8.77388,8.77388,0,0,0,.45953-1.1521,10.79331,10.79331,0,0,0,.2637-1.44753l.757.09894q-.03351.26421-.19869,1.118a3.79728,3.79728,0,0,0,.5597.49328v-2.17119Zm.42724-1.05337v-2.69737h2.73293v2.69737Zm2.07426-1.57816v-.56011h-1.41439v.56011Zm0,.98676v-.52763h-1.41439v.52763Zm1.0861-1.51334v-.62594h3.88118v.62594H-303.892l-.13164.6243h1.38291v3.71986h-.88964c.26371.17513.449.295.55991.3598a4.36642,4.36642,0,0,0,.8553.36265,3.66163,3.66163,0,0,0-.42866.5922,11.32389,11.32389,0,0,1-1.47982-.78825l.42745-.5264H-305.011l.46157.42644a6.29384,6.29384,0,0,1-1.48226.95384,3.12148,3.12148,0,0,0-.45974-.5587,6.93414,6.93414,0,0,0,1.34959-.82158h-.69116v-3.71986h1.11942c.02031-.10787.05283-.31651.09751-.6243Zm2.82881,1.74372v-.5597h-1.80894v.5597Zm0,.98613v-.49226h-1.80894v.49226Zm0,1.05339v-.55931h-1.80894v.55931Z" transform="translate(350 1700)"/><path class="cls-1" d="M-298.46763-1699.31028l.85571.231q-.32911,1.74342-.39574,2.13724-.10057,1.02241-.09915,1.77765a12.5717,12.5717,0,0,0,.23119,2.4682l-.822.19726c-.02318-.39556-.0508-.71228-.08351-.95485-.03231-.24055-.06035-.46-.08146-.65783a9.78832,9.78832,0,0,1-.03414-1.02047A22.61314,22.61314,0,0,1-298.46763-1699.31028Zm1.48024,4.21252.75656.03069a1.15347,1.15347,0,0,0,.362.99,3.76982,3.76982,0,0,0,1.9739.36019,6.59633,6.59633,0,0,0,1.41521-.16414l.03291.85488c-1.00889.04369-1.50379.06807-1.48022.06807a3.90934,3.90934,0,0,1-2.403-.527A1.8846,1.8846,0,0,1-296.98739-1695.09776Zm4.11316-3.38992-.03372.75719c-.3726-.02093-.75636-.03312-1.1515-.03312a14.07955,14.07955,0,0,0-2.56552.26368l-.06582-.758a13.3866,13.3866,0,0,1,2.599-.26268C-293.65436-1698.52059-293.248-1698.5082-292.87423-1698.48768Z" transform="translate(350 1700)"/><path class="cls-1" d="M-289.51274-1693.947l.55828-.49307a10.49625,10.49625,0,0,1,1.3498,1.54563l-.69114.56011a6.61123,6.61123,0,0,0-.46117-.69176Q-288.8557-1693.15716-289.51274-1693.947Z" transform="translate(350 1700)"/><path class="cls-1" d="M-279.81854-1698.78388v-1.08591h.78887v1.08591h3.32329v.758h-3.32329v.986H-276.43v3.29038a.67233.67233,0,0,1-.16458.49489,4.649,4.649,0,0,1-1.11838.29662,2.68731,2.68731,0,0,0-.2631-.82382h.65783a.13505.13505,0,0,0,.09915-.03331.19384.19384,0,0,0,.03249-.13185v-2.402h-1.84305v4.08087h-.78887v-4.08087h-1.74413v3.25786h-.822V-1697.04h2.56612v-.986h-3.291v-.758Z" transform="translate(350 1700)"/><path class="cls-1" d="M-272.38126-1693.22319v-6.31707h5.75694v2.5003h-2.07183c0,.06663.02114.38457.06564.95382h2.63234v.69176h-2.50049a4.25781,4.25781,0,0,0,.52658,1.3492,1.88466,1.88466,0,0,0,.72407.72326,1.14916,1.14916,0,0,0,.426.23077.1298.1298,0,0,0,.13267-.09975,3.93006,3.93006,0,0,0,.22957-.75615,3.02129,3.02129,0,0,0,.757.42845,2.37877,2.37877,0,0,1-.45955,1.05237.62306.62306,0,0,1-.462.16476,1.88776,1.88776,0,0,1-.98613-.32869,3.00357,3.00357,0,0,1-1.05339-1.05318,6.04277,6.04277,0,0,1-.65723-1.711h-2.304v2.04075a23.86312,23.86312,0,0,0,2.40217-.4951v.72427l-3.78344.88821-.23038-.82157c.08775-.02216.19726-.049.32953-.0833A3.83658,3.83658,0,0,1-272.38126-1693.22319Zm4.93578-4.5073v-1.1178h-4.17963v1.1178Zm-2.04177.69053h-2.13786v.95382h2.20531Q-269.48745-1697.07135-269.48725-1697.04Z" transform="translate(350 1700)"/><path class="cls-1" d="M-259.61854-1692.53124a3.517,3.517,0,0,0-.362-.75758,6.186,6.186,0,0,0,1.48064-.46076,2.41267,2.41267,0,0,0,.95444-.85389,2.50431,2.50431,0,0,0,.36122-1.38352,2.3445,2.3445,0,0,0-.5912-1.67768,2.42825,2.42825,0,0,0-1.71182-.68993,15.74876,15.74876,0,0,1-.7895,3.026,5.75482,5.75482,0,0,1-1.08507,1.80995.75407.75407,0,0,1-.62655.29541,1.113,1.113,0,0,1-.88739-.52639,2.98443,2.98443,0,0,1-.5264-1.80975,3.20264,3.20264,0,0,1,1.05279-2.43487,3.87914,3.87914,0,0,1,2.76378-.987,3.84638,3.84638,0,0,1,1.6781.39576,2.44647,2.44647,0,0,1,.88823.5912,2.75087,2.75087,0,0,1,.52577.888,4.05882,4.05882,0,0,1,.16416,1.0857,3.29869,3.29869,0,0,1-.459,1.74453,3.05629,3.05629,0,0,1-1.25065,1.15151A4.61721,4.61721,0,0,1-259.61854-1692.53124Zm-.65825-5.758a3.03754,3.03754,0,0,0-1.80912.98655,2.80153,2.80153,0,0,0-.55891,1.71081,2.22352,2.22352,0,0,0,.29541,1.21854.47147.47147,0,0,0,.39412.29623.289.289,0,0,0,.231-.13329,5.40889,5.40889,0,0,0,.78928-1.51334A12.8694,12.8694,0,0,0-260.27679-1698.2892Z" transform="translate(350 1700)"/><path class="cls-1" d="M-253.20519-1697.30265h3.61951v2.40236h-3.02688l-.09855.46017h3.28957v2.03971h-.69074v-.29578h-1.94058v.36181h-.69134v-1.90929a4.24075,4.24075,0,0,0-.115.41262,1.22745,1.22745,0,0,1-.14933.37727l-.42661.79008a5.12534,5.12534,0,0,0-.593-.55949,4.68391,4.68391,0,0,0,.593-1.118,3.58865,3.58865,0,0,0,.19686-.98736C-253.21615-1695.4157-253.20519-1696.07494-253.20519-1697.30265Zm1.579-2.69735.724.26248-.09751.09915c.34923.17573.74458.39412,1.1824.65721.28644.17533.51622.32932.69257.46057l-.49469.65885-.46036-.36284v.52658h-2.468v-.36142c-.15317.13125-.31145.25782-.47661.37808-.165.12006-.32343.24705-.47661.37869a5.36183,5.36183,0,0,0-.49369-.55909,6.597,6.597,0,0,0,.98613-.69137,7.97682,7.97682,0,0,0,.79112-.72465A6.494,6.494,0,0,0-251.62622-1700Zm1.31647,4.60562v-.46117h-2.20489l-.03312.46117Zm0-.95463v-.42745h-2.20489v.42745Zm-1.1184-2.76257a11.26213,11.26213,0,0,1-.85652.82238h2.17239A15.40585,15.40585,0,0,0-251.42815-1699.11158Zm1.31587,5.85689v-.62633h-1.94058v.62633Zm1.25086-1.05378v-4.73891h.72346v4.73891Zm1.51232,1.08528v-6.51433h.72367v6.58034a.669.669,0,0,1-.16395.49348,2.77606,2.77606,0,0,1-1.21735.36223,2.72577,2.72577,0,0,0-.26308-.78968h.82178a.09.09,0,0,0,.066-.03331A.12733.12733,0,0,0-247.3491-1693.22319Z" transform="translate(350 1700)"/><path class="cls-1" d="M-243.92463-1696.08614v-.69032h1.74414v2.89544a2.98337,2.98337,0,0,0,.95363.49367,4.68833,4.68833,0,0,0,1.11919.23017c.28464.02338,1.11841.03272,2.49949.03272h.59261l.62574-.03272a2.44454,2.44454,0,0,0-.22978.72467q-3.09492,0-3.45554-.03372a6.06594,6.06594,0,0,1-1.349-.23,3.24365,3.24365,0,0,1-.98736-.5585l-1.31587,1.01844-.42724-.78989,1.18381-.69074v-2.36926Zm.26329-3.02544.45914-.55931q.82283.55767,1.21836.85389l-.45994.59242A12.34718,12.34718,0,0,0-243.66134-1699.11158Zm4.21111.361V-1699.77h.75717v1.01946h1.77644v.62513h-1.77644v.88821h2.2362v.65885h-5.39594v-.65885h2.40257v-.88821h-1.38067a4.815,4.815,0,0,1-.52843.69116,1.54554,1.54554,0,0,0-.24582-.19708c-.09834-.06663-.20317-.13224-.31307-.19807a9.45081,9.45081,0,0,0,.69136-.98756c.15258-.307.27345-.56925.362-.78888l.69134.26329-.29641.592Zm-1.6454,5.19867v-2.53423h4.04736v2.53423h-.75737v-.29682H-240.372v.29682Zm3.29-.92153v-1.02048H-240.372v1.02048Z" transform="translate(350 1700)"/><path class="cls-1" d="M-230.9228-1697.26893h-2.63234v-.757h2.69858v-1.67849h.88761l-.065,1.67849h3.02505q-.06522,3.32137-.16375,4.07886a1.67281,1.67281,0,0,1-.26308.989,1.12917,1.12917,0,0,1-.42664.29437,5.55728,5.55728,0,0,1-1.18545.19747,2.58579,2.58579,0,0,0-.39494-.82259h1.11961c.15339,0,.24095-.1091.26248-.32951a28.83944,28.83944,0,0,0,.1983-3.6506h-2.23782a7.762,7.762,0,0,1-.362,1.90809,7.09867,7.09867,0,0,1-.78968,1.34878,5.01383,5.01383,0,0,1-.75656.78887,8.27563,8.27563,0,0,1-1.218.79068l-.16456-.32971q-.19777-.1984-.36061-.395a5.21763,5.21763,0,0,0,1.54544-.98715,4.25106,4.25106,0,0,0,.85611-1.25A7.81351,7.81351,0,0,0-230.9228-1697.26893Z" transform="translate(350 1700)"/><path class="cls-1" d="M-221.448-1699.73752l.8547.36244-.56012.8874c.155-.02052.29782-.03841.42847-.04877.13165-.01117.2574-.02783.37848-.04895a1.82593,1.82593,0,0,1,.31328-.03251,8.76216,8.76216,0,0,1,.88842-.19909l.0331.75758-1.48163.19768c.04348,0-.28524.02113-.98616.06582l-.49448.756c.35086-.04288.53736-.06624.5597-.06624a2.944,2.944,0,0,1,.527.06624.80526.80526,0,0,1,.32872.23119,1.16137,1.16137,0,0,1,.19746.2962,2.0742,2.0742,0,0,1,.06624.39394l2.30282-.8547.26268.82239q-.42723.0972-1.21713.29539c.02134,0-.42845.144-1.34837.42868,0,.50546.01036.92031.03169,1.24984h-.75615v-.95505a3.97354,3.97354,0,0,0-1.21734.692.56888.56888,0,0,0-.26371.461.51079.51079,0,0,0,.36184.46055,3.5946,3.5946,0,0,0,1.64519.26391,17.93962,17.93962,0,0,0,2.10594-.16557v.7901q-1.51365.0972-2.00763.09892a4.43145,4.43145,0,0,1-2.30281-.46076,1.0587,1.0587,0,0,1-.52577-.95505,1.24966,1.24966,0,0,1,.42743-.88721,8.41046,8.41046,0,0,1,1.77686-1.02129.76842.76842,0,0,0-.13125-.52577.5445.5445,0,0,0-.396-.13125,1.39685,1.39685,0,0,0-.8222.22978,11.441,11.441,0,0,0-1.546,1.57936l-.592-.55928a15.99318,15.99318,0,0,0,1.25065-1.24986,9.14091,9.14091,0,0,0,.91991-1.21792,8.30341,8.30341,0,0,1-1.51273,0l-.03352-.72387c.33014.02316.73564.03331,1.21712.03331h.72467C-221.90939-1698.663-221.71192-1699.10062-221.448-1699.73752Z" transform="translate(350 1700)"/><path class="cls-1" d="M-215.24818-1694.50656a1.07912,1.07912,0,0,1,.7901.32953,1.08308,1.08308,0,0,1,.32911.78968,1.07885,1.07885,0,0,1-.32911.78866,1.08242,1.08242,0,0,1-.7901.33055,1.07961,1.07961,0,0,1-.78988-.33055,1.07061,1.07061,0,0,1-.32871-.78866,1.07478,1.07478,0,0,1,.32871-.78968A1.07633,1.07633,0,0,1-215.24818-1694.50656Zm0,.52741a.53772.53772,0,0,0-.39494.16395.6.6,0,0,0-.19768.42785.53538.53538,0,0,0,.19768.42928.53858.53858,0,0,0,.39494.16233.58119.58119,0,0,0,.42826-.16233.58716.58716,0,0,0,.16395-.42928.76271.76271,0,0,0-.16395-.42785A.5799.5799,0,0,0-215.24818-1693.97915Z" transform="translate(350 1700)"/><rect class="cls-1" x="0.48963" y="13.64077" width="2.1545" height="2.54763"/><path class="cls-1" d="M-338.96515-1677.77288c-1.67606-.37665-3.404-.65946-3.33344-1.65636.00162-.86851,1.02229-1.15882,2.07183-1.16228,1.12387.014,2.16324.39169,2.27416,1.61126l.01706.18185h2.14945l-.012-.21191c-.1355-2.72783-2.19919-3.55733-4.57353-3.53337-1.90118.00306-4.17272.92277-4.18348,3.23513.003,2.20083,1.9225,2.82881,3.64327,3.20831,1.799.38661,3.381.65924,3.32816,1.78353-.00162,1.13363-1.2795,1.37886-2.37533,1.385-1.42132-.01627-2.61183-.45448-2.66627-1.86361l-.00733-.1942H-344.793l.00772.20945c.10119,2.74123,2.24858,3.80153,4.65279,3.80153.024,0,.04712,0,.0711-.00061,2.1921-.00285,4.732-.85794,4.7391-3.56159C-335.32533-1676.76154-337.22508-1677.39216-338.96515-1677.77288Z" transform="translate(350 1700)"/><rect class="cls-1" x="0.48963" y="17.706" width="2.1545" height="11.06674"/><path class="cls-1" d="M-301.84131-1674.73928a2.36058,2.36058,0,0,1-2.533,1.80812,2.90839,2.90839,0,0,1-3.12175-3.10165h7.98014l.00609-.19707c.00121-.10441.00445-.20987.00445-.31752-.00445-2.58421-1.25266-5.9914-5.0355-5.99566-3.02913.00589-5.2066,2.467-5.2127,5.75144.0833,3.32269,1.80082,5.82765,5.31711,5.81242h.03251a4.49676,4.49676,0,0,0,4.71535-3.76008Zm-2.80116-5.85182a2.84776,2.84776,0,0,1,2.8538,2.60613h-5.68219A2.797,2.797,0,0,1-304.64247-1680.5911Z" transform="translate(350 1700)"/><path class="cls-1" d="M-327.3322-1677.77328c-1.67933-.37523-3.40292-.65906-3.33223-1.65636.00141-.86851,1.02108-1.158,2.06939-1.16269,1.12225.01361,2.16283.39373,2.27477,1.61086l.01646.184h2.14822l-.01219-.21248c-.13612-2.72885-2.19819-3.55817-4.57232-3.53277-1.90178.00285-4.17168.92175-4.18369,3.23552.00468,2.19942,1.9213,2.82617,3.64246,3.2069,1.80122.3862,3.38344.65885,3.33062,1.784-.00163,1.13465-1.27909,1.37905-2.37575,1.38514-1.42416-.01687-2.61427-.45406-2.66831-1.8646l-.00895-.19422H-333.159l.00873.20945c.09711,2.74064,2.2445,3.80133,4.6483,3.80133.024,0,.048,0,.07131-.0006,2.19332-.00264,4.733-.85653,4.74114-3.561C-323.6928-1676.76093-325.59152-1677.39317-327.3322-1677.77328Z" transform="translate(350 1700)"/><path class="cls-1" d="M-314.24383-1676.06794c-.01949,1.84812-.93553,3.12054-2.95313,3.13556a1.80212,1.80212,0,0,1-1.966-1.94038v-7.42184h-2.15348v7.213a4.54108,4.54108,0,0,0,.82788,2.9383,3.70977,3.70977,0,0,0,3.04211,1.16512h.02132a3.93528,3.93528,0,0,0,3.28695-1.53162v1.28215h2.05088v-11.06695h-2.15655Z" transform="translate(350 1700)"/></g></g></svg>