<svg xmlns="http://www.w3.org/2000/svg" viewBox="0 0 211.26 46.36"><defs><style>.cls-1{fill:#231f20;}</style></defs><title>title_top</title><g id="レイヤー_2" data-name="レイヤー 2"><g id="レイヤー_1-2" data-name="レイヤー 1"><path class="cls-1" d="M1.62,32.58a58.24,58.24,0,0,0,3.89,8.1,13,13,0,0,0,3.34,4.06.92.92,0,0,1,.29.31A.79.79,0,0,1,9,46.18a.81.81,0,0,1-1.07,0,14.71,14.71,0,0,1-3.84-4.59,60.12,60.12,0,0,1-4-8.33.84.84,0,0,1,0-.62,1,1,0,0,1,.4-.51.68.68,0,0,1,.67,0A.93.93,0,0,1,1.62,32.58Zm19.5,3.25a.8.8,0,0,1,.4.35.71.71,0,0,1-.27,1.1.77.77,0,0,1-.71.08A8.4,8.4,0,0,0,17,36.89l.33.55a3,3,0,0,1,.35,2.63,3.78,3.78,0,0,1-1.76,2,4.52,4.52,0,0,1-2.64.74A2.71,2.71,0,0,1,11,41.43,2.76,2.76,0,0,1,11,38.66a4.86,4.86,0,0,1,2-2.13,9,9,0,0,1,1.46-.69q-1.54-2.37-2.73-4.26-2.18,1.51-4.3,2.76A.72.72,0,0,1,6.24,34a.82.82,0,0,1,.28-1.14q1.94-1.14,4.21-2.73-.18-.3-.92-1.43-.54-.85-.91-1.46a.73.73,0,0,1-.06-.62.92.92,0,0,1,.41-.53.82.82,0,0,1,1.14.28q1.09,1.84,1.7,2.82,1.72-1.25,2.62-2a.86.86,0,0,1,.67-.18.83.83,0,0,1,.4,1.46q-1,.82-2.78,2.11l3,4.75A9.7,9.7,0,0,1,21.12,35.83Zm-5.18,2.46-.66-1.05a7,7,0,0,0-1.52.68,3.46,3.46,0,0,0-1.19,1.15,1.4,1.4,0,0,0-.11,1.55q.78,1.3,2.67.16Q16.82,39.74,15.94,38.29Z"/><path class="cls-1" d="M35.85,16.91a.8.8,0,0,1,.12.63.82.82,0,0,1-.36.54,34.44,34.44,0,0,1-3.79,2.15l1.52,12.41a.77.77,0,0,1-.53.89.86.86,0,0,1-1.14-.48,1.1,1.1,0,0,1-.06-.2Q31.14,28.74,30.22,21a28.55,28.55,0,0,1-2.9,1.17.8.8,0,0,1-.64,0,.81.81,0,0,1-.42-.48q-.26-.81.64-1.11A29.58,29.58,0,0,0,30,19.26L29.52,16a.81.81,0,0,1,.59-.92.83.83,0,0,1,1.08.45,1.22,1.22,0,0,1,.07.22l.36,2.74a32.48,32.48,0,0,0,3.07-1.78.8.8,0,0,1,.63-.12A.83.83,0,0,1,35.85,16.91ZM43,18.84q0,.41-.51.63l-.16,0a7,7,0,0,0-2.66.62,23.22,23.22,0,0,0-2.61,1.32.78.78,0,0,1-.62.08.81.81,0,0,1-.5-.39.78.78,0,0,1-.08-.62.82.82,0,0,1,.39-.5,26.53,26.53,0,0,1,2.91-1.45,6.23,6.23,0,0,1,3.11-.66.82.82,0,0,1,.64.53A1.26,1.26,0,0,1,43,18.84Zm3.94,7.33a.89.89,0,0,1,.1.64.75.75,0,0,1-.37.51,20,20,0,0,1-3,1.52q-3.17,1.3-4.95.79A2.7,2.7,0,0,1,36.9,28a3.56,3.56,0,0,1-.2-.66.78.78,0,0,1,.13-.62.83.83,0,0,1,.54-.35.75.75,0,0,1,.61.13.86.86,0,0,1,.34.55,1.42,1.42,0,0,0,.09.34,1.16,1.16,0,0,0,.8.67q1.17.36,3.7-.68a19.84,19.84,0,0,0,2.88-1.46.89.89,0,0,1,.64-.1A.75.75,0,0,1,46.95,26.18Z"/><path class="cls-1" d="M71.31,15.68a5.3,5.3,0,0,1-.15,2.92q-1.07,2.93-6,4.74a.76.76,0,0,1-.63,0,.85.85,0,0,1-.43-.48.73.73,0,0,1,0-.62.87.87,0,0,1,.48-.42q5.88-2.12,5-5.72a2.43,2.43,0,0,0-1.65-1.83,4.42,4.42,0,0,0-2.54-.05q-3.49.84-6,5a1,1,0,0,1-.61.5.82.82,0,0,1-1-.61,47,47,0,0,1-1.23-8.84.82.82,0,0,1,.22-.61.8.8,0,0,1,.58-.27.91.91,0,0,1,.63.21.76.76,0,0,1,.29.58,51.53,51.53,0,0,0,.77,6.65,10.72,10.72,0,0,1,5.94-4.2,6.1,6.1,0,0,1,3.86.23A3.83,3.83,0,0,1,71.31,15.68ZM65.17,7.29a.82.82,0,0,1,.24.42.78.78,0,0,1-.11.63.86.86,0,0,1-.55.38A.81.81,0,0,1,64,8.53a2.84,2.84,0,0,0-.78-.4A21,21,0,0,0,58.88,7a.85.85,0,0,1-.62-1.29.84.84,0,0,1,.54-.39.81.81,0,0,1,.33,0Q64,6.15,65.17,7.29Z"/><path class="cls-1" d="M98.35,5.68a.68.68,0,0,1-.44.75Q96.61,7,95.14,7.55L96.59,9.8a23.13,23.13,0,0,1,1.33,2.34.8.8,0,0,1,.1.31.78.78,0,0,1-.18.59.76.76,0,0,1-.53.28.87.87,0,0,1-.35,0,13.12,13.12,0,0,0-5.48-.7,6.4,6.4,0,0,0-2.35.59,1.87,1.87,0,0,0-1.2,1.9q.1,1.24,1.92,1.64a8.71,8.71,0,0,0,2.74.16,17.2,17.2,0,0,0,2.71-.46.84.84,0,0,1,.61.09.71.71,0,0,1,.36.48.81.81,0,0,1-.1.61.74.74,0,0,1-.49.36,18.72,18.72,0,0,1-3,.5,9.76,9.76,0,0,1-4-.36,3.22,3.22,0,0,1-2.41-2.89,3.31,3.31,0,0,1,2.07-3.43,8.17,8.17,0,0,1,3-.76,15.23,15.23,0,0,1,4.25.27q-.86-1.45-2-3.18a23.46,23.46,0,0,1-5.24,1.15,8.79,8.79,0,0,1-2.67-.12.74.74,0,0,1-.61-.71.77.77,0,0,1,1-.8,7.12,7.12,0,0,0,2.18.1,21.55,21.55,0,0,0,4.47-1Q92,5.69,91.17,4.55a21,21,0,0,1-4.07.78,10.07,10.07,0,0,1-2.33,0,.68.68,0,0,1-.63-.69A.76.76,0,0,1,84.37,4,.7.7,0,0,1,85,3.8a9.09,9.09,0,0,0,2,0,19.47,19.47,0,0,0,3.23-.59q-.57-.76-1.5-2a.77.77,0,0,1-.17-.42A.7.7,0,0,1,89.27,0,.8.8,0,0,1,90,.29q.75.93,1.82,2.46A28.65,28.65,0,0,0,95,1.49a.86.86,0,0,1,.27-.07.66.66,0,0,1,.8.69.7.7,0,0,1-.42.75q-1.44.67-2.88,1.19.42.59,1.5,2.18,1.66-.6,3-1.2A.68.68,0,0,1,97.53,5a.72.72,0,0,1,.56.18A.77.77,0,0,1,98.35,5.68Z"/><path class="cls-1" d="M115,1.63a58.18,58.18,0,0,0-1.45,8.87,13,13,0,0,0,.41,5.24.92.92,0,0,1,.06.42.79.79,0,0,1-.79.82.81.81,0,0,1-.86-.63,14.71,14.71,0,0,1-.52-6,60,60,0,0,1,1.49-9.12.84.84,0,0,1,.37-.51,1,1,0,0,1,.62-.19.67.67,0,0,1,.58.35A.93.93,0,0,1,115,1.63Zm14.13,13.83a.8.8,0,0,1,.13.52.71.71,0,0,1-.86.75.76.76,0,0,1-.62-.34A8.42,8.42,0,0,0,125.11,14l0,.64A3,3,0,0,1,123.85,17a3.79,3.79,0,0,1-2.6.66,4.52,4.52,0,0,1-2.59-.91,2.71,2.71,0,0,1-1-2.44A2.76,2.76,0,0,1,119.14,12a4.87,4.87,0,0,1,2.83-.62,9,9,0,0,1,1.6.27q.1-2.83.2-5.06-2.65,0-5.1-.2a.72.72,0,0,1-.75-.88.82.82,0,0,1,.88-.77q2.25.17,5,.17,0-.34.07-1.7,0-1,.09-1.72a.73.73,0,0,1,.31-.54.92.92,0,0,1,.64-.2.8.8,0,0,1,.57.28.8.8,0,0,1,.2.6q-.17,2.13-.22,3.28,2.12,0,3.28-.13a.86.86,0,0,1,.65.24.75.75,0,0,1,.26.63.75.75,0,0,1-.77.8q-1.3.1-3.49.14l-.24,5.63A9.7,9.7,0,0,1,129.09,15.46Zm-5.65-1q0-.39.06-1.24a7,7,0,0,0-1.64-.32,3.47,3.47,0,0,0-1.63.26,1.4,1.4,0,0,0-1,1.2q-.1,1.51,2.1,1.66Q123.33,16.2,123.44,14.5Z"/><path class="cls-1" d="M151,21.92a.83.83,0,0,1,.06.56.89.89,0,0,1-.38.56.83.83,0,0,1-.66.12.81.81,0,0,1-.6-.49,43,43,0,0,0-4.77-7.78q-1.66-2.18-1.34-3.6t2.52-2.55l2.89-1.55q2.1-1.18,4-2.5a.86.86,0,0,1,.71-.12.86.86,0,0,1,.66,1,.86.86,0,0,1-.35.53,46.63,46.63,0,0,1-4.18,2.58l-2.94,1.54q-1.47.78-1.61,1.41t1,2.16A44.19,44.19,0,0,1,151,21.92Zm5-10a.72.72,0,0,1,0,.38.58.58,0,0,1-.77.51.65.65,0,0,1-.49-.44q-.34-.9-.87-2.13a.67.67,0,0,1,0-.43.59.59,0,0,1,.8-.51.64.64,0,0,1,.46.38A19.36,19.36,0,0,1,156,11.91Zm2.77-.58a.62.62,0,0,1,0,.38.61.61,0,0,1-.82.52.65.65,0,0,1-.49-.44q-.41-1.13-.87-2.1a.64.64,0,0,1-.06-.46.61.61,0,0,1,.82-.52.63.63,0,0,1,.44.36A20.69,20.69,0,0,1,158.8,11.33Z"/><path class="cls-1" d="M177.69,31a.92.92,0,0,1,0,.58.83.83,0,0,1-.47.48.89.89,0,0,1-.68,0,.87.87,0,0,1-.54-.58,42.26,42.26,0,0,0-3.5-8.41q-1.32-2.44-.79-3.79t2.88-2.13A78.67,78.67,0,0,0,182,14.19a.91.91,0,0,1,.72,0,.87.87,0,0,1,.51,1.16.89.89,0,0,1-.44.49,81,81,0,0,1-7.64,3q-1.6.56-1.81,1.09T174,22.2A45.92,45.92,0,0,1,177.69,31Z"/><path class="cls-1" d="M206.77,40.41a5.84,5.84,0,0,1-2,2.32Q202,44.47,198,42.14q-2.74-1.59-2.84-3.3A3.85,3.85,0,0,1,195.6,37a3,3,0,0,1-.86-.34q-2.78-1.62-1.09-4.54a4.57,4.57,0,0,1,2.31-2,3.23,3.23,0,0,1,3,.15,3,3,0,0,1,.53.41l1.41-2.29q-1.86-1-3.13-1.71a.8.8,0,0,1-.39-.5.78.78,0,0,1,.57-1,.8.8,0,0,1,.63.09q1.33.77,3.15,1.72l1.6-2.71a.74.74,0,0,1,.49-.36.82.82,0,0,1,.62.1.84.84,0,0,1,.4.51.76.76,0,0,1-.06.61l-1.6,2.61,3.64,1.74a.81.81,0,0,1,.41.46.77.77,0,0,1,0,.63.8.8,0,0,1-.47.42.76.76,0,0,1-.61,0q-2.33-1.11-3.79-1.86l-2.06,3.41a3.27,3.27,0,0,1-.84,2,31.1,31.1,0,0,0-2.13,2.8,2.61,2.61,0,0,0-.46,1.43q.08.92,2,2,3.06,1.78,5,.51a4.12,4.12,0,0,0,1.41-1.65.77.77,0,0,1,.48-.4.85.85,0,0,1,.65,0,.78.78,0,0,1,.41.48A.82.82,0,0,1,206.77,40.41Zm-8.18-8.26a1,1,0,0,0-.47-.51,1.77,1.77,0,0,0-1.76,0A3.14,3.14,0,0,0,195,32.9a1.5,1.5,0,0,0,.5,2.34.94.94,0,0,0,1.44-.42Q197.34,34.21,198.59,32.15Zm12.66,4.8a.69.69,0,0,1-.09.34.9.9,0,0,1-.55.42.82.82,0,0,1-.67-.07.78.78,0,0,1-.39-.76,16.75,16.75,0,0,0-.49-4.14.78.78,0,0,1,.09-.61.83.83,0,0,1,1.13-.3.78.78,0,0,1,.38.49A15.37,15.37,0,0,1,211.26,36.95Z"/></g></g></svg>